<?xml version="1.0" standalone="no"?>
<!DOCTYPE svg PUBLIC "-//W3C//DTD SVG 1.1//EN" "http://www.w3.org/Graphics/SVG/1.1/DTD/svg11.dtd" >
<svg xmlns="http://www.w3.org/2000/svg">
<metadata>
This is a custom SVG webfont generated by Fontspring.
</metadata>
<defs>
<font id="webfont3JLVF59W" horiz-adv-x="1028" >
<font-face units-per-em="2048" ascent="1546" descent="-502" />
<missing-glyph horiz-adv-x="509" />
<glyph unicode=" "  horiz-adv-x="509" />
<glyph unicode="&#x09;" horiz-adv-x="509" />
<glyph unicode="&#xa0;" horiz-adv-x="509" />
<glyph unicode="!" horiz-adv-x="587" d="M186 1448l11 12l188 25l12 -8l-39 -1086l-10 -10h-108l-11 10zM193 10v187l10 10h182l10 -10v-187l-10 -10h-182z" />
<glyph unicode="&#x22;" horiz-adv-x="708" d="M106 1372l11 10h159l11 -10l-21 -346l-10 -10h-117l-10 10zM422 1372l10 10h160l10 -10l-20 -346l-11 -10h-116l-11 10z" />
<glyph unicode="#" horiz-adv-x="1372" d="M92 377v121l10 10h236l68 362h-203l-10 11v120l10 11h229l66 350l12 12l131 21l12 -11l-69 -372h309l65 350l13 12l131 21l12 -11l-70 -372h248l8 -11l-34 -120l-15 -11h-233l-68 -362h242l8 -10l-35 -121l-14 -10h-227l-66 -357l-12 -10h-131l-8 10l65 357h-309 l-66 -357l-12 -10h-131l-8 10l65 357h-209zM489 508h310l67 362h-309z" />
<glyph unicode="$" horiz-adv-x="1005" d="M104 106l70 109l16 2q96 -78 259 -84v363q-74 25 -118 45t-96.5 56t-77 88t-24.5 122q0 121 90 197.5t226 97.5v137l10 12l98 15l10 -9v-151q74 -4 144.5 -22.5t105.5 -33t47 -24.5l2 -10l-63 -113l-15 -2q-78 51 -221 57v-335q74 -25 121 -46.5t100.5 -59.5t80 -94 t26.5 -130q0 -137 -94 -209t-234 -90v-144l-10 -10h-98l-10 10v136q-195 8 -340 110zM297 811q0 -53 39 -86t113 -61v288q-152 -26 -152 -141zM567 139q164 23 164 154q0 57 -42 94t-122 68v-316z" />
<glyph unicode="%" horiz-adv-x="1443" d="M119 967v209q0 104 67.5 162.5t176 58.5t175 -58.5t66.5 -162.5v-209q0 -104 -66.5 -161.5t-175 -57.5t-176 57.5t-67.5 161.5zM123 10l1032 1381l14 4l127 -39l4 -10l-1003 -1342l-12 -4h-158zM240 989q0 -123 122 -123q121 0 121 123v168q0 119 -121 119 q-123 0 -122 -119v-168zM842 199v207q0 106 67.5 163.5t175.5 57.5q111 0 178.5 -57.5t67.5 -163.5v-207q0 -104 -68.5 -164t-177 -60t-176 60t-67.5 164zM963 215q0 -119 122 -119q121 0 121 119v170q0 121 -121 121q-123 0 -122 -121v-170z" />
<glyph unicode="&#x26;" horiz-adv-x="1224" d="M117 410q0 121 56 210t159 107q-82 37 -131 116t-49 181q0 188 123.5 273t326.5 85h131l8 -10l-22 -127l-12 -10h-105q-287 0 -287 -209q0 -119 70 -168t227 -49h168l19 207l10 12l117 16l10 -8v-227h207l10 -10l-39 -127l-14 -10h-164v-629l-10 -13q-145 -45 -338 -45 q-197 0 -334 108t-137 327zM281 412q0 -141 93 -215t218 -74l180 22v517h-160q-156 0 -243.5 -68.5t-87.5 -181.5z" />
<glyph unicode="'" horiz-adv-x="393" d="M106 1372l11 10h159l11 -10l-21 -346l-10 -10h-117l-10 10z" />
<glyph unicode="(" horiz-adv-x="577" d="M131 571.5q0 180.5 28.5 333t69.5 240.5t82 151.5t70 87.5l29 23h14l82 -90l-2 -14q-8 -8 -22.5 -25.5t-50.5 -81t-63.5 -140.5t-50 -207t-22.5 -277.5t21.5 -277.5t53 -210t62.5 -138.5t51 -82.5l23 -25l-2 -14l-80 -88l-14 -2q-12 8 -31 24.5t-67 84t-85 153.5 t-66.5 240.5t-29.5 335z" />
<glyph unicode=")" horiz-adv-x="577" d="M72 -162q8 8 22.5 25.5t51 81t64.5 140.5t50.5 208t22.5 278.5t-21.5 276.5t-52.5 209t-61.5 138t-53.5 83l-20 25l-2 14l82 90h14q12 -8 30.5 -24.5t66.5 -85t85 -153.5t66.5 -238.5t29.5 -334t-28.5 -334t-69.5 -242.5t-82 -151.5t-69 -85.5l-29 -24l-14 2l-80 88z" />
<glyph unicode="*" horiz-adv-x="1110" d="M102 1012l43 118l13 7l213 -123q47 -27 69 -27q6 0 19 4v-16q-47 -80 -125 -80q-53 0 -109 33l-119 69zM197 684l2 14l213 123q55 33 63 66l12 -8q25 -41 25 -84q0 -82 -100 -142l-119 -69l-14 4zM371 1227v137l10 12l125 23l10 -8v-246q0 -68 25 -88l-15 -8 q-155 0 -155 178zM573 848l15 8q156 0 155 -178v-137l-10 -13l-125 -22l-10 8v246q0 68 -25 88zM602 1110q0 82 100 141l119 70l15 -4l82 -96l-3 -15l-213 -123q-55 -33 -63 -65l-12 8q-25 41 -25 84zM655 913v17q47 80 125 80q51 0 109 -33l119 -70l4 -14l-43 -119l-13 -6 l-213 123q-45 25 -69 24q-13 0 -19 -2z" />
<glyph unicode="+" horiz-adv-x="1126" d="M193 465v129l10 10h264v293l10 12l144 21l10 -8v-318h297l8 -10l-33 -129l-12 -10h-260v-330l-10 -10h-144l-10 10v330h-264z" />
<glyph unicode="," horiz-adv-x="505" d="M66 -225l86 428l12 10h215l6 -10l-217 -459l-14 -8l-80 24z" />
<glyph unicode="-" horiz-adv-x="870" d="M170 459v143l10 10h527l8 -10l-37 -143l-12 -10h-486z" />
<glyph unicode="." horiz-adv-x="483" d="M137 10v193l10 10h189l10 -10v-193l-10 -10h-189z" />
<glyph unicode="/" horiz-adv-x="708" d="M72 -143l399 1505l10 12l144 21l12 -9l-408 -1527l-12 -13h-139z" />
<glyph unicode="0" horiz-adv-x="1167" d="M137 373v327q0 199 130 298.5t316.5 99.5t316.5 -99.5t130 -298.5v-327q0 -199 -130 -298.5t-316.5 -99.5t-316.5 99.5t-130 298.5zM301 408q0 -139 78 -212t205 -73t204.5 72.5t77.5 212.5v258q0 139 -77.5 211.5t-204.5 72.5t-205 -72.5t-78 -211.5v-258z" />
<glyph unicode="1" horiz-adv-x="897" d="M84 10v127l10 10h287v779h-195l-12 10l-37 127l8 10h390l10 -10v-916h299l8 -10l-37 -127l-12 -10h-709z" />
<glyph unicode="2" horiz-adv-x="1054" d="M84 872q6 8 16.5 23.5t49 54.5t84 69t122 54.5t160.5 24.5q170 0 279.5 -91.5t109.5 -258.5q0 -92 -40 -183.5t-91 -153t-113.5 -114.5t-97.5 -74.5t-49 -29.5l-86 -46h518l8 -10l-34 -127l-13 -10h-739l-10 10l-19 90q84 45 171 104.5t189.5 144.5t167 188.5t64.5 200 t-61.5 152.5t-169.5 56q-162 0 -277 -143l-14 -21h-14l-109 74z" />
<glyph unicode="3" horiz-adv-x="1067" d="M49 -88l2 16l105 74h14q4 -8 12 -19.5t39 -42t64.5 -54t89 -43t114.5 -19.5q119 0 205 69.5t86 186.5v29q0 115 -89 178t-251 63h-90l-8 10l35 127l12 11h51q305 0 305 225q0 115 -74.5 171t-191.5 56q-170 0 -276 -131l-13 -18h-16l-102 73l-2 15q4 8 14 22.5t47 50 t81 63.5t115.5 50.5t151.5 22.5q193 0 311.5 -99.5t118.5 -275.5q0 -94 -50 -181t-134 -122q100 -33 159.5 -111t59.5 -172v-78q0 -174 -133 -278.5t-315 -104.5q-90 0 -170 25t-128 59.5t-84 68.5t-51 58z" />
<glyph unicode="4" horiz-adv-x="1099" d="M49 172l637 883l12 8l119 20l10 -8v-866h254l9 -10l-37 -127l-13 -11h-213v-360l-10 -12l-143 -21l-10 8v385h-574l-10 11zM260 209h404v493l4 72l-35 -61l-342 -467z" />
<glyph unicode="5" horiz-adv-x="999" d="M0 -94l2 16l104 74h15q4 -8 12 -19.5t39 -42t64.5 -54t90 -43t117.5 -19.5q115 0 202 69.5t87 184.5v61q0 115 -87 183.5t-202 68.5q-137 0 -237 -55h-10l-64 88v645l12 10h678l8 -10l-36 -127l-13 -10h-485v-410q74 16 152 16q180 0 314 -102t134 -276v-105 q0 -172 -134 -275.5t-314 -103.5q-90 0 -169 24.5t-128.5 58.5t-85 69t-50.5 59z" />
<glyph unicode="6" horiz-adv-x="1155" d="M162 373v628q0 174 133 288t321 114q80 0 152 -23.5t116 -56.5t77.5 -65.5t48.5 -57.5l14 -22v-15l-106 -76h-17q-2 4 -13 20.5t-37 42.5t-57.5 48.5t-78.5 39.5t-99 17q-121 0 -205.5 -68.5t-84.5 -215.5v-154l-13 -96q4 10 11.5 24.5t31 39t55 44t86 35t119.5 15.5 q178 0 304.5 -99.5t126.5 -302.5v-104q0 -201 -128 -299.5t-314.5 -98.5t-314.5 98.5t-128 299.5zM326 408q0 -139 77.5 -212t200.5 -73q125 0 202 71.5t77 213.5v32q0 139 -77 213t-198 74q-180 0 -282 -65v-254z" />
<glyph unicode="7" horiz-adv-x="931" d="M35 1063l6 10h809l8 -10l19 -80l-555 -1300l-13 -7l-137 35l-6 10l512 1205h-590l-12 8z" />
<glyph unicode="8" horiz-adv-x="1134" d="M125 373q0 109 58.5 205t156.5 129q-78 31 -131 115.5t-53 187.5q0 190 110.5 291.5t302.5 101.5q188 0 298 -101.5t110 -291.5q0 -102 -52.5 -188.5t-129.5 -114.5q98 -33 155.5 -129.5t57.5 -204.5q0 -199 -126 -298.5t-312.5 -99.5t-315.5 99.5t-129 298.5zM289 375 q0 -119 78.5 -185.5t201.5 -66.5q121 0 198 67.5t77 184.5q0 115 -78 186.5t-197 71.5q-121 0 -200.5 -71.5t-79.5 -186.5zM319 1010q0 -109 66 -173.5t184 -64.5q115 0 180.5 64.5t65.5 173.5q0 115 -64.5 180t-181.5 65q-119 0 -184.5 -65t-65.5 -180z" />
<glyph unicode="9" horiz-adv-x="1157" d="M109 596v104q0 201 128 299.5t314 98.5t314 -98.5t128 -299.5v-622q0 -174 -133 -288t-321 -114q-80 0 -152 24t-116 56.5t-77.5 65.5t-48.5 55l-14 25v14l107 76h16l12 -17.5t36 -41t58.5 -51t78.5 -40t100 -18.5q121 0 205.5 68.5t84.5 216.5v147l13 94q-2 -6 -8.5 -16 t-30 -38t-54 -48.5t-87 -36.5t-123.5 -16q-178 0 -304 99t-126 302zM272 633q0 -139 77 -213t198 -74q180 0 282 66v254q0 139 -77.5 211.5t-200.5 72.5q-125 0 -202 -71.5t-77 -212.5v-33z" />
<glyph unicode=":" horiz-adv-x="483" d="M137 10v193l10 10h189l10 -10v-193l-10 -10h-189zM137 809v192l10 11h189l10 -11v-192l-10 -10h-189z" />
<glyph unicode=";" horiz-adv-x="505" d="M66 -225l86 428l12 10h215l6 -10l-217 -459l-14 -8l-80 24zM150 809v192l10 11h188l10 -11v-192l-10 -10h-188z" />
<glyph unicode="&#x3c;" horiz-adv-x="1126" d="M115 432l32 158l13 12l801 418l10 -8v-146l-10 -14l-678 -352l678 -336l10 -14v-146l-10 -8l-840 420z" />
<glyph unicode="=" horiz-adv-x="1126" d="M193 285v129l10 10h680l8 -10l-35 -129l-12 -11h-641zM193 645v129l10 10h725l8 -10l-35 -129l-12 -10h-686z" />
<glyph unicode="&#x3e;" horiz-adv-x="1126" d="M156 2v145l10 15l678 352l-678 336l-10 14v146l10 8l840 -420l6 -16l-33 -158l-12 -12l-801 -418z" />
<glyph unicode="?" horiz-adv-x="1007" d="M72 1147q0 166 114.5 259t290.5 93t290 -93t114 -259v-215q0 -152 -96.5 -248t-249.5 -113l-7 -180l-10 -10h-121l-10 10v307l10 13l140 22q82 14 127 76.5t45 157.5v145q0 109 -60.5 166t-171.5 57q-113 0 -177 -55t-64 -168l-13 -8l-141 31zM356 10v187l11 10h182 l10 -10v-187l-10 -10h-182z" />
<glyph unicode="@" horiz-adv-x="1847" d="M133 322v112q0 451 204 710t617 259q389 0 579.5 -180.5t190.5 -554.5v-131q0 -293 -134 -449t-421 -180l-16 8l-84 221q-2 -6 -7 -17t-27.5 -39t-52.5 -49.5t-85 -39t-121 -17.5q-133 0 -204.5 92.5t-71.5 219.5q0 375 128 562t322 187q74 0 162 -19.5t141 -37.5l52 -21 l10 -14l-90 -733l45 -154q147 45 219 165t72 331v94q0 324 -150.5 466t-456.5 142q-330 0 -493.5 -221t-163.5 -614v-80q0 -326 145.5 -468t446.5 -144l6 -15l-27 -127l-12 -8q-356 0 -539.5 185.5t-183.5 558.5zM668 326q0 -203 170 -203q37 0 93 16.5t93 32.5l39 14 l76 656q-78 45 -191 45q-102 0 -191 -134t-89 -427z" />
<glyph unicode="A" horiz-adv-x="1208" d="M25 10l477 1352l12 10l172 23l12 -9l486 -1376l-6 -10h-164l-13 10l-112 330h-572l-110 -330l-10 -10h-166zM371 496h467l-213 630l-21 88l-20 -88z" />
<glyph unicode="B" horiz-adv-x="1189" d="M190 10v1362l11 10h372q449 0 449 -350q0 -100 -49 -178t-142 -111q106 -35 167 -124t61 -211q0 -201 -130 -304.5t-319 -103.5h-409zM362 158h226q125 0 211 60.5t86 189.5t-86 190t-211 61h-226v-501zM362 817h213q274 0 275 205q0 117 -75 160t-200 43h-213v-408z" />
<glyph unicode="C" horiz-adv-x="1284" d="M145 477v418q0 244 145.5 376t391.5 132q170 0 297 -74t182 -209l-6 -12l-137 -57l-14 4q-41 86 -127 135t-195 49q-162 0 -261 -93t-99 -265v-385q0 -176 98 -266.5t262 -90.5q258 0 346 191l14 4l134 -51l6 -13q-51 -145 -180.5 -220t-319.5 -75q-248 0 -392.5 130 t-144.5 372z" />
<glyph unicode="D" horiz-adv-x="1343" d="M190 10v1362l11 10h458q246 0 392.5 -132t146.5 -376v-372q0 -242 -145.5 -372t-393.5 -130h-458zM362 164h297q164 0 263.5 90t99.5 266v340q0 172 -100.5 265.5t-262.5 93.5h-297v-1055z" />
<glyph unicode="E" horiz-adv-x="1050" d="M190 10v1362l11 10h710l11 -10v-143l-11 -10h-549v-410h478l8 -10l-37 -144l-12 -10h-437v-481h551l9 -10l-21 -144l-12 -10h-688z" />
<glyph unicode="F" horiz-adv-x="989" d="M190 10v1362l11 10h690l10 -10v-143l-10 -10h-529v-431h498l8 -10l-37 -143l-12 -10h-457v-615l-10 -10h-151z" />
<glyph unicode="G" horiz-adv-x="1337" d="M145 477v418q0 244 145.5 376t391.5 132q170 0 297 -74t182 -209l-6 -12l-137 -57l-14 4q-41 86 -127 135t-195 49q-162 0 -261 -93t-99 -265v-385q0 -176 98 -266.5t262 -90.5q166 0 265.5 90t99.5 267v47h-236l-12 10l-21 143l8 11h422l11 -11v-219q0 -244 -142.5 -373 t-394.5 -129q-248 0 -392.5 130t-144.5 372z" />
<glyph unicode="H" horiz-adv-x="1456" d="M190 10v1352l11 12l151 21l10 -9v-579h730v555l10 12l151 21l11 -9v-1376l-11 -10h-151l-10 10v633h-730v-633l-10 -10h-151z" />
<glyph unicode="I" horiz-adv-x="555" d="M190 10v1352l11 12l151 21l10 -9v-1376l-10 -10h-151z" />
<glyph unicode="J" horiz-adv-x="772" d="M8 63l62 127l16 3q70 -53 150 -54q66 0 123 54.5t57 171.5v997l10 12l152 21l10 -9v-1038q0 -170 -94.5 -271.5t-247.5 -101.5q-139 0 -236 74z" />
<glyph unicode="K" horiz-adv-x="1216" d="M190 10v1352l11 12l151 21l10 -9v-579h97l16 8l426 545l17 10l215 25l8 -11l-488 -589l-59 -60l59 -65l324 -430q63 -86 162 -86q16 0 24 2l8 -11l-22 -139l-12 -10q-12 -2 -37 -2q-154 0 -275 168l-358 485l-16 8h-89v-645l-10 -10h-151z" />
<glyph unicode="L" horiz-adv-x="970" d="M190 10v1352l11 12l151 21l10 -9v-1222h590l9 -10l-37 -144l-13 -10h-710z" />
<glyph unicode="M" horiz-adv-x="1656" d="M190 10v1352l11 12l153 21l13 -9l460 -837l449 815l10 12l168 19l10 -9v-1376l-10 -10h-151l-7 10v1082l-51 -113l-332 -594l-12 -10h-147l-13 10l-331 594l-48 113v-1082l-10 -10h-151z" />
<glyph unicode="N" horiz-adv-x="1447" d="M190 10v1352l11 12l151 21l15 -9l663 -999l53 -98v1073l11 12l151 21l10 -9v-1376l-10 -10h-145l-17 10l-667 1008l-54 98v-1106l-10 -10h-151z" />
<glyph unicode="O" horiz-adv-x="1368" d="M145 477v418q0 244 146.5 376t392.5 132t392.5 -132t146.5 -376v-418q0 -242 -145.5 -372t-393.5 -130t-393.5 130t-145.5 372zM322 496q0 -176 99 -266.5t263 -90.5t263.5 90t99.5 267v385q0 172 -100.5 265t-262.5 93t-262 -93t-100 -265v-385z" />
<glyph unicode="P" horiz-adv-x="1134" d="M190 10v1362l11 10h360q209 0 324 -67q172 -100 172 -344q0 -193 -117 -319t-340 -126q-199 0 -248 119l10 -82v-553l-10 -10h-151zM362 715q100 -35 195 -35q145 0 233.5 71.5t88.5 215.5q0 258 -318 258h-199v-510z" />
<glyph unicode="Q" horiz-adv-x="1368" d="M145 477v418q0 244 146.5 376t392.5 132t392.5 -132t146.5 -376v-418q0 -236 -138.5 -364.5t-371.5 -137.5q-18 -14 -19 -77q0 -61 33 -97.5t88 -36.5h164l10 -10v-162l-10 -10h-164q-123 0 -189.5 69.5t-66.5 153.5q0 119 96 170q-236 8 -373 138.5t-137 363.5zM322 496 q0 -176 99 -266.5t263 -90.5t263.5 90t99.5 267v385q0 172 -100.5 265t-262.5 93t-262 -93t-100 -265v-385z" />
<glyph unicode="R" horiz-adv-x="1193" d="M190 10v1362l11 10h364q184 0 301 -71q170 -109 170 -336q0 -272 -256 -367q-78 -29 -143 -33l45 -45l240 -288q74 -86 163 -86q4 0 11.5 1t11.5 1l8 -11l-22 -139l-13 -10q-29 -4 -43 -4q-139 0 -272 170l-320 397l-14 8h-70v-559l-10 -10h-151zM362 727h201 q129 0 215 58.5t86 189.5q0 129 -87 189.5t-214 60.5h-201v-498z" />
<glyph unicode="S" horiz-adv-x="1040" d="M98 113l84 114l19 2q43 -37 127 -63.5t153 -26.5q119 0 194 57.5t75 178.5q0 76 -45.5 130t-114 80.5t-147 61.5t-147.5 71t-114 111.5t-45 180.5q0 178 119 285.5t291 107.5q92 0 177 -22.5t123 -44t52 -36.5l2 -14l-78 -119l-16 -2q-98 74 -252 74q-119 0 -180.5 -61.5 t-61.5 -161.5q0 -84 63.5 -137.5t152.5 -86t179.5 -72.5t154 -126t63.5 -217q0 -111 -40 -192t-108.5 -125t-143.5 -64.5t-159 -20.5q-82 0 -190.5 33t-182.5 90z" />
<glyph unicode="T" horiz-adv-x="1017" d="M33 1229v143l10 10h961l8 -10l-37 -143l-12 -10h-367v-1209l-10 -10h-152l-10 10v1209h-381z" />
<glyph unicode="U" horiz-adv-x="1423" d="M176 477v885l10 12l152 21l10 -9v-890q0 -176 100.5 -266.5t262.5 -90.5q168 0 265 90t97 267v866l10 12l152 21l10 -9v-909q0 -244 -141 -373t-393 -129q-250 0 -392.5 129t-142.5 373z" />
<glyph unicode="V" horiz-adv-x="1216" d="M27 1360l10 12l162 23l12 -9l356 -1085l39 -135l37 135l352 1057l11 12l178 25l12 -9l-494 -1390l-14 -10l-178 28l-12 13z" />
<glyph unicode="W" horiz-adv-x="1781" d="M29 1360l10 12l162 23l12 -9l317 -1021l41 -152l31 152l213 759v238l10 12l152 21l10 -9v-286l201 -735l31 -152l36 152l293 993l11 12l180 25l12 -9l-461 -1390l-14 -10l-148 28l-12 13l-192 692l-29 137l-29 -137l-204 -723l-15 -10l-151 28l-13 13z" />
<glyph unicode="X" horiz-adv-x="1177" d="M55 10l426 697l-387 653l10 12l156 23l12 -6l283 -500l35 -70l33 70l264 469l12 12l186 25l13 -9l-400 -679l422 -697l-6 -10h-184l-12 10l-295 516l-33 70l-35 -70l-293 -516l-12 -10h-187z" />
<glyph unicode="Y" horiz-adv-x="1052" d="M25 1358l10 14l172 23l12 -9l275 -544l32 -80l35 80l260 516l10 12l187 25l12 -9l-418 -780v-596l-10 -10h-151l-11 10v596z" />
<glyph unicode="Z" horiz-adv-x="1077" d="M92 111l660 1108h-627l-8 10l20 143l13 10h813l10 -10v-100l-658 -1108h643l11 -10v-144l-11 -10h-833l-12 10z" />
<glyph unicode="[" horiz-adv-x="630" d="M188 -231v1603l11 10h352l8 -10l-39 -119l-12 -10h-162v-1345h162l12 -11l39 -118l-8 -11h-352z" />
<glyph unicode="\" horiz-adv-x="700" d="M72 1364l10 12l125 19l10 -9l412 -1529l-6 -11h-138l-12 13z" />
<glyph unicode="]" horiz-adv-x="630" d="M72 -231l39 118l12 11h162v1345h-162l-12 10l-39 119l8 10h352l10 -10v-1603l-10 -11h-352z" />
<glyph unicode="^" horiz-adv-x="1030" d="M4 553l408 807l14 10l168 25l10 -9l422 -833l-6 -10h-154l-10 10l-342 682l-340 -682l-10 -10h-154z" />
<glyph unicode="_" horiz-adv-x="1138" d="M72 -10l10 10h975l10 -10v-129l-10 -11h-975l-10 11v129z" />
<glyph unicode="`" d="M289 1427l10 9h221l15 -9l122 -208l-2 -13l-102 -41h-12z" />
<glyph unicode="a" horiz-adv-x="970" d="M82 276q0 143 98 224q96 78 320 78h71q57 0 91 20v96q0 195 -211 195q-127 0 -203 -62l-17 2l-69 103l4 16q113 88 287 88q170 0 271 -74.5t101 -236.5v-524l52 -181l-11 -12l-125 -18l-12 8l-59 147q-2 -6 -7.5 -18t-26 -41t-48 -51.5t-79.5 -41t-116 -18.5 q-127 0 -219 72.5t-92 228.5zM254 274q0 -68 45 -109.5t121 -41.5q102 0 242 59v346q-31 -102 -181 -102h-49q-70 0 -124 -34t-54 -118z" />
<glyph unicode="b" horiz-adv-x="1032" d="M156 23v1433l10 12l143 21l10 -8v-514l-10 -90q72 160 285 159q141 0 228 -93t87 -265v-348q0 -168 -104.5 -261.5t-267.5 -93.5q-55 0 -116 14.5t-93 26.5l-31 15l-131 -19zM319 160q98 -37 201 -37q104 0 164.5 62.5t60.5 179.5v284q0 125 -61 182.5t-160 57.5 q-35 0 -205 -47v-682z" />
<glyph unicode="c" horiz-adv-x="966" d="M121 330v350q0 160 106.5 258t292.5 98q119 0 213 -53t135 -156l-6 -12l-123 -43l-14 4q-59 113 -215 113q-104 0 -164.5 -62.5t-60.5 -179.5v-282q0 -117 60.5 -179.5t164.5 -62.5q166 0 225 108l15 5l122 -43l7 -13q-39 -98 -133.5 -151.5t-225.5 -53.5 q-186 0 -292.5 97.5t-106.5 257.5z" />
<glyph unicode="d" horiz-adv-x="1038" d="M123 336v346q0 168 103.5 261t269.5 93q127 0 225 -69l-8 90v399l10 12l143 21l11 -8v-1280l51 -181l-10 -12l-125 -18l-13 8l-59 147q-23 -70 -91.5 -120t-193.5 -50q-141 0 -227 94.5t-86 266.5zM287 371q0 -127 60.5 -187.5t156.5 -60.5q25 0 77 14.5t91 28.5l41 14 v492q0 217 -211 217q-96 0 -155.5 -62.5t-59.5 -177.5v-278z" />
<glyph unicode="e" horiz-adv-x="976" d="M121 330v344q0 170 106.5 266t282.5 96q182 0 270 -90t88 -213q0 -147 -93 -224t-245 -77q-90 0 -153.5 28.5t-78.5 48t-24 38.5l11 -76v-106q0 -117 61.5 -179.5t167.5 -62.5q160 0 223 108l15 5l122 -43l7 -13q-37 -98 -132.5 -151.5t-226.5 -53.5q-190 0 -295.5 90.5 t-105.5 264.5zM285 614q88 -37 198 -36q213 0 213 163q0 59 -48 103.5t-144 44.5q-106 0 -162.5 -60.5t-56.5 -177.5v-37z" />
<glyph unicode="f" horiz-adv-x="663" d="M63 874v127l11 11h133v215q0 160 109.5 248t261.5 88q111 0 200 -47l2 -15l-78 -112l-14 -5q-49 23 -110 23q-88 0 -147.5 -44t-59.5 -128v-223h321l10 -11l-38 -127l-15 -10h-278v-1108l-41 -207l-13 -14l-100 59l-10 19v1251h-133z" />
<glyph unicode="g" horiz-adv-x="995" d="M80 -276l4 14l123 55l14 -4l6 -12q4 -8 24.5 -27.5t49.5 -35t83 -28t122 -12.5q106 0 165.5 42t59.5 104q0 47 -37 82t-100 35h-127q-121 0 -189.5 56t-68.5 132q0 113 92 170q-8 2 -23.5 8t-53.5 31.5t-66.5 61.5t-52 103.5t-23.5 149.5q0 178 102.5 275.5t282.5 97.5 h203l225 47l12 -8l21 -113l-8 -14l-140 -39q49 -29 75 -98.5t26 -151.5q0 -172 -105.5 -275.5t-288.5 -103.5l-131 10q-12 -31 -12 -61q0 -61 33 -96t90 -35h127q145 0 223 -75t78 -195q0 -137 -113.5 -212t-271.5 -75q-334 0 -430 197zM244 649q0 -238 233 -237 q242 0 242 237q0 240 -242 240q-109 0 -171 -61.5t-62 -178.5z" />
<glyph unicode="h" horiz-adv-x="1069" d="M156 10v1446l10 12l143 21l10 -8v-514l-10 -90q8 20 24.5 41.5t50.5 51t91 48t129 18.5q141 0 228.5 -92t87.5 -262v-672l-11 -10h-143l-10 10v639q0 125 -61.5 182.5t-159.5 57.5q-45 0 -216 -47v-832l-10 -10h-143z" />
<glyph unicode="i" horiz-adv-x="473" d="M141 1255v170l11 11h170l10 -11v-170l-10 -10h-170zM154 10v979l10 12l143 21l10 -8v-1004l-10 -10h-143z" />
<glyph unicode="j" horiz-adv-x="473" d="M-256 -381l66 119l10 2q63 -66 157 -66q68 0 122.5 61.5t54.5 184.5v1069l10 12l143 21l10 -8v-1106q0 -178 -89 -279.5t-242 -101.5q-129 0 -238 80zM141 1255v170l11 11h170l10 -11v-170l-10 -10h-170z" />
<glyph unicode="k" horiz-adv-x="972" d="M156 10v1446l10 12l143 21l10 -8v-838h17l293 350l14 8l215 21l10 -10l-329 -361l-47 -41l43 -49l213 -323q68 -98 149 -99q18 0 29 2l10 -10l-23 -131l-10 -10q-12 -2 -35 -2q-72 0 -132 34.5t-82.5 62.5t-53.5 75l-264 411h-17v-561l-8 -10h-147z" />
<glyph unicode="l" horiz-adv-x="505" d="M152 225v1231l10 12l143 21l10 -8v-1245q0 -53 29 -73t64 -20h8l8 -10l-23 -129l-10 -10h-16q-31 0 -60.5 7t-70.5 27.5t-66.5 70.5t-25.5 126z" />
<glyph unicode="m" horiz-adv-x="1617" d="M111 991l10 13l125 18l12 -8l57 -144q6 16 19.5 38t44.5 53.5t89 53t134 21.5q182 0 254 -151q16 31 43 59.5t96.5 60t159.5 31.5q139 0 226 -92t87 -262v-672l-10 -10h-145l-8 10v639q0 123 -60.5 180.5t-157.5 57.5q-66 0 -213 -45q23 -76 23 -144v-688l-10 -10h-144 l-10 10v639q0 240 -198 240q-31 0 -209 -47v-832l-11 -10h-143l-10 10v789z" />
<glyph unicode="n" horiz-adv-x="1075" d="M111 991l10 13l125 18l12 -8l57 -144q6 16 19.5 38t44.5 53.5t89 53t134 21.5q141 0 233.5 -93t92.5 -261v-672l-10 -10h-144l-10 10v639q0 123 -65.5 181.5t-163.5 58.5q-31 0 -209 -47v-832l-11 -10h-143l-10 10v789z" />
<glyph unicode="o" d="M121 330v352q0 168 109.5 261t283.5 93t283.5 -93t109.5 -261v-352q0 -168 -109.5 -261.5t-283.5 -93.5t-283.5 93.5t-109.5 261.5zM285 365q0 -119 59 -180.5t170 -61.5q109 0 169 62.5t60 179.5v284q0 117 -60 178.5t-169 61.5q-111 0 -170 -61.5t-59 -178.5v-284z" />
<glyph unicode="p" horiz-adv-x="1040" d="M111 991l10 13l125 18l12 -8l57 -144q6 16 19.5 38t44.5 53.5t89 53t134 21.5q141 0 228.5 -92t87.5 -262v-352q0 -168 -104.5 -261.5t-270.5 -93.5q-131 0 -226 72l9 -94v-383l-11 -12l-143 -21l-10 8v1254zM326 340q0 -217 211 -217q96 0 156.5 63.5t60.5 178.5v284 q0 123 -61.5 181.5t-157.5 58.5q-31 0 -209 -47v-502z" />
<glyph unicode="q" horiz-adv-x="1034" d="M123 334v348q0 168 104.5 261t268.5 93q53 0 112.5 -16t91.5 -33l31 -14l135 37l11 -11v-1429l-11 -12l-143 -21l-10 8v500l10 90q-72 -160 -285 -160q-141 0 -228 93.5t-87 265.5zM287 362q0 -125 61.5 -182t159.5 -57q35 0 205 47v502q0 217 -211 217 q-98 0 -156.5 -63.5t-58.5 -178.5v-285z" />
<glyph unicode="r" horiz-adv-x="632" d="M111 991l10 13l125 18l12 -8l57 -144q6 16 19.5 38t43.5 53.5t87 53t131 21.5l10 -12l-31 -172l-14 -10q-37 18 -106 18q-66 0 -129 -18v-832l-11 -10h-143l-10 10v789z" />
<glyph unicode="s" horiz-adv-x="866" d="M96 82l78 108l16 3q31 -27 97.5 -48.5t115.5 -21.5q205 0 205 160q0 57 -52 92t-126 56.5t-148.5 50t-127 92t-52.5 161.5q0 147 108.5 224t260.5 77q150 0 264 -80l4 -14l-80 -108h-14q-82 55 -170 55q-92 0 -148.5 -41t-56.5 -113q0 -61 52.5 -98t126 -57.5t148.5 -46 t127 -88t52 -162.5q0 -307 -366 -308q-188 0 -312 95z" />
<glyph unicode="t" horiz-adv-x="776" d="M61 874v127l11 11h118l19 207l10 12l117 16l10 -8v-227h340l10 -11l-39 -127l-14 -10h-297v-493q0 -106 49 -175t131 -69q78 0 152 63l14 -2l64 -116l-4 -15q-117 -82 -240 -82q-145 0 -237.5 99.5t-92.5 283.5v506h-110z" />
<glyph unicode="u" horiz-adv-x="1060" d="M145 336v653l11 12l143 21l10 -8v-643q0 -127 60.5 -187.5t156.5 -60.5q25 0 77 14.5t93 28.5l39 14v809l10 12l144 21l10 -8v-813l51 -181l-10 -12l-125 -18l-12 8l-60 147q-23 -70 -91 -120t-193 -50q-141 0 -227.5 94.5t-86.5 266.5z" />
<glyph unicode="v" horiz-adv-x="946" d="M29 989l10 12l158 21l10 -8l242 -735l28 -109l29 109l233 712l13 10l163 21l7 -10l-375 -1018l-15 -8l-124 28l-15 13z" />
<glyph unicode="w" horiz-adv-x="1495" d="M29 989l10 12l154 21l10 -8l248 -735l28 -109l29 109l166 499v211l10 12l141 21l11 -8v-262l153 -473l29 -109l29 109l237 712l12 10l166 21l6 -10l-372 -1014l-15 -12l-139 28l-12 13l-158 479l-24 100l-27 -100l-166 -508l-14 -12l-138 26l-12 13z" />
<glyph unicode="x" horiz-adv-x="997" d="M55 10l346 502l-329 477l10 12l149 21l15 -8l219 -340l31 -56l28 56l205 317l16 10l173 21l12 -8l-338 -494l352 -510l-8 -10h-168l-16 10l-228 350l-28 52l-27 -52l-225 -350l-17 -10h-164z" />
<glyph unicode="y" horiz-adv-x="952" d="M-68 -377l62 111l14 4q66 -63 160 -64q123 0 190 187l64 172l-23 8l-16 14l-352 934l10 12l160 21l10 -8l240 -738l30 -108l25 90l233 733l13 10l163 21l7 -10l-428 -1219q-92 -266 -322 -266q-127 0 -235 80z" />
<glyph unicode="z" horiz-adv-x="882" d="M84 102l494 762h-469l-11 10l23 127l14 11h641l10 -11v-96l-499 -758h487l10 -10v-127l-10 -10h-655l-15 10z" />
<glyph unicode="{" horiz-adv-x="786" d="M78 573l37 123l14 11q86 23 116.5 73.5t30.5 137.5v137q0 154 102.5 245t280.5 91h48l8 -11l-37 -118l-12 -11q-109 0 -172.5 -58t-63.5 -175v-96q0 -104 -45 -182t-131 -113q176 -78 176 -277v-217q0 -119 63.5 -178t172.5 -59l12 -11l37 -118l-8 -11h-48 q-178 0 -280.5 93.5t-102.5 246.5v246q0 94 -40.5 150.5t-149.5 70.5z" />
<glyph unicode="|" horiz-adv-x="524" d="M178 -440v1894l10 12l144 21l10 -8v-1919l-10 -11h-144z" />
<glyph unicode="}" horiz-adv-x="784" d="M72 -233l37 118l12 11q109 0 172 59t63 178v217q0 199 176 277q-86 35 -131 112.5t-45 182.5v96q0 117 -63.5 175t-171.5 58l-12 11l-37 118l8 11h47q178 0 280.5 -91.5t102.5 -244.5v-137q0 -104 38 -149.5t148 -72.5l9 -14l-37 -117l-15 -10q-143 -41 -143 -213v-246 q0 -154 -102.5 -247t-280.5 -93h-47z" />
<glyph unicode="~" horiz-adv-x="1204" d="M125 553q0 168 79 252t202 84q72 0 133 -31t95 -68.5t78 -68.5t87 -31q137 0 137 180l10 11h137l11 -11q0 -168 -79 -251.5t-202 -83.5q-72 0 -133.5 30.5t-95 68.5t-77.5 68.5t-87 30.5q-137 0 -137 -180l-11 -10h-137z" />
<glyph unicode="&#xa1;" horiz-adv-x="522" d="M158 -465l39 1086l10 10h108l11 -10l43 -1057l-11 -13l-188 -24zM160 815v186l10 11h182l10 -11v-186l-10 -10h-182z" />
<glyph unicode="&#xa2;" horiz-adv-x="1064" d="M115 557v64q0 170 106.5 270t267.5 121v155l11 13l98 14l10 -8v-172q254 -23 350 -201l-6 -12l-125 -51l-14 4q-59 92 -205 110v-555q145 18 205 113l14 4l123 -51l6 -13q-96 -182 -348 -200v-152l-10 -10h-98l-11 10v154q-162 18 -268 120.5t-106 272.5zM279 561 q0 -96 58 -162.5t152 -85.5v547q-94 -18 -152 -83.5t-58 -160.5v-55z" />
<glyph unicode="&#xa3;" horiz-adv-x="1193" d="M113 98l6 13q12 0 32.5 2t56.5 24.5t42 63.5l47 348h-170l-10 10v127l10 10h184l21 162q20 158 116.5 249t239.5 91q164 -2 262 -74l2 -14l-45 -113l-14 -4q-86 57 -207 58q-72 0 -124 -55.5t-68 -174.5l-17 -125h332l8 -10l-37 -127l-12 -10h-307l-39 -305l-25 -103h49 q70 0 179.5 -42t162.5 -42q68 0 114 43t46 133q0 25 -5 51.5t-9 39.5l-6 14l8 12l123 25l14 -6q27 -84 27 -142q0 -156 -83 -236.5t-210 -80.5q-66 0 -190.5 45t-188.5 45q-41 0 -103.5 -8t-105.5 -17l-43 -10l-12 6z" />
<glyph unicode="&#xa5;" horiz-adv-x="1138" d="M121 1157l10 14l168 23l12 -8l221 -443l33 -79l35 79l209 414l10 12l182 25l13 -8l-215 -398h213l8 -10l-35 -123l-12 -10h-252l-74 -137v-59h320l8 -11l-35 -123l-12 -10h-281v-295l-10 -10h-143l-11 10v295h-319l-10 10v123l10 11h319v59l-77 137h-242l-10 10v123 l10 10h162z" />
<glyph unicode="&#xa6;" horiz-adv-x="561" d="M199 330l10 10h143l10 -10v-770l-10 -11h-143l-10 11v770zM199 707v747l8 12l143 23l12 -8v-774l-10 -11h-143z" />
<glyph unicode="&#xa7;" horiz-adv-x="868" d="M72 -305l96 96l14 -4q80 -88 209 -88q74 0 127 42t53 118q0 16 -4 41l-161 1167l8 20l90 70l12 -12l66 -201l137 -983q8 -57 8 -90q0 -150 -87 -237t-249 -87q-193 0 -319 134v14zM141 1079q0 150 87 237t249 87q193 0 320 -133v-15l-97 -96l-14 4q-80 88 -209 88 q-74 0 -127 -42t-53 -117q0 -16 4 -41l162 -1168l-8 -20l-90 -70l-13 12l-65 201l-137 983q-9 57 -9 90z" />
<glyph unicode="&#xa8;" d="M289 1260v159l10 11h150l10 -11v-159l-10 -11h-150zM569 1260v159l11 11h149l10 -11v-159l-10 -11h-149z" />
<glyph unicode="&#xa9;" horiz-adv-x="1613" d="M125 565v244q0 195 103.5 334t255 201.5t323.5 62.5q176 0 326.5 -62.5t253 -201.5t102.5 -334v-244q0 -147 -58.5 -265t-156.5 -189.5t-218 -108.5t-249 -37q-172 0 -323.5 62.5t-255 202.5t-103.5 335zM258 606q0 -172 78 -290.5t198.5 -170t272.5 -51.5 q240 0 394.5 128t154.5 384v160q0 256 -154.5 384t-394.5 128q-238 0 -393.5 -128t-155.5 -384v-160zM487 565v236q0 150 86 230.5t238 80.5q109 0 189.5 -50t111.5 -136l-6 -13l-105 -41l-14 5q-70 100 -176 100q-82 0 -133 -48t-51 -136v-220q0 -88 51 -135t133 -47 q137 0 188 111l15 4l102 -37l6 -12q-61 -201 -311 -201q-154 0 -239 79.5t-85 229.5z" />
<glyph unicode="&#xaa;" horiz-adv-x="690" d="M96 934q0 94 50.5 141t138.5 47h108l35 8v52q0 94 -109 94q-66 0 -122 -39l-17 2l-51 78l4 16q84 63 186 64q106 0 171 -49.5t65 -149.5v-301l25 -121l-11 -12l-92 -12l-12 8l-27 86q-2 -4 -4 -10.5t-14 -23.5t-27.5 -30.5t-44.5 -23.5t-63 -10q-78 0 -133.5 50 t-55.5 136zM223 934q0 -33 22.5 -53.5t57.5 -20.5q20 0 51 6t52 15l22 6v182q-33 -57 -96 -57h-45q-31 0 -47.5 -22.5t-16.5 -55.5z" />
<glyph unicode="&#xab;" horiz-adv-x="1024" d="M90 500v14l258 389l19 12h153l12 -14l-266 -393l266 -393l-12 -15h-153l-19 13zM477 500v14l258 389l19 12h153l13 -14l-267 -393l267 -393l-13 -15h-153l-19 13z" />
<glyph unicode="&#xac;" horiz-adv-x="1071" d="M72 492v61l6 14l815 465l12 -4l66 -115l-4 -14l-29 -27l-133 -350l133 -350l29 -27l4 -14l-66 -115l-12 -4l-815 465z" />
<glyph unicode="&#xad;" horiz-adv-x="870" d="M170 459v143l10 10h527l8 -10l-37 -143l-12 -10h-486z" />
<glyph unicode="&#xae;" horiz-adv-x="966" d="M98 934v133q0 160 116 248t269 88q156 0 270.5 -88t114.5 -248v-133q0 -162 -114.5 -250t-270.5 -88q-154 0 -269.5 88t-115.5 250zM193 956q0 -137 82.5 -206.5t207.5 -69.5q127 0 209 69.5t82 206.5v86q0 139 -82 208t-209 69q-125 0 -207.5 -68.5t-82.5 -208.5v-86z M342 772v453l10 10h127q172 0 172 -145q0 -51 -31.5 -86t-78.5 -46l69 -92q14 -16 45 -16h7l10 -10l-10 -68l-11 -10h-24q-59 0 -97 59l-86 131h-4v-180l-10 -10h-78zM440 1028h39q31 0 52.5 15.5t21.5 46.5q0 57 -74 57h-39v-119z" />
<glyph unicode="&#xaf;" horiz-adv-x="1030" d="M285 1255v119l10 10h459l8 -10l-25 -119l-12 -10h-430z" />
<glyph unicode="&#xb0;" horiz-adv-x="724" d="M90 1118v51q0 111 80 172.5t192.5 61.5t192.5 -61.5t80 -172.5v-51q0 -113 -81 -174t-191.5 -61t-191.5 61t-81 174zM221 1143q0 -135 141.5 -135t141.5 135t-141.5 135t-141.5 -135z" />
<glyph unicode="&#xb1;" horiz-adv-x="1126" d="M193 -55l10 10h733l8 -10l-37 -142l-12 -10h-692l-10 10v142zM193 465v129l10 10h264v293l10 12l144 21l10 -8v-318h297l8 -10l-33 -129l-12 -10h-260v-330l-10 -10h-144l-10 10v330h-264z" />
<glyph unicode="&#xb2;" horiz-adv-x="747" d="M98 1427v11l12 16q7 10 31.5 38t52 48.5t72.5 36.5t94 16q104 0 181 -66.5t77 -180.5q0 -74 -50 -153t-110 -133l-118 -108q-57 -53 -68 -78h367l8 -10l-29 -106l-12 -10h-479l-12 10l-15 63q2 55 61.5 125t130 128.5t128 132t57.5 132.5q0 51 -33.5 89t-87.5 38 q-88 0 -159 -102h-11z" />
<glyph unicode="&#xb3;" horiz-adv-x="739" d="M78 897l2 12l92 70h16q6 -12 19.5 -30.5t57.5 -50.5t93 -32q59 0 103.5 33t44.5 88v21q0 55 -47 85.5t-133 30.5h-76l-8 11l37 104l12 10h35q162 0 161 109q0 57 -37.5 84.5t-99.5 27.5q-31 0 -59.5 -12t-44 -25.5t-32.5 -32t-21 -20.5l-17 -2l-88 60v14q4 6 11 15.5 t32 35t52.5 45t72.5 34.5t94 15q121 0 196 -63.5t75 -173.5q0 -119 -97 -170q115 -45 115 -166v-47q0 -111 -82 -174.5t-199 -63.5q-168 0 -266 138z" />
<glyph unicode="&#xb4;" d="M371 1219l123 208l14 9h221l10 -9l-252 -262h-12l-102 41z" />
<glyph unicode="&#xb5;" horiz-adv-x="1611" d="M72 492v61l6 14l815 465l12 -4l66 -115l-4 -14l-29 -27l-133 -264h725l10 -10v-152l-10 -10h-725l133 -264l29 -27l4 -14l-66 -115l-12 -4l-815 465z" />
<glyph unicode="&#x3bc;" horiz-adv-x="1611" d="M72 492v61l6 14l815 465l12 -4l66 -115l-4 -14l-29 -27l-133 -264h725l10 -10v-152l-10 -10h-725l133 -264l29 -27l4 -14l-66 -115l-12 -4l-815 465z" />
<glyph unicode="&#xb6;" horiz-adv-x="1189" d="M115 733v256q0 199 126 296t312 97h557l8 -10l-20 -137l-13 -10h-374v-1665l-9 -9h-139l-10 9v776q-186 0 -312 98t-126 299zM817 -438v1544l10 10h138l10 -10v-1544l-10 -11h-138z" />
<glyph unicode="&#xb7;" horiz-adv-x="536" d="M164 442v193l10 10h188l11 -10v-193l-11 -10h-188z" />
<glyph unicode="&#xb8;" d="M317 -281l27 70l14 6q45 -33 91 -33q139 0 139 138q0 16 -9.5 40.5l-17.5 43.5l-8 16h61q10 -8 26.5 -23.5t43.5 -60.5t27 -86q0 -88 -59.5 -139t-149.5 -51q-117 0 -180 65z" />
<glyph unicode="&#xb9;" horiz-adv-x="741" d="M106 758v106l11 10h190v582h-139l-12 10l-27 107l8 10h295l10 -10v-699h197l8 -10l-26 -106l-13 -10h-491z" />
<glyph unicode="&#xba;" horiz-adv-x="708" d="M109 967v209q0 104 68.5 162.5t177 58.5t177 -58.5t68.5 -162.5v-209q0 -104 -68.5 -161.5t-177 -57.5t-177 57.5t-68.5 161.5zM236 989q0 -123 118.5 -123t118.5 123v168q0 119 -118.5 119t-118.5 -119v-168z" />
<glyph unicode="&#xbb;" horiz-adv-x="1024" d="M104 115l267 393l-267 393l13 14h153l19 -12l258 -389v-14l-258 -387l-19 -13h-153zM492 115l266 393l-266 393l12 14h153l19 -12l258 -389v-14l-258 -387l-19 -13h-153z" />
<glyph unicode="&#xbc;" horiz-adv-x="1595" d="M88 557v107l10 10h191v581h-139l-13 11l-26 106l8 10h295l10 -10v-698h197l8 -10l-27 -107l-12 -10h-492zM535 10l319 1002l14 8l109 -19l8 -12l-311 -979l-12 -10h-121zM874 301l371 512l15 10l94 19l10 -8v-498h147l9 -10l-29 -105l-10 -10h-117v-195l-10 -12l-115 -16 l-10 8v215h-320l-14 8zM1049 336h182v184l4 78l-45 -72l-109 -153z" />
<glyph unicode="&#xbd;" horiz-adv-x="1632" d="M88 557v107l10 10h191v581h-139l-13 11l-26 106l8 10h295l10 -10v-698h197l8 -10l-27 -107l-12 -10h-492zM535 10l319 1002l14 8l109 -19l8 -12l-311 -979l-12 -10h-121zM985 680v10l11 17q7 10 32 37.5t52.5 48t72.5 37t94 16.5q104 0 181 -66.5t77 -181.5 q0 -74 -50 -152.5t-110 -133.5l-118 -107q-57 -53 -68 -78h367l8 -10l-29 -107l-12 -10h-479l-13 10l-14 64q2 55 61.5 124.5t130 128t128 132t57.5 133.5q0 51 -34 89t-87 38q-88 0 -160 -103h-10z" />
<glyph unicode="&#xbe;" horiz-adv-x="1585" d="M80 696l2 13l92 69h16q6 -12 19.5 -30.5t57.5 -50t93 -31.5q59 0 103.5 32.5t44.5 87.5v21q0 55 -47 86t-133 31h-76l-8 10l37 104l12 11h35q162 0 161 108q0 57 -37.5 85t-99.5 28q-31 0 -59.5 -12.5t-44 -25.5t-32.5 -31.5t-21 -20.5l-17 -2l-88 59v14q4 6 11.5 15.5 t32 35t52 45t72.5 35t94 15.5q121 0 196 -63.5t75 -174.5q0 -119 -97 -170q115 -45 115 -166v-47q0 -111 -82 -174t-199 -63q-168 0 -266 137zM528 10l320 1002l14 8l109 -19l8 -12l-311 -979l-13 -10h-120zM864 301l371 512l14 10l94 19l11 -8v-498h147l8 -10l-28 -105 l-11 -10h-116v-195l-11 -12l-114 -16l-10 8v215h-320l-14 8zM1038 336h183v184l4 78l-45 -72l-109 -153z" />
<glyph unicode="&#xbf;" horiz-adv-x="978" d="M98 94q0 152 96.5 248t249.5 113l7 166l10 10h121l10 -10v-293l-10 -13l-140 -22q-82 -14 -127 -76.5t-45 -157.5v-145q0 -109 60.5 -166t171.5 -57q113 0 177 55t64 168l13 8l141 -31l10 -12q0 -166 -114.5 -259t-290.5 -93t-290 93t-114 259v215zM420 815v186l10 11 h182l11 -11v-186l-11 -10h-182z" />
<glyph unicode="&#xc0;" horiz-adv-x="1208" d="M25 10l477 1352l12 10l172 23l12 -9l486 -1376l-6 -10h-164l-13 10l-112 330h-572l-110 -330l-10 -10h-166zM358 1763l11 9h221l14 -9l123 -209l-2 -12l-102 -41h-13zM371 496h467l-213 630l-21 88l-20 -88z" />
<glyph unicode="&#xc1;" horiz-adv-x="1208" d="M25 10l477 1352l12 10l172 23l12 -9l486 -1376l-6 -10h-164l-13 10l-112 330h-572l-110 -330l-10 -10h-166zM371 496h467l-213 630l-21 88l-20 -88zM479 1554l123 209l14 9h222l10 -9l-252 -262h-12l-103 41z" />
<glyph unicode="&#xc2;" horiz-adv-x="1208" d="M25 10l477 1352l12 10l172 23l12 -9l486 -1376l-6 -10h-164l-13 10l-112 330h-572l-110 -330l-10 -10h-166zM334 1552l188 209l19 11h123l18 -11l188 -209l-4 -14l-112 -37h-15l-137 160l-137 -160h-14l-113 37zM371 496h467l-213 630l-21 88l-20 -88z" />
<glyph unicode="&#xc3;" horiz-adv-x="1208" d="M25 10l477 1352l12 10l172 23l12 -9l486 -1376l-6 -10h-164l-13 10l-112 330h-572l-110 -330l-10 -10h-166zM313 1604v14q43 72 86 103.5t109 31.5q61 0 116.5 -47t84.5 -47q31 0 98 67l14 5l74 -56v-14q-76 -135 -199 -135q-57 0 -114.5 46t-83.5 46q-37 0 -97 -66 l-14 -4zM371 496h467l-213 630l-21 88l-20 -88z" />
<glyph unicode="&#xc4;" horiz-adv-x="1208" d="M25 10l477 1352l12 10l172 23l12 -9l486 -1376l-6 -10h-164l-13 10l-112 330h-572l-110 -330l-10 -10h-166zM371 496h467l-213 630l-21 88l-20 -88zM379 1595v160l10 10h150l10 -10v-160l-10 -10h-150zM659 1595v160l11 10h149l10 -10v-160l-10 -10h-149z" />
<glyph unicode="&#xc5;" horiz-adv-x="1208" d="M25 10l477 1352l12 10l172 23l12 -9l486 -1376l-6 -10h-164l-13 10l-112 330h-572l-110 -330l-10 -10h-166zM371 496h467l-213 630l-21 88l-20 -88zM430 1636v27q0 63 49 98t117 35t117 -35t49 -98v-27q0 -63 -49 -99t-117 -36t-117 36t-49 99zM520 1648.5 q0 -67.5 76 -67.5t76 67.5t-76 67.5t-76 -67.5z" />
<glyph unicode="&#xc6;" horiz-adv-x="1568" d="M18 10l529 1362l12 10h827l11 -10v-143l-11 -10h-569l84 -410h477l11 -10l-29 -144l-12 -10h-412l98 -481h420l8 -10l-20 -144l-12 -10h-527l-12 10l-68 326h-493l-119 -326l-10 -10h-176zM391 500h400l-127 626l-17 93l-24 -93z" />
<glyph unicode="&#xc7;" horiz-adv-x="1284" d="M145 477v418q0 244 145.5 376t391.5 132q170 0 297 -74t182 -209l-6 -12l-137 -57l-14 4q-41 86 -127 135t-195 49q-162 0 -261 -93t-99 -265v-385q0 -176 98 -266.5t262 -90.5q258 0 346 191l14 4l134 -51l6 -13q-94 -270 -447 -293q72 -72 72 -147q0 -88 -59.5 -139 t-149.5 -51q-117 0 -180 65l-4 14l26 70l15 6q45 -33 90 -33q139 0 139 138q0 27 -22 75q-240 6 -378.5 135t-138.5 367z" />
<glyph unicode="&#xc8;" horiz-adv-x="1050" d="M190 10v1362l11 10h710l11 -10v-143l-11 -10h-549v-410h478l8 -10l-37 -144l-12 -10h-437v-481h551l9 -10l-21 -144l-12 -10h-688zM330 1763l10 9h221l14 -9l123 -209l-2 -12l-102 -41h-12z" />
<glyph unicode="&#xc9;" horiz-adv-x="1050" d="M190 10v1362l11 10h710l11 -10v-143l-11 -10h-549v-410h478l8 -10l-37 -144l-12 -10h-437v-481h551l9 -10l-21 -144l-12 -10h-688zM457 1554l123 209l14 9h221l10 -9l-252 -262h-12l-102 41z" />
<glyph unicode="&#xca;" horiz-adv-x="1050" d="M190 10v1362l11 10h710l11 -10v-143l-11 -10h-549v-410h478l8 -10l-37 -144l-12 -10h-437v-481h551l9 -10l-21 -144l-12 -10h-688zM303 1552l189 209l18 11h123l18 -11l189 -209l-4 -14l-113 -37h-14l-138 160l-137 -160h-14l-113 37z" />
<glyph unicode="&#xcb;" horiz-adv-x="1050" d="M190 10v1362l11 10h710l11 -10v-143l-11 -10h-549v-410h478l8 -10l-37 -144l-12 -10h-437v-481h551l9 -10l-21 -144l-12 -10h-688zM348 1595v160l10 10h150l10 -10v-160l-10 -10h-150zM629 1595v160l10 10h149l11 -10v-160l-11 -10h-149z" />
<glyph unicode="&#xcc;" horiz-adv-x="555" d="M31 1763l10 9h221l14 -9l123 -209l-2 -12l-102 -41h-12zM190 10v1352l11 12l151 21l10 -9v-1376l-10 -10h-151z" />
<glyph unicode="&#xcd;" horiz-adv-x="555" d="M158 1554l123 209l14 9h221l10 -9l-252 -262h-12l-102 41zM190 10v1352l11 12l151 21l10 -9v-1376l-10 -10h-151z" />
<glyph unicode="&#xce;" horiz-adv-x="555" d="M8 1552l189 209l18 11h123l18 -11l189 -209l-4 -14l-113 -37h-14l-138 160l-137 -160h-14l-113 37zM190 10v1352l11 12l151 21l10 -9v-1376l-10 -10h-151z" />
<glyph unicode="&#xcf;" horiz-adv-x="555" d="M49 1595v160l10 10h150l10 -10v-160l-10 -10h-150zM190 10v1352l11 12l151 21l10 -9v-1376l-10 -10h-151zM330 1595v160l10 10h149l11 -10v-160l-11 -10h-149z" />
<glyph unicode="&#xd0;" horiz-adv-x="1372" d="M115 616v144l10 10h94v602l10 10h453q250 0 397.5 -131t147.5 -370v-383q0 -242 -146.5 -370t-398.5 -128h-453l-10 10v596h-94zM391 164h291q166 0 267.5 88t101.5 264v346q0 174 -102.5 265.5t-266.5 91.5h-291v-449h260l8 -10l-36 -144l-13 -10h-219v-442z" />
<glyph unicode="&#xd1;" horiz-adv-x="1447" d="M190 10v1352l11 12l151 21l15 -9l663 -999l53 -98v1073l11 12l151 21l10 -9v-1376l-10 -10h-145l-17 10l-667 1008l-54 98v-1106l-10 -10h-151zM449 1604v14q43 72 86 103.5t108 31.5q61 0 116.5 -47t84.5 -47q31 0 98 67l14 5l74 -56v-14q-76 -135 -199 -135 q-57 0 -114.5 46t-83.5 46q-37 0 -96 -66l-15 -4z" />
<glyph unicode="&#xd2;" horiz-adv-x="1368" d="M145 477v418q0 244 146.5 376t392.5 132t392.5 -132t146.5 -376v-418q0 -242 -145.5 -372t-393.5 -130t-393.5 130t-145.5 372zM322 496q0 -176 99 -266.5t263 -90.5t263.5 90t99.5 267v385q0 172 -100.5 265t-262.5 93t-262 -93t-100 -265v-385zM434 1763l10 9h222 l14 -9l123 -209l-2 -12l-103 -41h-12z" />
<glyph unicode="&#xd3;" horiz-adv-x="1368" d="M145 477v418q0 244 146.5 376t392.5 132t392.5 -132t146.5 -376v-418q0 -242 -145.5 -372t-393.5 -130t-393.5 130t-145.5 372zM322 496q0 -176 99 -266.5t263 -90.5t263.5 90t99.5 267v385q0 172 -100.5 265t-262.5 93t-262 -93t-100 -265v-385zM571 1554l123 209l15 9 h221l10 -9l-252 -262h-12l-103 41z" />
<glyph unicode="&#xd4;" horiz-adv-x="1368" d="M145 477v418q0 244 146.5 376t392.5 132t392.5 -132t146.5 -376v-418q0 -242 -145.5 -372t-393.5 -130t-393.5 130t-145.5 372zM322 496q0 -176 99 -266.5t263 -90.5t263.5 90t99.5 267v385q0 172 -100.5 265t-262.5 93t-262 -93t-100 -265v-385zM418 1552l188 209l19 11 h123l18 -11l188 -209l-4 -14l-112 -37h-15l-137 160l-137 -160h-14l-113 37z" />
<glyph unicode="&#xd5;" horiz-adv-x="1368" d="M145 477v418q0 244 146.5 376t392.5 132t392.5 -132t146.5 -376v-418q0 -242 -145.5 -372t-393.5 -130t-393.5 130t-145.5 372zM322 496q0 -176 99 -266.5t263 -90.5t263.5 90t99.5 267v385q0 172 -100.5 265t-262.5 93t-262 -93t-100 -265v-385zM397 1604v14 q43 72 86 103.5t109 31.5q61 0 116.5 -47t84.5 -47q31 0 98 67l14 5l74 -56v-14q-78 -135 -199 -135q-59 0 -114.5 46t-83.5 46q-37 0 -97 -66l-14 -4z" />
<glyph unicode="&#xd6;" horiz-adv-x="1368" d="M145 477v418q0 244 146.5 376t392.5 132t392.5 -132t146.5 -376v-418q0 -242 -145.5 -372t-393.5 -130t-393.5 130t-145.5 372zM322 496q0 -176 99 -266.5t263 -90.5t263.5 90t99.5 267v385q0 172 -100.5 265t-262.5 93t-262 -93t-100 -265v-385zM463 1595v160l10 10h150 l10 -10v-160l-10 -10h-150zM743 1595v160l11 10h149l10 -10v-160l-10 -10h-149z" />
<glyph unicode="&#xd7;" horiz-adv-x="1126" d="M190 799l3 14l116 86l15 -2l249 -250l261 262h14l88 -118l-6 -15l-242 -244l260 -260v-14l-100 -100h-14l-261 258l-264 -264h-14l-100 100v14l264 264z" />
<glyph unicode="&#xd8;" horiz-adv-x="1368" d="M145 477v418q0 244 146.5 376t392.5 132q184 0 313 -74l54 92l14 4l100 -36l4 -11l-73 -127q127 -137 127 -356v-418q0 -242 -145.5 -372t-393.5 -130q-166 0 -289 60l-65 -113l-13 -4l-92 51l-4 11l72 122q-148 131 -148 375zM322 496q0 -141 65 -230l522 910 q-90 63 -225 63q-162 0 -262 -93t-100 -265v-385zM481 184q84 -45 203 -45q164 0 263.5 90t99.5 267v385q0 115 -50 200z" />
<glyph unicode="&#xd9;" horiz-adv-x="1423" d="M176 477v885l10 12l152 21l10 -9v-890q0 -176 100.5 -266.5t262.5 -90.5q168 0 265 90t97 267v866l10 12l152 21l10 -9v-909q0 -244 -141 -373t-393 -129q-250 0 -392.5 129t-142.5 373zM467 1763l10 9h221l15 -9l123 -209l-2 -12l-103 -41h-12z" />
<glyph unicode="&#xda;" horiz-adv-x="1423" d="M176 477v885l10 12l152 21l10 -9v-890q0 -176 100.5 -266.5t262.5 -90.5q168 0 265 90t97 267v866l10 12l152 21l10 -9v-909q0 -244 -141 -373t-393 -129q-250 0 -392.5 129t-142.5 373zM604 1554l123 209l14 9h222l10 -9l-252 -262h-12l-103 41z" />
<glyph unicode="&#xdb;" horiz-adv-x="1423" d="M176 477v885l10 12l152 21l10 -9v-890q0 -176 100.5 -266.5t262.5 -90.5q168 0 265 90t97 267v866l10 12l152 21l10 -9v-909q0 -244 -141 -373t-393 -129q-250 0 -392.5 129t-142.5 373zM440 1552l189 209l18 11h123l18 -11l189 -209l-4 -14l-113 -37h-14l-137 160 l-138 -160h-14l-113 37z" />
<glyph unicode="&#xdc;" horiz-adv-x="1423" d="M176 477v885l10 12l152 21l10 -9v-890q0 -176 100.5 -266.5t262.5 -90.5q168 0 265 90t97 267v866l10 12l152 21l10 -9v-909q0 -244 -141 -373t-393 -129q-250 0 -392.5 129t-142.5 373zM485 1595v160l11 10h149l10 -10v-160l-10 -10h-149zM766 1595v160l10 10h150 l10 -10v-160l-10 -10h-150z" />
<glyph unicode="&#xdd;" horiz-adv-x="1052" d="M25 1358l10 14l172 23l12 -9l275 -544l32 -80l35 80l260 516l10 12l187 25l12 -9l-418 -780v-596l-10 -10h-151l-11 10v596zM401 1554l123 209l15 9h221l10 -9l-252 -262h-12l-103 41z" />
<glyph unicode="&#xde;" horiz-adv-x="1138" d="M190 10v1352l11 12l151 21l10 -9v-288h199q209 0 324 -68q172 -100 172 -344q0 -193 -117 -318.5t-340 -125.5q-199 0 -248 118l10 -81v-269l-10 -10h-151zM362 430q100 -35 195 -35q145 0 233.5 72t88.5 215q0 258 -318 258h-199v-510z" />
<glyph unicode="&#xdf;" horiz-adv-x="1224" d="M66 874v127l10 11h123v149q0 160 108.5 244t262 84t262 -84t108.5 -244q0 -76 -36 -139.5t-78 -99t-77.5 -92t-35.5 -121.5q0 -53 46 -84t111.5 -50.5t131 -45t111.5 -87t46 -159.5q0 -307 -366 -308q-186 0 -310 95l-2 12l78 108l16 3q31 -27 97.5 -48.5t115.5 -21.5 q207 0 207 160q0 57 -44 93t-108.5 57.5t-128 47t-107.5 83t-44 145.5q0 80 34 146.5t73 103t72.5 91t33.5 111.5q0 86 -60.5 133t-146.5 47q-88 0 -147.5 -44t-59.5 -128v-1413l-40 -207l-13 -14l-100 59l-10 19v1251h-123z" />
<glyph unicode="&#xe0;" horiz-adv-x="970" d="M82 276q0 143 98 224q96 78 320 78h71q57 0 91 20v96q0 195 -211 195q-127 0 -203 -62l-17 2l-69 103l4 16q113 88 287 88q170 0 271 -74.5t101 -236.5v-524l52 -181l-11 -12l-125 -18l-12 8l-59 147q-2 -6 -7.5 -18t-26 -41t-48 -51.5t-79.5 -41t-116 -18.5 q-127 0 -219 72.5t-92 228.5zM236 1427l10 9h221l14 -9l123 -208l-2 -13l-102 -41h-13zM254 274q0 -68 45 -109.5t121 -41.5q102 0 242 59v346q-31 -102 -181 -102h-49q-70 0 -124 -34t-54 -118z" />
<glyph unicode="&#xe1;" horiz-adv-x="970" d="M82 276q0 143 98 224q96 78 320 78h71q57 0 91 20v96q0 195 -211 195q-127 0 -203 -62l-17 2l-69 103l4 16q113 88 287 88q170 0 271 -74.5t101 -236.5v-524l52 -181l-11 -12l-125 -18l-12 8l-59 147q-2 -6 -7.5 -18t-26 -41t-48 -51.5t-79.5 -41t-116 -18.5 q-127 0 -219 72.5t-92 228.5zM254 274q0 -68 45 -109.5t121 -41.5q102 0 242 59v346q-31 -102 -181 -102h-49q-70 0 -124 -34t-54 -118zM373 1219l123 208l14 9h221l10 -9l-252 -262h-12l-102 41z" />
<glyph unicode="&#xe2;" horiz-adv-x="970" d="M82 276q0 143 98 224q96 78 320 78h71q57 0 91 20v96q0 195 -211 195q-127 0 -203 -62l-17 2l-69 103l4 16q113 88 287 88q170 0 271 -74.5t101 -236.5v-524l52 -181l-11 -12l-125 -18l-12 8l-59 147q-2 -6 -7.5 -18t-26 -41t-48 -51.5t-79.5 -41t-116 -18.5 q-127 0 -219 72.5t-92 228.5zM219 1217l189 208l18 11h123l18 -11l189 -208l-4 -15l-113 -37h-14l-138 160l-137 -160h-14l-113 37zM254 274q0 -68 45 -109.5t121 -41.5q102 0 242 59v346q-31 -102 -181 -102h-49q-70 0 -124 -34t-54 -118z" />
<glyph unicode="&#xe3;" horiz-adv-x="970" d="M82 276q0 143 98 224q96 78 320 78h71q57 0 91 20v96q0 195 -211 195q-127 0 -203 -62l-17 2l-69 103l4 16q113 88 287 88q170 0 271 -74.5t101 -236.5v-524l52 -181l-11 -12l-125 -18l-12 8l-59 147q-2 -6 -7.5 -18t-26 -41t-48 -51.5t-79.5 -41t-116 -18.5 q-127 0 -219 72.5t-92 228.5zM199 1268v14q43 72 86 103.5t108 31.5q61 0 116.5 -47t84.5 -47q31 0 98 68l15 4l73 -56v-14q-76 -135 -198 -135q-57 0 -114.5 46t-84.5 46q-37 0 -96 -65l-15 -5zM254 274q0 -68 45 -109.5t121 -41.5q102 0 242 59v346q-31 -102 -181 -102 h-49q-70 0 -124 -34t-54 -118z" />
<glyph unicode="&#xe4;" horiz-adv-x="970" d="M82 276q0 143 98 224q96 78 320 78h71q57 0 91 20v96q0 195 -211 195q-127 0 -203 -62l-17 2l-69 103l4 16q113 88 287 88q170 0 271 -74.5t101 -236.5v-524l52 -181l-11 -12l-125 -18l-12 8l-59 147q-2 -6 -7.5 -18t-26 -41t-48 -51.5t-79.5 -41t-116 -18.5 q-127 0 -219 72.5t-92 228.5zM254 274q0 -68 45 -109.5t121 -41.5q102 0 242 59v346q-31 -102 -181 -102h-49q-70 0 -124 -34t-54 -118zM264 1260v159l10 11h150l10 -11v-159l-10 -11h-150zM545 1260v159l10 11h150l10 -11v-159l-10 -11h-150z" />
<glyph unicode="&#xe5;" horiz-adv-x="970" d="M82 276q0 143 98 224q96 78 320 78h71q57 0 91 20v96q0 195 -211 195q-127 0 -203 -62l-17 2l-69 103l4 16q113 88 287 88q170 0 271 -74.5t101 -236.5v-524l52 -181l-11 -12l-125 -18l-12 8l-59 147q-2 -6 -7.5 -18t-26 -41t-48 -51.5t-79.5 -41t-116 -18.5 q-127 0 -219 72.5t-92 228.5zM254 274q0 -68 45 -109.5t121 -41.5q102 0 242 59v346q-31 -102 -181 -102h-49q-70 0 -124 -34t-54 -118zM324 1300v27q0 63 49 98t116.5 35t116.5 -34.5t49 -98.5v-27q0 -63 -49 -99t-116.5 -36t-116.5 36t-49 99zM414 1312.5 q0 -67.5 75.5 -67.5t75.5 67.5t-75.5 67.5t-75.5 -67.5z" />
<glyph unicode="&#xe6;" horiz-adv-x="1513" d="M82 283q0 301 383 301h102q57 0 90 20v90q0 195 -211 195q-127 0 -202 -62l-17 2l-69 103l4 16q113 88 287 88q213 0 303 -127q96 127 288 127q180 0 265.5 -90t85.5 -215q0 -152 -90.5 -229.5t-239.5 -77.5q-201 0 -250 115l10 -76v-98q0 -117 61.5 -179.5t168.5 -62.5 q160 0 223 108l14 5l123 -43l6 -13q-37 -98 -132 -151.5t-226 -53.5q-270 0 -363 172q-10 -20 -27.5 -41.5t-53 -54.5t-95 -54.5t-131.5 -21.5q-131 0 -219 84.5t-88 223.5zM250 283q0 -68 45 -114t121 -46q152 0 258 80q-16 61 -17 127v205q-31 -102 -180 -103h-49 q-70 0 -124 -32.5t-54 -116.5zM821 606q43 -33 215 -33q82 0 136.5 39t54.5 127q0 61 -47 104.5t-146 43.5q-213 0 -213 -236v-45z" />
<glyph unicode="&#xe7;" horiz-adv-x="966" d="M121 330v350q0 160 106.5 258t292.5 98q119 0 213 -53t135 -156l-6 -12l-123 -43l-14 4q-59 113 -215 113q-104 0 -164.5 -62.5t-60.5 -179.5v-282q0 -117 60.5 -179.5t164.5 -62.5q166 0 225 108l15 5l122 -43l7 -13q-72 -182 -312 -203q72 -72 72 -147 q0 -88 -59.5 -139t-149.5 -51q-117 0 -180 65l-4 14l26 70l15 6q45 -33 90 -33q139 0 139 138q0 27 -22 75q-174 8 -273.5 104.5t-99.5 250.5z" />
<glyph unicode="&#xe8;" horiz-adv-x="976" d="M121 330v344q0 170 106.5 266t282.5 96q182 0 270 -90t88 -213q0 -147 -93 -224t-245 -77q-90 0 -153.5 28.5t-78.5 48t-24 38.5l11 -76v-106q0 -117 61.5 -179.5t167.5 -62.5q160 0 223 108l15 5l122 -43l7 -13q-37 -98 -132.5 -151.5t-226.5 -53.5q-190 0 -295.5 90.5 t-105.5 264.5zM252 1427l10 9h221l15 -9l123 -208l-3 -13l-102 -41h-12zM285 614q88 -37 198 -36q213 0 213 163q0 59 -48 103.5t-144 44.5q-106 0 -162.5 -60.5t-56.5 -177.5v-37z" />
<glyph unicode="&#xe9;" horiz-adv-x="976" d="M121 330v344q0 170 106.5 266t282.5 96q182 0 270 -90t88 -213q0 -147 -93 -224t-245 -77q-90 0 -153.5 28.5t-78.5 48t-24 38.5l11 -76v-106q0 -117 61.5 -179.5t167.5 -62.5q160 0 223 108l15 5l122 -43l7 -13q-37 -98 -132.5 -151.5t-226.5 -53.5q-190 0 -295.5 90.5 t-105.5 264.5zM285 614q88 -37 198 -36q213 0 213 163q0 59 -48 103.5t-144 44.5q-106 0 -162.5 -60.5t-56.5 -177.5v-37zM389 1219l123 208l14 9h222l10 -9l-252 -262h-12l-103 41z" />
<glyph unicode="&#xea;" horiz-adv-x="976" d="M121 330v344q0 170 106.5 266t282.5 96q182 0 270 -90t88 -213q0 -147 -93 -224t-245 -77q-90 0 -153.5 28.5t-78.5 48t-24 38.5l11 -76v-106q0 -117 61.5 -179.5t167.5 -62.5q160 0 223 108l15 5l122 -43l7 -13q-37 -98 -132.5 -151.5t-226.5 -53.5q-190 0 -295.5 90.5 t-105.5 264.5zM236 1217l188 208l18 11h123l19 -11l188 -208l-4 -15l-113 -37h-14l-137 160l-137 -160h-15l-112 37zM285 614q88 -37 198 -36q213 0 213 163q0 59 -48 103.5t-144 44.5q-106 0 -162.5 -60.5t-56.5 -177.5v-37z" />
<glyph unicode="&#xeb;" horiz-adv-x="976" d="M121 330v344q0 170 106.5 266t282.5 96q182 0 270 -90t88 -213q0 -147 -93 -224t-245 -77q-90 0 -153.5 28.5t-78.5 48t-24 38.5l11 -76v-106q0 -117 61.5 -179.5t167.5 -62.5q160 0 223 108l15 5l122 -43l7 -13q-37 -98 -132.5 -151.5t-226.5 -53.5q-190 0 -295.5 90.5 t-105.5 264.5zM281 1260v159l10 11h149l11 -11v-159l-11 -11h-149zM285 614q88 -37 198 -36q213 0 213 163q0 59 -48 103.5t-144 44.5q-106 0 -162.5 -60.5t-56.5 -177.5v-37zM561 1260v159l10 11h150l10 -11v-159l-10 -11h-150z" />
<glyph unicode="&#xec;" horiz-adv-x="473" d="M-18 1427l10 9h221l14 -9l123 -208l-2 -13l-102 -41h-13zM154 10v979l10 12l143 21l10 -8v-1004l-10 -10h-143z" />
<glyph unicode="&#xed;" horiz-adv-x="473" d="M119 1219l123 208l14 9h221l10 -9l-251 -262h-13l-102 41zM154 10v979l10 12l143 21l10 -8v-1004l-10 -10h-143z" />
<glyph unicode="&#xee;" horiz-adv-x="473" d="M-35 1217l189 208l18 11h123l18 -11l189 -208l-4 -15l-113 -37h-14l-138 160l-137 -160h-14l-113 37zM154 10v979l10 12l143 21l10 -8v-1004l-10 -10h-143z" />
<glyph unicode="&#xef;" horiz-adv-x="473" d="M10 1260v159l10 11h150l10 -11v-159l-10 -11h-150zM154 10v979l10 12l143 21l10 -8v-1004l-10 -10h-143zM291 1260v159l10 11h150l10 -11v-159l-10 -11h-150z" />
<glyph unicode="&#xf0;" horiz-adv-x="1024" d="M123 330v291q0 168 103.5 261t269.5 93q127 0 225 -70v56q0 137 -72 237l-221 -113l-12 5l-47 94l2 14l182 92q-63 45 -176 99l-8 14l45 108l16 9q166 -68 268 -154l148 76l12 -2l49 -97l-4 -12l-115 -61q88 -123 89 -269v-671q0 -168 -103.5 -261.5t-277.5 -93.5 q-166 0 -269.5 93.5t-103.5 261.5zM287 365q0 -115 59.5 -178.5t155.5 -63.5t153.5 63.5t57.5 178.5v245q0 217 -211 217q-96 0 -155.5 -62.5t-59.5 -176.5v-223z" />
<glyph unicode="&#xf1;" horiz-adv-x="1075" d="M111 991l10 13l125 18l12 -8l57 -144q6 16 19.5 38t44.5 53.5t89 53t134 21.5q141 0 233.5 -93t92.5 -261v-672l-10 -10h-144l-10 10v639q0 123 -65.5 181.5t-163.5 58.5q-31 0 -209 -47v-832l-11 -10h-143l-10 10v789zM270 1268v14q43 72 86 103.5t109 31.5 q61 0 116.5 -47t84.5 -47q31 0 98 68l14 4l74 -56v-14q-78 -135 -199 -135q-59 0 -114.5 46t-83.5 46q-37 0 -97 -65l-14 -5z" />
<glyph unicode="&#xf2;" d="M121 330v352q0 168 109.5 261t283.5 93t283.5 -93t109.5 -261v-352q0 -168 -109.5 -261.5t-283.5 -93.5t-283.5 93.5t-109.5 261.5zM266 1427l10 9h222l14 -9l123 -208l-2 -13l-103 -41h-12zM285 365q0 -119 59 -180.5t170 -61.5q109 0 169 62.5t60 179.5v284 q0 117 -60 178.5t-169 61.5q-111 0 -170 -61.5t-59 -178.5v-284z" />
<glyph unicode="&#xf3;" d="M121 330v352q0 168 109.5 261t283.5 93t283.5 -93t109.5 -261v-352q0 -168 -109.5 -261.5t-283.5 -93.5t-283.5 93.5t-109.5 261.5zM285 365q0 -119 59 -180.5t170 -61.5q109 0 169 62.5t60 179.5v284q0 117 -60 178.5t-169 61.5q-111 0 -170 -61.5t-59 -178.5v-284z M403 1219l123 208l15 9h221l10 -9l-252 -262h-12l-102 41z" />
<glyph unicode="&#xf4;" d="M121 330v352q0 168 109.5 261t283.5 93t283.5 -93t109.5 -261v-352q0 -168 -109.5 -261.5t-283.5 -93.5t-283.5 93.5t-109.5 261.5zM250 1217l188 208l19 11h123l18 -11l188 -208l-4 -15l-112 -37h-15l-137 160l-137 -160h-14l-113 37zM285 365q0 -119 59 -180.5 t170 -61.5q109 0 169 62.5t60 179.5v284q0 117 -60 178.5t-169 61.5q-111 0 -170 -61.5t-59 -178.5v-284z" />
<glyph unicode="&#xf5;" d="M121 330v352q0 168 109.5 261t283.5 93t283.5 -93t109.5 -261v-352q0 -168 -109.5 -261.5t-283.5 -93.5t-283.5 93.5t-109.5 261.5zM229 1268v14q43 72 86 103.5t109 31.5q61 0 116.5 -47t84.5 -47q31 0 98 68l14 4l74 -56v-14q-78 -135 -199 -135q-59 0 -114.5 46 t-83.5 46q-37 0 -97 -65l-14 -5zM285 365q0 -119 59 -180.5t170 -61.5q109 0 169 62.5t60 179.5v284q0 117 -60 178.5t-169 61.5q-111 0 -170 -61.5t-59 -178.5v-284z" />
<glyph unicode="&#xf6;" d="M121 330v352q0 168 109.5 261t283.5 93t283.5 -93t109.5 -261v-352q0 -168 -109.5 -261.5t-283.5 -93.5t-283.5 93.5t-109.5 261.5zM285 365q0 -119 59 -180.5t170 -61.5q109 0 169 62.5t60 179.5v284q0 117 -60 178.5t-169 61.5q-111 0 -170 -61.5t-59 -178.5v-284z M295 1260v159l10 11h150l10 -11v-159l-10 -11h-150zM575 1260v159l11 11h149l10 -11v-159l-10 -11h-149z" />
<glyph unicode="&#xf7;" horiz-adv-x="1126" d="M193 434v141l10 11h733l8 -11l-37 -141l-12 -10h-692zM455 72v192l10 10h188l11 -10v-192l-11 -11h-188zM455 748v192l10 10h188l11 -10v-192l-11 -11h-188z" />
<glyph unicode="&#xf8;" horiz-adv-x="1038" d="M125 330v352q0 168 109.5 261t283.5 93q119 0 213 -47l55 96l15 5l92 -35l4 -11l-72 -124q86 -96 86 -238v-352q0 -168 -109.5 -261.5t-283.5 -93.5q-117 0 -213 45l-55 -96l-12 -4l-84 49l-4 11l63 110q-88 93 -88 240zM289 365q0 -59 16 -113l348 602q-57 35 -135 35 q-111 0 -170 -61.5t-59 -178.5v-284zM383 156q53 -33 135 -33q109 0 169.5 62.5t60.5 179.5v284q0 57 -17 107z" />
<glyph unicode="&#xf9;" horiz-adv-x="1060" d="M145 336v653l11 12l143 21l10 -8v-643q0 -127 60.5 -187.5t156.5 -60.5q25 0 77 14.5t93 28.5l39 14v809l10 12l144 21l10 -8v-813l51 -181l-10 -12l-125 -18l-12 8l-60 147q-23 -70 -91 -120t-193 -50q-141 0 -227.5 94.5t-86.5 266.5zM289 1427l10 9h221l15 -9 l122 -208l-2 -13l-102 -41h-12z" />
<glyph unicode="&#xfa;" horiz-adv-x="1060" d="M145 336v653l11 12l143 21l10 -8v-643q0 -127 60.5 -187.5t156.5 -60.5q25 0 77 14.5t93 28.5l39 14v809l10 12l144 21l10 -8v-813l51 -181l-10 -12l-125 -18l-12 8l-60 147q-23 -70 -91 -120t-193 -50q-141 0 -227.5 94.5t-86.5 266.5zM426 1219l123 208l14 9h221l11 -9 l-252 -262h-13l-102 41z" />
<glyph unicode="&#xfb;" horiz-adv-x="1060" d="M145 336v653l11 12l143 21l10 -8v-643q0 -127 60.5 -187.5t156.5 -60.5q25 0 77 14.5t93 28.5l39 14v809l10 12l144 21l10 -8v-813l51 -181l-10 -12l-125 -18l-12 8l-60 147q-23 -70 -91 -120t-193 -50q-141 0 -227.5 94.5t-86.5 266.5zM272 1217l189 208l18 11h123 l19 -11l188 -208l-4 -15l-113 -37h-14l-137 160l-138 -160h-14l-113 37z" />
<glyph unicode="&#xfc;" horiz-adv-x="1060" d="M145 336v653l11 12l143 21l10 -8v-643q0 -127 60.5 -187.5t156.5 -60.5q25 0 77 14.5t93 28.5l39 14v809l10 12l144 21l10 -8v-813l51 -181l-10 -12l-125 -18l-12 8l-60 147q-23 -70 -91 -120t-193 -50q-141 0 -227.5 94.5t-86.5 266.5zM317 1260v159l11 11h149l10 -11 v-159l-10 -11h-149zM598 1260v159l10 11h150l10 -11v-159l-10 -11h-150z" />
<glyph unicode="&#xfd;" horiz-adv-x="952" d="M-68 -377l62 111l14 4q66 -63 160 -64q123 0 190 187l64 172l-23 8l-16 14l-352 934l10 12l160 21l10 -8l240 -738l30 -108l25 90l233 733l13 10l163 21l7 -10l-428 -1219q-92 -266 -322 -266q-127 0 -235 80zM346 1219l123 208l14 9h222l10 -9l-252 -262h-12l-103 41z " />
<glyph unicode="&#xfe;" horiz-adv-x="1032" d="M156 -455v1911l10 12l143 21l10 -8v-510l-8 -84q16 31 42 60.5t90.5 59t148.5 29.5q141 0 229 -94t88 -264v-348q0 -168 -104.5 -261.5t-267.5 -93.5q-133 0 -226 72l8 -94v-383l-10 -12l-143 -21zM319 340q0 -217 211 -217q96 0 155.5 63.5t59.5 178.5v278 q0 127 -61 186.5t-160 59.5q-63 0 -205 -47v-502z" />
<glyph unicode="&#xff;" horiz-adv-x="952" d="M-68 -377l62 111l14 4q66 -63 160 -64q123 0 190 187l64 172l-23 8l-16 14l-352 934l10 12l160 21l10 -8l240 -738l30 -108l25 90l233 733l13 10l163 21l7 -10l-428 -1219q-92 -266 -322 -266q-127 0 -235 80zM238 1260v159l10 11h149l11 -11v-159l-11 -11h-149z M518 1260v159l10 11h150l10 -11v-159l-10 -11h-150z" />
<glyph unicode="&#x152;" horiz-adv-x="1910" d="M145 477v418q0 244 145.5 376t385.5 132q233 0 375 -141v110l10 10h711l10 -10v-143l-10 -10h-549v-410h477l8 -10l-37 -144l-12 -10h-436v-481h551l8 -10l-21 -144l-12 -10h-688l-10 10v103q-141 -137 -375 -138q-240 0 -385.5 130t-145.5 372zM322 496 q0 -176 100 -266.5t264 -90.5q365 0 365 381v357q0 186 -100.5 274t-264.5 88q-162 0 -263 -93t-101 -265v-385z" />
<glyph unicode="&#x153;" horiz-adv-x="1599" d="M121 330v352q0 168 109.5 261t283.5 93q209 0 311 -141q100 141 301 141q180 0 265.5 -89t85.5 -214q0 -152 -90.5 -226.5t-239.5 -74.5q-201 0 -250 115l10 -76v-106q0 -117 61.5 -179.5t168.5 -62.5q160 0 223 108l14 5l123 -43l6 -13q-37 -98 -132 -151.5t-226 -53.5 q-219 0 -324 138q-98 -137 -307 -138q-174 0 -283.5 93.5t-109.5 261.5zM285 365q0 -119 59 -180.5t170 -61.5q109 0 169 62.5t60 179.5v284q0 117 -60 178.5t-169 61.5q-111 0 -170 -61.5t-59 -178.5v-284zM907 614q43 -33 215 -32q190 0 191 159q0 61 -47 103.5t-146 42.5 q-213 0 -213 -236v-37z" />
<glyph unicode="&#x178;" horiz-adv-x="1052" d="M25 1358l10 14l172 23l12 -9l275 -544l32 -80l35 80l260 516l10 12l187 25l12 -9l-418 -780v-596l-10 -10h-151l-11 10v596zM301 1595v160l10 10h150l10 -10v-160l-10 -10h-150zM582 1595v160l10 10h149l11 -10v-160l-11 -10h-149z" />
<glyph unicode="&#x2c6;" d="M246 1217l188 208l19 11h122l19 -11l188 -208l-4 -15l-112 -37h-15l-137 160l-137 -160h-15l-112 37z" />
<glyph unicode="&#x2dc;" d="M227 1268v14q43 72 86 103.5t109 31.5q61 0 116.5 -47t84.5 -47q31 0 98 68l14 4l74 -56v-14q-76 -135 -199 -135q-57 0 -114.5 46t-83.5 46q-37 0 -97 -65l-14 -5z" />
<glyph unicode="&#x2000;" horiz-adv-x="898" />
<glyph unicode="&#x2001;" horiz-adv-x="1796" />
<glyph unicode="&#x2002;" horiz-adv-x="898" />
<glyph unicode="&#x2003;" horiz-adv-x="1796" />
<glyph unicode="&#x2004;" horiz-adv-x="598" />
<glyph unicode="&#x2005;" horiz-adv-x="449" />
<glyph unicode="&#x2006;" horiz-adv-x="299" />
<glyph unicode="&#x2007;" horiz-adv-x="299" />
<glyph unicode="&#x2008;" horiz-adv-x="224" />
<glyph unicode="&#x2009;" horiz-adv-x="359" />
<glyph unicode="&#x200a;" horiz-adv-x="99" />
<glyph unicode="&#x2010;" horiz-adv-x="870" d="M170 459v143l10 10h527l8 -10l-37 -143l-12 -10h-486z" />
<glyph unicode="&#x2011;" horiz-adv-x="870" d="M170 459v143l10 10h527l8 -10l-37 -143l-12 -10h-486z" />
<glyph unicode="&#x2012;" horiz-adv-x="870" d="M170 459v143l10 10h527l8 -10l-37 -143l-12 -10h-486z" />
<glyph unicode="&#x2013;" horiz-adv-x="1359" d="M170 465v129l10 10h1008l8 -10l-25 -129l-12 -10h-979z" />
<glyph unicode="&#x2014;" horiz-adv-x="1765" d="M170 465v129l10 10h1413l9 -10l-25 -129l-12 -10h-1385z" />
<glyph unicode="&#x2018;" horiz-adv-x="446" d="M82 1022l176 362l14 9l78 -21l8 -14l-59 -336l-14 -10h-197z" />
<glyph unicode="&#x2019;" horiz-adv-x="415" d="M94 1036l60 336l14 10h197l6 -10l-176 -362l-15 -9l-78 21z" />
<glyph unicode="&#x201a;" horiz-adv-x="485" d="M86 -154l59 336l15 11h196l6 -11l-176 -362l-14 -8l-78 20z" />
<glyph unicode="&#x201c;" horiz-adv-x="761" d="M82 1022l176 362l14 9l78 -21l8 -14l-59 -336l-14 -10h-197zM397 1022l176 362l15 9l78 -21l8 -14l-60 -346h-211z" />
<glyph unicode="&#x201d;" horiz-adv-x="731" d="M94 1036l60 336l14 10h197l6 -10l-176 -362l-15 -9l-78 21zM410 1036l59 336l14 10h197l6 -10l-176 -362l-14 -9l-78 21z" />
<glyph unicode="&#x201e;" horiz-adv-x="800" d="M88 -152l59 336l15 11h196l7 -11l-177 -362l-14 -8l-78 20zM403 -152l60 336l14 11h197l6 -11l-176 -362l-15 -8l-77 20z" />
<glyph unicode="&#x2022;" horiz-adv-x="999" d="M152 471v74q0 145 104 227t242 82q139 0 244.5 -82t105.5 -227v-74q0 -147 -104.5 -226t-245.5 -79q-139 0 -242.5 79t-103.5 226z" />
<glyph unicode="&#x2026;" horiz-adv-x="1617" d="M137 10v193l10 10h189l10 -10v-193l-10 -10h-189zM705 10v193l10 10h188l10 -10v-193l-10 -10h-188zM1272 10v193l10 10h188l11 -10v-193l-11 -10h-188z" />
<glyph unicode="&#x202f;" horiz-adv-x="359" />
<glyph unicode="&#x2039;" horiz-adv-x="636" d="M90 500v14l258 389l19 12h153l12 -14l-266 -393l266 -393l-12 -15h-153l-19 13z" />
<glyph unicode="&#x203a;" horiz-adv-x="636" d="M104 115l267 393l-267 393l13 14h153l19 -12l258 -389v-14l-258 -387l-19 -13h-153z" />
<glyph unicode="&#x205f;" horiz-adv-x="449" />
<glyph unicode="&#x20ac;" horiz-adv-x="1214" d="M109 375v123l10 10h129v139h-129l-10 10v123l10 11h135q29 197 167 302t353 105q88 0 166 -20.5t112.5 -40t49.5 -33.5l2 -14l-45 -115l-17 -2q-10 8 -30.5 21.5t-88 35t-141.5 21.5q-139 0 -233 -68t-125 -192h582l8 -11l-33 -123l-12 -10h-557v-139h524l8 -10l-31 -123 l-12 -10h-473q35 -117 129 -179.5t227 -62.5q162 0 279 88l16 -2l41 -115l-2 -14q-14 -14 -50 -35.5t-116 -45.5t-168 -24q-213 0 -354 100.5t-174 289.5h-137z" />
<glyph unicode="&#x2122;" horiz-adv-x="1607" d="M45 1276v96l10 10h572l8 -10l-27 -96l-12 -10h-199v-535l-10 -10h-106l-11 10v535h-215zM711 731v641l10 10l98 13l15 -11l258 -462l254 450l10 10l100 13l14 -11v-653l-10 -10h-108l-9 10v399l-194 -342l-14 -10h-93l-12 10l-192 351v-408l-11 -10h-106z" />
<glyph unicode="&#xe000;" horiz-adv-x="1020" d="M0 1020h1020v-1020h-1020v1020z" />
<glyph unicode="&#xfb01;" horiz-adv-x="1071" d="M63 874v127l11 11h133v215q0 160 109.5 248t261.5 88q166 0 303 -115l2 -14l-90 -103l-17 2q-92 74 -198 74q-88 0 -147.5 -44t-59.5 -128v-223h463l71 10l10 -8v-1004l-10 -10h-143l-10 10v854h-381v-1108l-41 -207l-13 -14l-100 59l-10 19v1251h-133z" />
<glyph unicode="&#xfb02;" horiz-adv-x="1136" d="M63 874v127l11 11h133v215q0 160 109.5 248t261 88t266.5 -88l92 14l10 -8v-1250q0 -53 29 -72.5t63 -19.5h9l8 -10l-23 -129l-10 -10h-16q-31 0 -61 7t-70.5 27.5t-66.5 70.5t-26 126v1098q-78 88 -204 88q-88 0 -147.5 -44t-59.5 -128v-223h342l10 -11l-39 -127 l-14 -10h-299v-1108l-41 -207l-13 -14l-100 59l-10 19v1251h-133z" />
<glyph unicode="&#xfb03;" horiz-adv-x="1687" d="M63 874v127l11 11h133v139q0 162 100.5 249t249.5 87q154 0 270 -90q47 80 135.5 123t190.5 43q166 0 303 -115l2 -14l-90 -103l-16 2q-92 74 -199 74q-88 0 -147.5 -44t-59.5 -128v-223h504l72 10l10 -8v-1004l-10 -10h-144l-10 10v854h-422v-1108l-41 -207l-12 -14 l-100 59l-11 19v1251h-411v-1108l-41 -207l-13 -14l-100 59l-10 19v1251h-133zM371 1012h411v205q-10 16 -28.5 37.5t-73.5 49t-123 27.5q-86 0 -136 -43t-50 -129v-147z" />
<glyph unicode="&#xfb04;" horiz-adv-x="1712" d="M63 874v127l11 11h133v139q0 162 100.5 249t249.5 87q154 0 270 -90q47 80 135.5 123t190.5 43q152 0 266 -88l92 14l11 -8v-1250q0 -53 28.5 -72.5t63.5 -19.5h8l8 -10l-22 -129l-11 -10h-16q-31 0 -60.5 7t-70.5 27.5t-66.5 70.5t-25.5 126v1098q-78 88 -205 88 q-88 0 -147.5 -44t-59.5 -128v-223h311l11 -11l-39 -127l-15 -10h-268v-1108l-41 -207l-12 -14l-100 59l-11 19v1251h-411v-1108l-41 -207l-13 -14l-100 59l-10 19v1251h-133zM371 1012h411v205q-10 16 -28.5 37.5t-73.5 49t-123 27.5q-86 0 -136 -43t-50 -129v-147z" />
</font>
</defs>
</svg>
