<?xml version="1.0" encoding="utf-8"?>
<!-- Generator: Adobe Illustrator 18.1.1, SVG Export Plug-In . SVG Version: 6.00 Build 0)  -->
<svg version="1.1" id="Layer_1" xmlns="http://www.w3.org/2000/svg" xmlns:xlink="http://www.w3.org/1999/xlink" x="0px" y="0px"
	 viewBox="0 192.7 500 113.3" enable-background="new 0 192.7 500 113.3" xml:space="preserve">
<g id="Layer_1_1_">
</g>
<g id="Layer_3">
</g>
<g id="Layer_4">
</g>
<g>
	<path d="M140.8,224.2c-9.6,0-18.8,7.9-18.8,26.8c0,18.2,8.1,26.7,18.2,26.7c8.7,0,18.7-6.7,18.7-26.8
		C158.9,232.9,150.9,224.2,140.8,224.2z M140.7,271.1c-8.1,0-9.8-11.7-9.8-20.2c0-7.9,1.5-20.1,9.5-20.1c7.9,0,9.5,12.2,9.5,20.1
		C150,259,148.4,271.1,140.7,271.1z"/>
	<path d="M188.8,224.2c-4.4,0-8.8,1.9-12,7.4h-0.2l-0.5-6.6h-7.9c0.1,3.7,0.5,8.3,0.5,16.2h0v56.2h8.8v-25.7h0.2
		c1.5,2.9,4.5,6,9.9,6c8.8,0,17.4-7.6,17.4-26.9C205,233.8,198.7,224.2,188.8,224.2z M186.2,270.8c-2.4,0-6.5-1.3-8.2-8.7
		c-0.4-1.3-0.5-2.8-0.5-4.3v-13.2c0-1.4,0.1-2.8,0.4-4c0.5-4.7,4.2-9.3,8.2-9.3c7.2,0,10,9,10,19.7
		C196.1,261.3,193.7,270.8,186.2,270.8z"/>
	<path d="M231.6,224.2c-11.2,0-19,10.5-19,27.2c0,15.8,7,26,20.4,26c4.5,0,9.3-1,12.4-2.4l-1.5-6c-2.2,1.1-5.4,1.9-9.3,1.9
		c-6.4,0-13.2-3.3-13.2-19.3h26c0.1-1.3,0.2-2.7,0.2-4.7C247.6,235.3,242.9,224.2,231.6,224.2z M221.5,245.5
		c0.4-7.1,3.2-14.9,9.1-14.9c4.3,0,8.4,4.6,8.3,14.9H221.5z"/>
	<path d="M278,224.2c-5.9,0-10.4,2.9-12.9,7.1h-0.2l-0.5-6.3h-7.8c0.1,4.1,0.5,7.3,0.5,13.4v38.4h8.9v-32.6c0-1.8,0.1-3.4,0.5-4.7
		c1-5.5,4.6-8.3,8.3-8.3c6.5,0,7.8,6.1,7.8,12.3v33.3h8.9V242C291.6,229.5,285.8,224.2,278,224.2z"/>
	<path d="M316.7,246.2c-5.6-3.5-7-5.5-7-8.9c0-3.4,2.4-6.6,7.2-6.6c3,0,5.3,1,7.5,2.3l2.3-6.2c-2.3-1.3-5.6-2.7-10-2.7
		c-8.7,0-15.4,5.9-15.4,14.3c0,5.9,3.9,10.4,11.2,14.7c5.7,3.5,7.2,6.2,7.2,10.2c0,4.6-3.2,7.5-8.2,7.5c-3.6,0-7.1-1.5-9-2.7
		l-2.2,6.2c2.4,1.8,7,3,11,3c9.3,0,16.9-5,16.9-15.4C328.3,254.8,323.2,250.1,316.7,246.2z"/>
	<path d="M348.5,212.8l-8.9,3.3v8.8h-6.8v6.2h6.8v30.1c0,7.2,1,10.7,3.4,13c2.1,2.2,5.2,3.1,8.8,3.1c2.9,0,5-0.3,6.6-0.9l-0.5-6.3
		c-0.9,0.2-2.1,0.3-3.6,0.3c-3.2,0-5.8-1.8-5.8-8.6v-30.8h10.8v-6.2h-10.8V212.8z"/>
	<path d="M396.7,242.5c0-11.6-4.8-18.3-16-18.3c-5.6,0-10.7,1.8-13.1,3.4l2,5.8c2.7-1.7,5.8-2.7,9.3-2.7c7,0,8.9,4.7,8.9,11.7v1.6
		c-12.6,0.1-23.9,5.8-23.9,18.8c0,9,5.8,14.8,13.2,14.8c4.9,0,8.8-2.3,11.2-6.3h0.4l0.6,5.5h8c-0.5-3.3-0.6-7.8-0.6-11.8V242.5z
		 M388,260.4c0,1-0.1,2.1-0.4,3c-1,5.1-4.3,7.8-8.2,7.8c-3.1,0-6.8-2.4-6.8-9.2c0-11.2,10.7-12.1,15.4-12.1h0V260.4z"/>
	<path d="M428.8,231.1c2.9,0,5.2,0.9,6.4,1.4l1.7-6.7c-1.6-0.9-4.9-1.6-7.9-1.6c-14,0-22.1,12.1-22.1,27c0,17.1,8.2,26.2,20.5,26.2
		c4,0,7.3-0.9,9.3-1.9l-1.3-6.3c-2,1-4,1.4-6.4,1.4c-8.2,0-13.2-7.3-13.2-19.4C415.8,241,419.7,231.1,428.8,231.1z"/>
	<path d="M477,225h-9.6l-11.1,18.3c-1,1.7-2,3.8-3,5.8H453v-46.3h-8.8v74.1h8.8v-19.6l3.2-4.8l12.2,24.4h10l-16.2-30L477,225z"/>
	<path d="M9.4,235.3l10.4,9.4c0.2-0.2,0.5-0.3,0.8-0.5l1.9-0.1l3.9-0.4l3.9-0.4l1.9-0.2c0.7,0.3,1.3,0.5,2,0.9l-3.4-3.4l3.5-0.4
		v-3.1c0-1.4,1.2-2.7,2.6-2.8l30.3-2.6l0.1,22.7l3.3,3.3l-2.4,0.2l9.1,9.1l14.5-1.3l-2.3-2.3l3.3-0.3l-0.1-24.5c0,0,0,0,0,0
		l-3.4-3.3l3.4-0.3l0-16.1c-0.2-1.6-1.2-2.9-2.6-3.4c-0.7-0.2-1.3-0.3-2-0.2l-2.3,0.5l-9.6,0.9l-19.1,1.6L38,220.1l-9.6,0.9
		l-4.8-0.1c-1.4,0-2.9,0.7-4,2c0.6-1.5,2-2.8,3.8-3.2l4.8-1l9.6-0.8l19.2-1.7l19.2-1.7l9.6-0.9l2.5,0.1c0.5,0,1.1,0.1,1.6,0.3
		l-8.4-8.3c-0.1-0.1-0.1-0.1-0.2-0.2c0,0-0.1-0.1-0.1-0.1c0,0-0.1-0.1-0.1-0.1c0,0-0.1-0.1-0.1-0.1c-0.1,0-0.1-0.1-0.2-0.1
		c0,0,0,0-0.1,0l0,0c-0.1-0.1-0.2-0.1-0.3-0.2c0,0,0,0,0,0c-0.1,0-0.1-0.1-0.2-0.1s-0.1,0-0.2-0.1c0,0,0,0-0.1,0c0,0,0,0-0.1,0
		c-0.1,0-0.2-0.1-0.3-0.1c0,0,0,0-0.1,0s0,0-0.1,0c-0.1,0-0.1,0-0.2,0c-0.1,0-0.1,0-0.2,0c0,0,0,0-0.1,0s0,0-0.1,0
		c-0.1,0-0.2,0-0.4,0c0,0,0,0-0.1,0h0c-0.1,0-0.2,0-0.3,0c-0.1,0-0.1,0-0.2,0l-64.2,5.5c-0.1,0-0.2,0-0.2,0s-0.1,0-0.2,0
		c0,0-0.1,0-0.1,0c-0.1,0-0.3,0-0.4,0.1c-0.2,0-0.4,0.1-0.5,0.2c-0.1,0-0.1,0.1-0.2,0.1c-0.1,0-0.2,0.1-0.3,0.1c0,0,0,0-0.1,0
		c-0.2,0.1-0.4,0.2-0.6,0.4c0,0,0,0,0,0c-0.1,0.1-0.1,0.1-0.2,0.2c0,0-0.1,0.1-0.1,0.1l0,0c0,0-0.1,0.1-0.1,0.1
		c-0.1,0-0.1,0.1-0.2,0.1c0,0-0.1,0.1-0.1,0.1l0,0c0,0-0.1,0.1-0.1,0.1c-0.1,0.1-0.1,0.1-0.2,0.2c0,0,0,0.1-0.1,0.1
		c0,0.1-0.1,0.1-0.1,0.2c0,0-0.1,0.1-0.1,0.1c0,0,0,0,0,0s0,0,0,0.1c0,0.1-0.1,0.2-0.1,0.2c0,0,0,0,0,0.1s0,0,0,0.1
		c0,0,0,0.1-0.1,0.1c0,0.1-0.1,0.2-0.1,0.2c0,0,0,0,0,0.1c0,0.1,0,0.1-0.1,0.2s0,0.1,0,0.2c0,0,0,0.1,0,0.1c0,0.1-0.1,0.2-0.1,0.2
		c0,0,0,0.1,0,0.1c0,0,0,0,0,0s0,0.1,0,0.1c0,0.1,0,0.2,0,0.4s0,0.3,0,0.4c0,0,0,0.1,0,0.1l0,16.1L12,235L9.4,235.3z M67.9,230.1
		l10.4,9.4c0.3-0.2,0.6-0.4,0.9-0.5l1.9-0.1l3.9-0.4l3.9-0.4l1.9-0.2c0.7,0.3,1.3,0.5,2,0.9c-0.6,0.5-1.2,0.8-1.8,1.2l-1.9,0.2
		l-3.9,0.4l-3.9,0.4l-1.9,0.2c-0.3-0.1-0.6-0.2-0.9-0.4l-0.2,0.2l-0.6-0.5c-0.1-0.1-0.3-0.1-0.4-0.2c0,0,0.1,0,0.1-0.1L67.2,231
		L67.9,230.1z"/>
	<path d="M12,263l-3.2,0.3l1.7,1.6l8.3,7.8l0-0.4l16.6-1.5v4.8c0,0.4,0.1,0.7,0.4,1s0.6,0.4,1,0.3l38-3.3c0.9-0.1,1.6-0.9,1.6-1.7
		v-4l-9.1-9.1v3c0,0,0,0,0,0.1c0,0.1,0,0.1,0,0.2s0,0.1,0,0.2c0,0.1,0,0.1,0,0.1c0,0,0,0.1,0,0.1s0,0.1,0,0.1s0,0.1,0,0.1v0
		c0,0,0,0.1-0.1,0.1c0,0,0,0.1-0.1,0.1s0,0.1-0.1,0.1c0,0,0,0.1-0.1,0.1c0,0-0.1,0.1-0.1,0.1c0,0-0.1,0.1-0.1,0.1
		c0,0-0.1,0.1-0.1,0.1c0,0-0.1,0.1-0.1,0.1c-0.1,0.1-0.1,0.1-0.2,0.1c0,0,0,0,0,0c-0.1,0.1-0.2,0.1-0.3,0.2c0,0,0,0-0.1,0
		c-0.2,0.1-0.4,0.2-0.5,0.2c-0.1,0-0.2,0.1-0.4,0.1c0,0-0.1,0-0.1,0l-30.4,2.7l-0.1-23.2c-0.6,0.5-1.2,0.9-1.8,1.2l-1.9,0.2
		l-3.9,0.4l-3.9,0.4l-1.9,0.2c-0.5-0.2-0.9-0.4-1.4-0.6c-0.2-0.1-0.4-0.2-0.5-0.3c0,0-0.1,0-0.1-0.1c0,0,0,0,0,0l-10.4-9.3l0.1,23.6
		L12,263z"/>
	<path d="M78.5,271.8c0,2-1.6,3.7-3.5,3.9L37,279c-0.1,0-0.2,0-0.3,0c-0.9,0-1.7-0.3-2.3-0.9c-0.7-0.6-1.1-1.6-1.1-2.6v-2.4
		L19,274.5v-0.2l-0.4-0.4l-9.9-9.3l0,15.3c0,0.1,0,0.2,0,0.4c0,0,0,0,0,0c0,0.1,0,0.1,0,0.2c0,0.1,0,0.1,0,0.2s0,0.1,0,0.2
		c0,0.1,0,0.2,0.1,0.2c0,0,0,0.1,0,0.1c0,0.1,0.1,0.2,0.1,0.2c0,0,0,0.1,0.1,0.1c0,0.1,0.1,0.2,0.1,0.2c0,0,0,0.1,0.1,0.1
		c0,0.1,0.1,0.1,0.1,0.2c0,0,0.1,0.1,0.1,0.1c0,0.1,0.1,0.1,0.2,0.2c0,0,0.1,0.1,0.1,0.1c0.1,0.1,0.2,0.2,0.3,0.3L20,293.2
		c0.9,0.9,2.2,1.5,3.7,1.3l64.2-5.6c2.7-0.2,4.9-2.6,4.9-5.3l0-15.5l-14.4,1.2V271.8z M19,291.3c0-0.1,0-0.1,0-0.2
		C19,291.2,19,291.3,19,291.3S19,291.4,19,291.3z M19.1,291.8c0,0,0-0.1,0-0.1C19.1,291.7,19.2,291.8,19.1,291.8
		C19.1,291.8,19.1,291.8,19.1,291.8z M19.3,292.1c0,0,0-0.1,0-0.1c0,0.1,0.1,0.2,0.1,0.2C19.3,292.2,19.3,292.2,19.3,292.1z
		 M19.8,292.9C19.8,292.9,19.8,292.9,19.8,292.9C19.8,292.9,19.8,292.9,19.8,292.9z"/>
	<path d="M484,224.2c-3.1,0-5.6,2.4-5.6,5.4c0,3,2.5,5.5,5.6,5.5c3.1,0,5.5-2.4,5.5-5.5C489.5,226.6,487.1,224.2,484,224.2z
		 M484,234c-2.4,0-4.2-1.9-4.2-4.3c0-2.4,1.8-4.3,4.2-4.3c2.4,0,4.2,2,4.2,4.4C488.1,232,486.3,234,484,234z"/>
	<path d="M485.2,229.8L485.2,229.8c0.6-0.3,1.1-0.7,1.1-1.4c0-0.5-0.2-0.9-0.6-1.2c-0.4-0.3-0.8-0.4-1.8-0.4c-0.9,0-1.6,0.1-2.1,0.2
		v5.4h1.3v-2.1h0.6c0.7,0,1,0.3,1.1,0.8c0.2,0.7,0.3,1.1,0.4,1.3h1.3c-0.1-0.2-0.2-0.5-0.4-1.3C486,230.4,485.7,230,485.2,229.8z
		 M483.7,229.4h-0.6v-1.6c0.1,0,0.4-0.1,0.7-0.1c0.8,0,1.2,0.3,1.2,0.8C485,229.2,484.4,229.4,483.7,229.4z"/>
</g>
</svg>
