<?xml version="1.0" standalone="no"?>
<!DOCTYPE svg PUBLIC "-//W3C//DTD SVG 20010904//EN"
 "http://www.w3.org/TR/2001/REC-SVG-20010904/DTD/svg10.dtd">
<svg version="1.0" xmlns="http://www.w3.org/2000/svg"
 width="300.000000pt" height="300.000000pt" viewBox="0 0 300.000000 300.000000"
 preserveAspectRatio="xMidYMid meet" style="background-color: #FFFFFF;">
<g transform="translate(0.000000,300.000000) scale(0.100000,-0.100000)"
fill="#C82128" stroke="none">
<path d="M1375 2904 c-102 -11 -229 -37 -320 -65 -98 -30 -259 -108 -319 -155
-17 -13 -68 -49 -113 -81 -89 -63 -209 -194 -295 -321 -112 -167 -190 -371
-217 -566 -14 -99 -14 -322 0 -423 18 -132 74 -335 98 -353 4 -3 20 -36 35
-74 16 -37 48 -93 71 -125 23 -31 46 -64 51 -74 14 -25 118 -142 184 -206 65
-63 248 -185 352 -234 203 -97 363 -131 608 -130 289 0 476 54 750 216 85 51
129 86 237 193 73 73 133 138 133 145 0 8 18 34 40 59 24 28 65 101 109 195
55 120 75 178 101 290 53 234 52 382 -6 638 -33 148 -156 422 -201 450 -7 4
-13 13 -13 18 0 18 -91 131 -162 201 -137 135 -328 259 -492 319 -165 61 -467
101 -631 83z m445 -119 c117 -29 268 -93 368 -157 37 -24 79 -49 94 -57 15 -8
79 -65 142 -127 107 -106 176 -196 227 -296 12 -24 25 -45 30 -48 23 -15 111
-289 129 -400 14 -91 12 -331 -4 -420 -21 -116 -101 -354 -125 -369 -5 -4 -25
-38 -44 -77 -20 -39 -62 -105 -95 -145 -56 -72 -238 -248 -279 -272 -170 -99
-312 -161 -453 -199 -119 -31 -133 -33 -305 -32 -196 0 -257 10 -439 73 -120
42 -295 135 -361 192 -11 10 -47 40 -80 67 -33 27 -80 75 -105 107 -25 31 -63
79 -86 106 -63 75 -169 296 -196 409 -13 52 -26 97 -29 100 -10 8 -29 177 -29
260 0 92 17 245 30 268 5 9 19 55 31 102 39 153 89 254 221 440 18 25 70 84
117 131 74 73 115 105 256 197 48 31 230 113 296 133 127 38 221 49 409 44
146 -3 192 -8 280 -30z"/>
<path d="M1382 2340 c-54 -11 -137 -59 -179 -102 -17 -18 -46 -64 -64 -102
-40 -86 -44 -182 -11 -258 22 -51 32 -57 51 -34 9 11 8 26 -5 66 -33 102 5
245 84 310 80 66 210 88 301 51 24 -10 68 -39 97 -65 47 -41 57 -56 75 -117
47 -155 -23 -303 -174 -368 -79 -34 -55 -73 28 -45 62 22 140 95 178 168 29
56 32 69 32 156 0 87 -3 100 -32 157 -69 132 -237 213 -381 183z"/>
<path d="M1547 1850 c-183 -31 -280 -243 -187 -407 35 -61 79 -97 157 -128 57
-22 59 -25 97 -103 35 -72 44 -83 80 -97 64 -26 67 -30 50 -77 -18 -52 -18
-57 4 -65 9 -3 32 -12 49 -19 l33 -13 -15 -42 c-21 -59 -20 -63 28 -81 45 -16
50 -30 33 -89 -7 -23 -4 -28 21 -37 15 -6 52 -20 81 -31 30 -11 59 -18 66 -15
7 3 25 45 40 95 l28 90 -21 50 c-30 68 -85 186 -176 374 l-77 160 18 50 c28
74 25 176 -7 239 -37 75 -45 76 -111 12 -55 -54 -114 -91 -171 -107 -82 -23
-144 67 -90 131 14 17 28 29 30 26 7 -7 84 32 110 57 39 35 22 42 -70 27z"/>
<path d="M1266 1825 c-143 -51 -207 -221 -132 -349 13 -23 33 -49 45 -60 19
-17 20 -26 14 -110 -5 -89 -5 -92 21 -115 33 -31 33 -44 -4 -74 -36 -31 -37
-37 -5 -67 32 -30 32 -42 -5 -70 -37 -28 -37 -40 -3 -80 l27 -32 -34 -28 -34
-27 21 -26 c38 -49 82 -97 89 -97 17 0 133 103 137 122 3 13 13 123 23 246
l18 223 -25 17 c-44 31 -100 96 -121 142 -12 27 -22 74 -25 120 -6 90 20 171
73 230 19 21 34 40 34 44 0 11 -74 5 -114 -9z"/>
</g>
</svg>
