<?xml version="1.0" encoding="utf-8"?>
<!-- Generator: Adobe Illustrator 19.1.0, SVG Export Plug-In . SVG Version: 6.00 Build 0)  -->
<svg version="1.1" id="Layer_1" xmlns="http://www.w3.org/2000/svg" xmlns:xlink="http://www.w3.org/1999/xlink" x="0px" y="0px"
	 width="600px" height="166px" viewBox="0 0 600 166" style="enable-background:new 0 0 600 166;" xml:space="preserve">
<style type="text/css">
	.st0{fill:#FFFFFF;}
</style>
<g>
	<g>
		<g>
			<path class="st0" d="M222.9,40.5c-1.3-0.7-2.9-1.1-4.7-1.1c-1.8,0-3.4,0.4-4.7,1.1c-1.3,0.7-2,1.8-2,3.2v83.4
				c0,1.3,0.7,2.4,2,3.2c1.3,0.8,2.9,1.2,4.7,1.2c1.8,0,3.4-0.4,4.7-1.2c1.3-0.8,2-1.9,2-3.2V43.7C224.8,42.3,224.2,41.3,222.9,40.5
				z"/>
		</g>
		<g>
			<path class="st0" d="M314.2,39.5H262c-1.4,0-2.5,0.6-3.3,1.9c-0.8,1.2-1.1,2.7-1.1,4.3c0,1.7,0.4,3.2,1.2,4.4
				c0.8,1.2,1.9,1.8,3.2,1.8h19.5v75.3c0,1.3,0.6,2.4,2,3.2c1.3,0.8,2.9,1.2,4.7,1.2c1.8,0,3.3-0.4,4.7-1.2c1.3-0.8,2-1.9,2-3.2
				V51.8h19.4c1.3,0,2.4-0.6,3.2-1.8c0.8-1.2,1.2-2.7,1.2-4.5c0-1.6-0.4-3-1.1-4.2C316.8,40.1,315.7,39.5,314.2,39.5z"/>
		</g>
		<g>
			<path class="st0" d="M402.2,51.3c1.3,0,2.4-0.6,3.2-1.8c0.8-1.2,1.2-2.6,1.2-4.3c0-1.5-0.4-2.9-1.1-4c-0.8-1.2-1.8-1.8-3.3-1.8
				h-44.8c-1.6,0-3,0.4-4.2,1.2c-1.2,0.8-1.8,1.9-1.8,3.2v83.3c0,1.3,0.6,2.4,1.8,3.2c1.2,0.8,2.6,1.2,4.2,1.2h44.8
				c1.4,0,2.5-0.6,3.3-1.8c0.8-1.2,1.1-2.5,1.1-4c0-1.7-0.4-3.1-1.2-4.3c-0.8-1.2-1.9-1.8-3.2-1.8h-37.4v-29h19.4
				c1.4,0,2.5-0.5,3.3-1.6c0.8-1,1.1-2.2,1.1-3.6c0-1.5-0.4-2.8-1.2-3.8c-0.8-1-1.9-1.6-3.2-1.6h-19.4V51.3H402.2z"/>
		</g>
		<g>
			<g>
				<path class="st0" d="M479.5,90c5.5-1.3,9.8-4,13-8.1c3.2-4.1,4.8-9.6,4.8-16.7c0-17.1-9.7-25.7-29-25.7h-23.9
					c-1.3,0-2.3,0.4-3.2,1.3c-0.8,0.8-1.3,1.8-1.3,3v83.4c0,1.3,0.6,2.4,2,3.2c1.3,0.8,2.8,1.2,4.6,1.2c1.8,0,3.4-0.4,4.7-1.2
					c1.3-0.8,2-1.9,2-3.2V91.9h12.7l18.4,36.1c1.3,2.6,3.1,3.9,5.3,3.9c1.9,0,3.8-0.7,5.5-2.2c1.7-1.4,2.6-3,2.6-4.7
					c0-0.7-0.2-1.3-0.5-1.9L479.5,90z M453.2,81.3v-30h15.1c10.4,0,15.6,5,15.6,15c0,10-5.2,15-15.6,15H453.2z"/>
			</g>
		</g>
		<g>
			<g>
				<path class="st0" d="M594.7,124.6l-24.9-81.6c-1.1-2.8-4.1-4.2-9.1-4.2c-4.9,0-7.9,1.5-9,4.5l-25,81.6c-0.1,0.2-0.1,0.6-0.1,1.1
					c0,1.5,0.9,2.8,2.6,3.9c1.8,1.1,3.6,1.6,5.7,1.6c2.5,0,4.1-0.9,4.7-2.8l5.2-18h31l5.2,18c0.6,1.8,2.3,2.7,4.9,2.7
					c2.2,0,4.3-0.6,6.2-1.7c2-1.1,2.9-2.5,2.9-4.1C594.9,125.5,594.8,125.1,594.7,124.6z M547.7,100.2L560,57l12.6,43.2H547.7z"/>
			</g>
		</g>
		<g>
			<path class="st0" d="M84.9,40c7.2,0,14.3,1.8,20.5,5.3c2.5,1.4,5.5,0.5,6.9-2c1.4-2.4,0.5-5.5-2-6.9c-7.8-4.3-16.6-6.6-25.4-6.6
				c-28.9,0-52.4,23.5-52.4,52.4c0,8.9,2.3,17.7,6.6,25.4c0.9,1.7,2.7,2.6,4.4,2.6c0.8,0,1.7-0.2,2.5-0.6c2.4-1.4,3.3-4.5,2-6.9
				c-3.5-6.3-5.3-13.4-5.3-20.5C42.7,59,61.6,40,84.9,40z"/>
		</g>
		<g>
			<path class="st0" d="M125.4,57.2c-2.5,1.2-3.6,4.2-2.4,6.8c2.8,5.8,4.2,12,4.2,18.3c0,23.3-19,42.3-42.3,42.3
				c-6.3,0-12.5-1.4-18.3-4.2c-2.5-1.2-5.5-0.2-6.8,2.4c-1.2,2.5-0.2,5.6,2.4,6.8c7.2,3.5,14.8,5.2,22.7,5.2
				c28.9,0,52.4-23.5,52.4-52.4c0-7.9-1.8-15.5-5.2-22.7C130.9,57.1,127.9,56,125.4,57.2z"/>
		</g>
		<g>
			<g>
				<path class="st0" d="M84.9,1.9C40.6,1.9,4.6,38,4.6,82.3c0,44.3,36,80.3,80.3,80.3c44.3,0,80.3-36,80.3-80.3
					C165.3,38,129.2,1.9,84.9,1.9z M84.9,152.5c-38.7,0-70.2-31.5-70.2-70.2c0-38.7,31.5-70.2,70.2-70.2c38.7,0,70.2,31.5,70.2,70.2
					C155.1,121,123.6,152.5,84.9,152.5z"/>
			</g>
		</g>
	</g>
</g>
</svg>
