<?xml version="1.0" encoding="utf-8"?>
<!-- Generator: Adobe Illustrator 18.1.1, SVG Export Plug-In . SVG Version: 6.00 Build 0)  -->
<svg version="1.1" id="Layer_1" xmlns="http://www.w3.org/2000/svg" xmlns:xlink="http://www.w3.org/1999/xlink" x="0px" y="0px"
	 viewBox="-184 0 671 148" enable-background="new -184 0 671 148" xml:space="preserve">
<g>
	<defs>
		<rect id="SVGID_1_" x="-184" width="671" height="148"/>
	</defs>
	<clipPath id="SVGID_2_">
		<use xlink:href="#SVGID_1_"  overflow="visible"/>
	</clipPath>
	<g clip-path="url(#SVGID_2_)">
		<g>
			<path fill="#6E6D6E" d="M37.5,75.2c0,28.2-13.1,37.7-24.3,37.7c-13.1,0-23.7-11.8-23.7-37.3c0-26.4,11.8-37.7,24.3-37.7
				C26.9,37.9,37.5,50,37.5,75.2z M1.1,75.2c0,12.1,2.1,28.5,12.8,28.5c10,0,12.1-17,12.1-28.5C26,64,23.8,47,13.5,47
				C3.2,47,1.1,64,1.1,75.2z"/>
			<path fill="#6E6D6E" d="M50.3,61.6c0-11.2-0.3-17.6-0.6-22.8H60l0.6,9.4l0,0c3.9-7.6,9.7-10.3,15.5-10.3c12.8,0,21,13.4,21,37.3
				c0,27-11.2,37.7-22.5,37.7c-7,0-10.9-4.3-12.8-8.5h-0.3v36.1H50V61.6H50.3z M61.5,84.9c0,2.1,0,4.3,0.6,6.1
				c2.1,10.3,7.6,12.1,10.6,12.1c9.7,0,12.8-13.4,12.8-27.9c0-14.9-3.6-27.6-13.1-27.6c-5.2,0-10,6.4-10.6,13.1
				c-0.3,1.5-0.3,3.6-0.3,5.5C61.5,66.1,61.5,84.9,61.5,84.9z"/>
			<path fill="#6E6D6E" d="M118.3,76.1c0,22.5,8.8,27,17,27c5.2,0,9.1-1.2,12.1-2.7l1.8,8.5c-3.9,2.1-10.3,3.3-16.1,3.3
				c-17.3,0-26.4-14.3-26.4-36.4c0-23.4,10-38.3,24.6-38.3c14.9,0,20.6,15.5,20.6,31.9c0,2.7,0,4.9-0.3,6.7H118.3z M141.4,67.6
				c0.3-14.6-5.2-21-10.9-21c-7.6,0-11.5,10.9-11.8,21H141.4z"/>
			<path fill="#6E6D6E" d="M164.7,57.6c0-8.5-0.3-13.1-0.6-18.8h10l0.6,8.8h0.3c3-5.8,9.1-10,16.7-10c10,0,17.6,7.3,17.6,24.9v48.9
				h-11.5V64.6c0-8.8-1.5-17.3-10-17.3c-4.9,0-9.4,3.9-10.9,11.8c-0.3,1.8-0.6,3.9-0.6,6.7v45.5h-11.5V57.6z"/>
			<path fill="#CE3428" d="M223.6,99.5c2.4,1.5,7,3.6,11.8,3.6c6.4,0,10.6-3.9,10.6-10.6c0-5.5-1.8-9.4-9.4-14.3
				c-9.4-6.1-14.6-12.4-14.6-20.6c0-11.8,8.8-20,20-20c5.8,0,10,1.8,13.1,3.6l-3,8.8c-2.7-1.8-5.8-3.3-9.7-3.3
				c-6.1,0-9.4,4.6-9.4,9.4s1.8,7.6,9.1,12.4c8.5,5.5,15.2,12.1,15.2,22.2c0,14.6-10,21.6-21.9,21.6c-5.2,0-11.2-1.5-14.3-4.3
				L223.6,99.5z"/>
			<path fill="#CE3428" d="M283.2,21.8v17h14v8.8h-14V91c0,9.4,3.3,12.1,7.6,12.1c1.8,0,3.3,0,4.6-0.3l0.6,8.8
				c-2.1,0.6-4.9,1.2-8.5,1.2c-4.6,0-8.8-1.2-11.5-4.3c-3-3.3-4.3-8.2-4.3-18.2V48.2h-8.8v-8.8h8.8V26.9L283.2,21.8z"/>
			<path fill="#CE3428" d="M345.7,95c0,5.5,0,11.8,0.6,16.4H336l-0.6-7.6h-0.6c-3,5.5-8.2,8.8-14.6,8.8c-9.7,0-17-8.2-17-20.6
				c0-18.2,14.6-26.4,31-26.4v-2.1c0-9.7-2.4-16.4-11.5-16.4c-4.6,0-8.5,1.2-12.1,3.6l-2.4-8.2c3-2.1,9.7-4.9,17-4.9
				c14.6,0,20.6,9.4,20.6,25.8V95z M334.5,73.7c-6.1,0-20,1.2-20,17c0,9.7,4.9,13.1,8.8,13.1c5.2,0,9.4-3.6,10.6-10.9
				c0.3-1.2,0.6-2.7,0.6-4.3L334.5,73.7L334.5,73.7z"/>
			<path fill="#CE3428" d="M397.6,109.8c-2.4,1.5-7,2.7-12.1,2.7c-15.8,0-26.7-12.8-26.7-36.7c0-21,10.6-38,28.8-38
				c3.9,0,8.2,0.9,10.3,2.1l-2.1,9.4c-1.5-0.6-4.6-1.8-8.2-1.8c-11.8,0-16.7,14-16.7,28.2c0,17,6.4,27.3,17,27.3
				c3,0,5.8-0.6,8.2-1.8L397.6,109.8z"/>
			<path fill="#CE3428" d="M418.9,72.5L418.9,72.5c1.5-2.7,2.7-5.8,4.3-8.2l14.6-25.8h12.4L431,69.1l21,42.2h-13.1L423.1,77
				l-4.3,6.7v27.6h-11.5V7.5h11.5V72.5z"/>
		</g>
		<g>
			<g>
				<path fill="#CECCCB" d="M469.9,106.2c0,3.3-2.7,6.1-6.1,6.1c-3.3,0-6.1-2.7-6.1-6.1c0-3.3,2.7-6.1,6.1-6.1
					C467.2,100.4,469.9,102.8,469.9,106.2z M459.3,106.2c0,2.7,2.1,4.9,4.6,4.9c2.7,0,4.6-2.1,4.6-4.9c0-2.7-1.8-4.9-4.6-4.9
					C461.1,101.6,459.3,103.8,459.3,106.2z M462.9,109.5h-1.5v-6.1c0.6,0,1.2-0.3,2.4-0.3s1.5,0.3,2.1,0.6c0.3,0.3,0.6,0.6,0.6,1.2
					c0,0.6-0.6,1.2-1.2,1.5l0,0c0.6,0.3,0.9,0.6,0.9,1.5c0.3,0.9,0.3,1.2,0.3,1.5H465c-0.3-0.3-0.3-0.6-0.6-1.5
					c0-0.6-0.6-0.9-1.2-0.9h-0.6v2.4H462.9z M462.9,106.2h0.6c0.9,0,1.5-0.3,1.5-0.9c0-0.6-0.3-0.9-1.2-0.9c-0.3,0-0.6,0-0.9,0
					V106.2z"/>
			</g>
		</g>
	</g>
	<g clip-path="url(#SVGID_2_)">
		
			<image overflow="visible" enable-background="new    " width="467" height="408" xlink:href="6AEE09B56A26FE61.png"  transform="matrix(0.3125 0 0 0.3125 -221.7478 54.3818)">
		</image>
		<g>
			<g>
				<g enable-background="new    ">
					<g enable-background="new    ">
						<g>
							<defs>
								<path id="SVGID_3_" d="M-66.6,108l-13.9-13.8c2-0.1,3.5-1.8,3.5-3.8l13.9,13.8C-63.1,106.1-64.6,107.7-66.6,108z"/>
							</defs>
							<clipPath id="SVGID_4_">
								<use xlink:href="#SVGID_3_"  overflow="visible"/>
							</clipPath>
							<g clip-path="url(#SVGID_4_)" enable-background="new    ">
								<path fill="#BB3827" d="M-66.6,108l-13.9-13.8h0.1l13.9,13.8C-66.5,108-66.5,108-66.6,108"/>
								<path fill="#BC3927" d="M-66.3,108l-13.9-13.8c0.1,0,0.4,0,0.5-0.1l13.9,13.8C-66.1,107.8-66.2,107.8-66.3,108"/>
								<path fill="#C13B28" d="M-65.8,107.8L-79.7,94c0.3-0.1,0.5-0.1,0.8-0.3l13.9,13.8C-65.4,107.6-65.6,107.7-65.8,107.8"/>
								<path fill="#BC3927" d="M-65.2,107.4l-13.9-13.8c0.1-0.1,0.3-0.1,0.5-0.3l13.9,13.8C-64.8,107.3-65,107.4-65.2,107.4"/>
								<path fill="#BB3827" d="M-64.6,107.2l-14.1-13.8c0.1-0.1,0.1-0.1,0.3-0.3l13.9,13.8C-64.5,107-64.6,107.2-64.6,107.2"/>
								<path fill="#B53627" d="M-64.4,107l-13.9-13.8c0.1,0,0.1-0.1,0.3-0.1l13.9,13.8C-64.2,106.9-64.4,106.9-64.4,107"/>
								<path fill="#B43427" d="M-64.2,106.8L-78.2,93l0.1-0.1l13.9,13.8C-64.1,106.6-64.1,106.8-64.2,106.8"/>
								<path fill="#B13126" d="M-64,106.6l-13.9-13.8l0.1-0.1l13.9,13.8C-64,106.5-64,106.5-64,106.6"/>
								<path fill="#AE3225" d="M-63.9,106.4l-14.1-13.8l0.1-0.1l13.9,13.8V106.4"/>
								<path fill="#AA3025" d="M-63.7,106.2l-13.9-13.8l0.1-0.1l13.9,13.8C-63.7,106.1-63.7,106.1-63.7,106.2"/>
								<path fill="#A72C24" d="M-63.6,106.1l-13.9-13.8l0.1-0.1l13.9,13.8C-63.6,106-63.6,106-63.6,106.1"/>
								<path fill="#A12D23" d="M-63.6,105.8l-13.9-13.8l0.1-0.1l13.9,13.8C-63.5,105.7-63.5,105.8-63.6,105.8"/>
								<path fill="#9D2E22" d="M-63.5,105.7l-13.9-13.8c0,0,0-0.1,0.1-0.1l13.9,13.8C-63.3,105.6-63.5,105.6-63.5,105.7"/>
								<path fill="#9A2E21" d="M-63.3,105.6l-13.9-13.8c0,0,0-0.1,0.1-0.1l13.9,13.8C-63.3,105.5-63.3,105.5-63.3,105.6"/>
								<path fill="#962A20" d="M-63.3,105.3l-13.9-13.8c0-0.1,0-0.1,0.1-0.1l13.9,13.8L-63.3,105.3"/>
								<path fill="#942A21" d="M-63.2,105.2l-13.9-13.8c0,0,0-0.1,0-0.3l13.9,13.8C-63.2,105.1-63.2,105.1-63.2,105.2"/>
								<path fill="#90271F" d="M-63.2,104.9l-13.9-13.8c0-0.1,0-0.1,0-0.3l13.9,13.8C-63.2,104.8-63.2,104.8-63.2,104.9"/>
								<path fill="#8D241D" d="M-63.1,104.7L-77,90.9c0-0.1,0-0.1,0-0.3l13.9,13.8C-63.1,104.5-63.1,104.7-63.1,104.7"/>
								<path fill="#8A241C" d="M-63.1,104.4L-77,90.6c0-0.1,0-0.1,0-0.3l13.9,13.8C-63.1,104.3-63.1,104.4-63.1,104.4"/>
								<path fill="#86251B" d="M-63.1,104.1L-77,90.3c0,0,0,0,0-0.1L-63.1,104.1L-63.1,104.1"/>
							</g>
						</g>
					</g>
					<g>
						<g>
							<polygon fill="#8A241C" points="-63.1,99.3 -77,85.5 -55.8,83.5 -41.9,97.4 							"/>
						</g>
						<g>
							<polygon fill="#8A241C" points="-63.1,99.3 -77,85.5 -55.8,83.5 -41.9,97.4 							"/>
						</g>
					</g>
					<g>
						<polygon fill="#8A241C" points="-63.1,104.1 -77,90.3 -77,85.5 -63.1,99.3 						"/>
					</g>
					<g>
						<polygon fill="#C23B28" points="-118.6,112.4 -132.6,98.6 -80.5,94.2 -66.6,108 						"/>
					</g>
					<g enable-background="new    ">
						<g>
							<defs>
								<path id="SVGID_5_" d="M-121.3,111.6c-0.3-0.3-0.5-0.5-0.7-0.7c-4.5-4.3-8.8-8.8-13.3-13.1c0.7,0.7,1.6,0.9,2.6,0.9
									l13.9,13.7C-119.7,112.6-120.6,112.2-121.3,111.6z"/>
							</defs>
							<clipPath id="SVGID_6_">
								<use xlink:href="#SVGID_5_"  overflow="visible"/>
							</clipPath>
							<g clip-path="url(#SVGID_6_)" enable-background="new    ">
								<path fill="#942A21" d="M-121.3,111.6l-13.9-13.9l0.1,0.1l14.1,13.9C-121.1,111.6-121.1,111.6-121.3,111.6"/>
								<path fill="#962A20" d="M-121,111.8l-14.1-13.9c0.1,0.1,0.1,0.1,0.3,0.1l13.9,13.8C-120.9,111.9-121,111.8-121,111.8"/>
								<path fill="#9A2E21" d="M-120.9,111.9l-13.9-13.8c0.1,0,0.1,0.1,0.3,0.1l13.9,13.8C-120.7,112-120.7,111.9-120.9,111.9"/>
								<path fill="#9D2E22" d="M-120.6,112l-14.1-13.8c0.1,0,0.1,0.1,0.3,0.1l13.9,13.8C-120.5,112.2-120.6,112-120.6,112"/>
								<path fill="#A12D23" d="M-120.5,112.2l-13.9-13.8c0.1,0,0.1,0.1,0.3,0.1l13.9,13.8C-120.3,112.2-120.3,112.2-120.5,112.2"/>
								<path fill="#A72C24" d="M-120.2,112.3l-13.9-13.8c0.1,0,0.1,0,0.3,0.1l13.9,13.7C-120.1,112.3-120.1,112.3-120.2,112.3"/>
								<path fill="#AA3025" d="M-120,112.3L-134,98.5c0.1,0,0.1,0,0.3,0.1l13.9,13.8L-120,112.3"/>
								<path fill="#AE3225" d="M-119.8,112.4l-13.9-13.8c0.1,0,0.1,0,0.3,0l13.9,13.8C-119.7,112.4-119.7,112.4-119.8,112.4"/>
								<path fill="#B13126" d="M-119.6,112.4l-13.9-13.8c0.1,0,0.1,0,0.3,0l13.9,13.8C-119.4,112.4-119.6,112.4-119.6,112.4"/>
								<path fill="#B43427" d="M-119.3,112.4l-14.1-13.8c0.1,0,0.1,0,0.3,0l13.9,13.8C-119.2,112.6-119.3,112.4-119.3,112.4"/>
								<path fill="#B53627" d="M-119,112.6l-14.1-13.9c0.1,0,0.1,0,0.3,0l13.9,13.8C-118.9,112.6-119,112.6-119,112.6"/>
								<path fill="#BB3827" d="M-118.8,112.6l-14.1-13.9h0.1l14.1,13.8C-118.6,112.6-118.8,112.6-118.8,112.6"/>
							</g>
						</g>
					</g>
					<g enable-background="new    ">
						<g>
							<defs>
								<path id="SVGID_7_" d="M-141.5,133.4l-14.1-13.8c-1.1-1.1-1.8-2.6-1.8-4.3l13.9,13.8C-143.3,130.8-142.7,132.3-141.5,133.4z
									"/>
							</defs>
							<clipPath id="SVGID_8_">
								<use xlink:href="#SVGID_7_"  overflow="visible"/>
							</clipPath>
							<g clip-path="url(#SVGID_8_)" enable-background="new    ">
								<path fill="#81221A" d="M-141.5,133.4l-14.1-13.8c-1.1-0.9-1.7-2.4-1.7-3.8l13.9,13.8C-143.2,131.1-142.6,132.4-141.5,133.4
									"/>
								<path fill="#86251B" d="M-143.3,129.5l-13.9-13.8c0-0.1,0-0.4,0-0.5l13.9,13.8C-143.3,129.2-143.3,129.4-143.3,129.5"/>
							</g>
						</g>
					</g>
					<g>
						<path fill="#D53E27" d="M-41.9,97.4v22.7c0,3.7-3,7-6.7,7.2l-87.9,7.8c-3.7,0.3-6.7-2.4-6.7-6.2v-22.7l21.2-1.8v4.9
							c0,2,1.6,3.4,3.5,3.2l52-4.6c2-0.1,3.5-1.8,3.5-3.8v-4.9L-41.9,97.4z"/>
					</g>
					<g>
						<g>
							<polygon fill="#8A241C" points="-143.3,106.2 -157.3,92.4 -136.1,90.6 -122.2,104.4 							"/>
						</g>
						<g>
							<polygon fill="#8A241C" points="-143.3,106.2 -157.3,92.4 -136.1,90.6 -122.2,104.4 							"/>
						</g>
					</g>
					<g>
						<polygon fill="#8A241C" points="-143.3,129 -157.3,115.2 -157.3,92.4 -143.3,106.2 						"/>
					</g>
				</g>
				<g enable-background="new    ">
					<g>
						<g>
							<polygon fill="#E3574F" points="-42,58.9 -41.9,92.4 -63.1,94.3 -63.2,60.8 							"/>
						</g>
						<polygon fill="#E0493A" points="-42,58.9 -41.9,92.4 -63.1,94.3 -63.2,60.8 						"/>
					</g>
					<g>
						<polygon fill="#8A241C" points="-63.1,94.3 -77,80.5 -77.1,47 -63.2,60.8 						"/>
					</g>
					<g>
						<g>
							<polygon fill="#8A241C" points="-63.2,60.8 -77.1,47 -56,45.1 -42,58.9 							"/>
						</g>
						<g>
							<polygon fill="#8A241C" points="-63.2,60.8 -77.1,47 -56,45.1 -42,58.9 							"/>
						</g>
					</g>
				</g>
				<g enable-background="new    ">
					<g>
						<g>
							<polygon fill="#E3574F" points="-122.3,66 -122.2,99.5 -143.2,101.4 -143.3,67.9 							"/>
						</g>
						<g>
							<polygon fill="#E0493A" points="-122.3,66 -122.2,99.5 -143.2,101.4 -143.3,67.9 							"/>
						</g>
					</g>
					<g>
						<polygon fill="#8A241C" points="-143.2,101.4 -157.3,87.6 -157.4,54.1 -143.3,67.9 						"/>
					</g>
					<g>
						<polygon fill="#8A241C" points="-143.3,67.9 -157.4,54.1 -136.2,52.2 -122.3,66 						"/>
					</g>
				</g>
			</g>
			<g>
				<g enable-background="new    ">
					<g>
						<polygon fill="#8A241C" points="-63.1,55.8 -77,42 -77,37.8 -63.1,51.6 						"/>
					</g>
					<g enable-background="new    ">
						<g>
							<defs>
								<path id="SVGID_9_" d="M-77.9,35.6c4.6,4.6,9.3,9.2,13.9,13.8c0.5,0.5,0.9,1.4,0.9,2.4L-77,37.9
									C-77,36.9-77.4,36.1-77.9,35.6z"/>
							</defs>
							<clipPath id="SVGID_10_">
								<use xlink:href="#SVGID_9_"  overflow="visible"/>
							</clipPath>
							<g clip-path="url(#SVGID_10_)" enable-background="new    ">
								<path fill="#86251B" d="M-63.1,51.6L-77,37.8c0-0.1,0-0.1,0-0.3l13.9,13.8C-63.1,51.5-63.1,51.6-63.1,51.6"/>
								<path fill="#81221A" d="M-63.1,51.3L-77,37.5c0-0.8-0.4-1.6-0.9-2L-64,49.4C-63.5,49.9-63.2,50.5-63.1,51.3"/>
							</g>
						</g>
					</g>
					<g enable-background="new    ">
						<g>
							<defs>
								<path id="SVGID_11_" d="M-57.7,13.7c0.9,0.9,1.8,1.8,2.8,2.8c3.7,3.7,7.5,7.4,11.2,11c-1.2-1.2-3-1.8-4.9-1.7L-62.5,12
									C-60.6,11.8-58.9,12.4-57.7,13.7z"/>
							</defs>
							<clipPath id="SVGID_12_">
								<use xlink:href="#SVGID_11_"  overflow="visible"/>
							</clipPath>
							<g clip-path="url(#SVGID_12_)" enable-background="new    ">
								<path fill="#BB3827" d="M-48.6,25.8L-62.5,12c0.1,0,0.1,0,0.3,0l13.9,13.8C-48.3,25.8-48.5,25.8-48.6,25.8"/>
								<path fill="#B53627" d="M-48.3,25.8L-62.3,12c0.1,0,0.4,0,0.5,0l14.1,13.8C-48,25.8-48.1,25.8-48.3,25.8"/>
								<path fill="#B43427" d="M-47.7,25.8L-61.6,12c0.1,0,0.3,0,0.5,0l13.9,13.8C-47.4,25.8-47.6,25.8-47.7,25.8"/>
								<path fill="#B13126" d="M-47.3,25.8L-61.2,12c0.1,0,0.3,0,0.4,0l13.9,13.8C-46.9,25.8-47.2,25.8-47.3,25.8"/>
								<path fill="#AE3225" d="M-46.8,26L-60.8,12c0.1,0,0.3,0,0.4,0.1L-46.4,26C-46.5,26-46.6,26-46.8,26"/>
								<path fill="#AA3025" d="M-46.4,26l-13.9-13.8c0.1,0,0.3,0.1,0.4,0.1L-46,26.1C-46.1,26.1-46.2,26-46.4,26"/>
								<path fill="#A72C24" d="M-46,26.1l-13.9-13.8c0.1,0,0.3,0.1,0.4,0.1l13.9,13.8C-45.7,26.2-45.8,26.1-46,26.1"/>
								<path fill="#A12D23" d="M-45.6,26.2l-13.9-13.8c0.1,0,0.3,0.1,0.4,0.1l13.9,13.8C-45.3,26.4-45.5,26.4-45.6,26.2"/>
								<path fill="#9D2E22" d="M-45.2,26.5l-13.9-13.8c0.1,0.1,0.3,0.1,0.4,0.3l13.9,13.8C-44.9,26.6-45.1,26.5-45.2,26.5"/>
								<path fill="#9A2E21" d="M-44.8,26.6l-13.9-13.8c0.1,0.1,0.3,0.1,0.4,0.3l13.9,13.8C-44.5,26.9-44.7,26.8-44.8,26.6"/>
								<path fill="#962A20" d="M-44.4,26.9l-13.9-13.8c0.1,0.1,0.3,0.3,0.4,0.4L-44,27.3C-44,27.1-44.3,27-44.4,26.9"/>
								<path fill="#942A21" d="M-43.9,27.3l-13.9-13.8c0.1,0.1,0.1,0.1,0.3,0.3l13.9,13.8C-43.7,27.4-43.9,27.4-43.9,27.3"/>
							</g>
						</g>
					</g>
					<g>
						<polygon fill="#8A241C" points="-143.3,62.9 -157.3,49 -157.1,26.9 -143.2,40.7 						"/>
					</g>
					<g>
						<polygon fill="#C23B28" points="-136.5,33.5 -150.4,19.7 -62.5,12 -48.6,25.8 						"/>
					</g>
					<g>
						<g>
							<path fill="#E3574F" d="M-136.5,33.5l87.9-7.6c3.7-0.3,6.7,2.4,6.7,6.2l0,21.9l-21.2,1.8v-4.2c0-2-1.6-3.4-3.5-3.2l-52,4.6
								c-2,0.1-3.5,1.8-3.5,3.8V61l-21.2,1.8V40.8C-143.2,37-140.2,33.8-136.5,33.5z"/>
						</g>
						<g>
							<path fill="#E3574F" d="M-136.5,33.5l87.9-7.6c3.7-0.3,6.7,2.4,6.7,6.2l0,21.9l-21.2,1.8v-4.2c0-2-1.6-3.4-3.5-3.2l-52,4.6
								c-2,0.1-3.5,1.8-3.5,3.8V61l-21.2,1.8V40.8C-143.2,37-140.2,33.8-136.5,33.5z"/>
						</g>
					</g>
					<g enable-background="new    ">
						<g>
							<defs>
								<path id="SVGID_13_" d="M-143.2,40.7l-13.9-13.8c0-3.7,3-7,6.7-7.2l13.9,13.8C-140.2,33.8-143.2,37-143.2,40.7z"/>
							</defs>
							<clipPath id="SVGID_14_">
								<use xlink:href="#SVGID_13_"  overflow="visible"/>
							</clipPath>
							<g clip-path="url(#SVGID_14_)" enable-background="new    ">
								<path fill="#86251B" d="M-143.2,40.7l-13.9-13.8v-0.1l13.9,13.8C-143.2,40.7-143.2,40.7-143.2,40.7"/>
								<path fill="#8A241C" d="M-143.2,40.5l-13.9-13.8c0-0.1,0-0.4,0-0.5l13.9,13.8C-143.2,40.3-143.2,40.4-143.2,40.5"/>
								<path fill="#8D241D" d="M-143.2,40l-13.9-13.8c0-0.1,0-0.3,0-0.5l13.9,13.8C-143.2,39.8-143.2,39.9-143.2,40"/>
								<path fill="#90271F" d="M-143.1,39.6l-14.1-13.9c0-0.1,0-0.3,0.1-0.4l13.9,13.8C-143.1,39.2-143.1,39.5-143.1,39.6"/>
								<path fill="#942A21" d="M-143.1,39.1L-157,25.3c0-0.1,0-0.3,0.1-0.4l13.9,13.8C-142.9,38.8-142.9,39-143.1,39.1"/>
								<path fill="#962A20" d="M-142.9,38.7l-13.9-13.8c0-0.1,0.1-0.3,0.1-0.4l13.9,13.8C-142.8,38.6-142.9,38.6-142.9,38.7"/>
								<path fill="#9A2E21" d="M-142.8,38.4l-13.9-13.9c0-0.1,0.1-0.3,0.1-0.4l13.9,13.8C-142.7,38.2-142.8,38.3-142.8,38.4"/>
								<path fill="#9D2E22" d="M-142.7,38.1l-13.9-13.8c0-0.1,0.1-0.3,0.1-0.4l13.9,13.8C-142.6,37.8-142.7,37.9-142.7,38.1"/>
								<path fill="#A12D23" d="M-142.6,37.7l-13.9-13.8c0-0.1,0.1-0.3,0.1-0.4l14.1,13.9C-142.4,37.4-142.4,37.5-142.6,37.7"/>
								<path fill="#A72C24" d="M-142.3,37.4l-14.1-13.9c0-0.1,0.1-0.3,0.1-0.4l13.9,13.8C-142.2,37.1-142.3,37.3-142.3,37.4"/>
								<path fill="#AA3025" d="M-142.2,37l-13.9-13.8c0.1-0.1,0.1-0.3,0.3-0.4l13.9,13.8C-142,36.7-142,36.9-142.2,37"/>
								<path fill="#AE3225" d="M-141.9,36.7L-156,22.8c0.1-0.1,0.1-0.3,0.3-0.4l13.9,13.8C-141.8,36.5-141.9,36.6-141.9,36.7"/>
								<path fill="#B13126" d="M-141.6,36.3l-14.1-13.8c0.1-0.1,0.1-0.3,0.3-0.4l13.9,13.8C-141.5,36.1-141.6,36.2-141.6,36.3"/>
								<path fill="#B43427" d="M-141.4,35.9l-14.1-13.8c0.1-0.1,0.3-0.3,0.3-0.4l13.9,13.8C-141.2,35.8-141.2,35.8-141.4,35.9"/>
								<path fill="#B53627" d="M-141.1,35.7L-155,21.9c0.1-0.1,0.3-0.3,0.4-0.4l13.9,13.8C-140.8,35.4-141,35.6-141.1,35.7"/>
								<path fill="#BB3827" d="M-140.7,35.3l-13.9-13.8c0.1-0.1,0.4-0.3,0.5-0.4l13.9,13.8C-140.3,35-140.5,35.2-140.7,35.3"/>
								<path fill="#BC3927" d="M-140.2,34.9l-13.9-13.8c0.3-0.3,0.5-0.4,0.9-0.5l13.9,13.8C-139.5,34.5-139.9,34.6-140.2,34.9"/>
								<path fill="#C13B28" d="M-139.3,34.4l-14.1-13.9c0.4-0.3,0.9-0.4,1.4-0.7l13.9,13.8C-138.4,33.8-138.9,34.1-139.3,34.4"/>
								<path fill="#BC3927" d="M-137.8,33.7l-14.1-13.8c0.3-0.1,0.7-0.1,1.1-0.3l13.9,13.8C-137.2,33.6-137.6,33.6-137.8,33.7"/>
								<path fill="#BB3827" d="M-136.9,33.5l-13.9-13.8c0.1,0,0.3,0,0.4,0l13.9,13.8C-136.6,33.5-136.8,33.5-136.9,33.5"/>
							</g>
						</g>
					</g>
				</g>
			</g>
		</g>
	</g>
</g>
</svg>
