<?xml version="1.0" encoding="utf-8"?>
<!-- Generator: Adobe Illustrator 18.1.1, SVG Export Plug-In . SVG Version: 6.00 Build 0)  -->
<svg version="1.1" id="Layer_1" xmlns="http://www.w3.org/2000/svg" xmlns:xlink="http://www.w3.org/1999/xlink" x="0px" y="0px"
	 viewBox="0 0 216 216" enable-background="new 0 0 216 216" xml:space="preserve">
<g>
	<g>
		<g>
			
				<image overflow="visible" width="464" height="403" xlink:href="6AEE09B56A26FE61.png"  transform="matrix(0.24 0 0 0.24 6.3877 55.4917)">
			</image>
		</g>
		<g>
			
				<image overflow="visible" width="351" height="350" xlink:href="6AEE09B56A26FE63.png"  transform="matrix(0.24 0 0 0.24 19.8125 68.2031)">
			</image>
		</g>
		<g>
			<g>
				<g enable-background="new    ">
					<g enable-background="new    ">
						<defs>
							<path id="SVGID_1_" enable-background="new    " d="M124.6,96.1L114,85.6c1.5-0.1,2.7-1.4,2.7-2.9l10.6,10.5
								C127.3,94.7,126.1,95.9,124.6,96.1z"/>
						</defs>
						<clipPath id="SVGID_2_">
							<use xlink:href="#SVGID_1_"  overflow="visible"/>
						</clipPath>
						<g clip-path="url(#SVGID_2_)" enable-background="new    ">
							<path fill="#BB3727" d="M124.6,96.1L114,85.6c0,0,0.1,0,0.1,0l10.6,10.5C124.7,96.1,124.7,96.1,124.6,96.1"/>
							<path fill="#BD3827" d="M124.8,96.1l-10.6-10.5c0.1,0,0.3,0,0.4-0.1L125.2,96C125,96,124.9,96,124.8,96.1"/>
							<path fill="#C23A28" d="M125.2,96l-10.6-10.5c0.2-0.1,0.4-0.1,0.6-0.2l10.6,10.5C125.5,95.8,125.4,95.9,125.2,96"/>
							<path fill="#BD3827" d="M125.7,95.7l-10.6-10.5c0.1-0.1,0.2-0.1,0.4-0.2l10.6,10.5C126,95.6,125.8,95.7,125.7,95.7"/>
							<path fill="#BB3727" d="M126.1,95.5L115.4,85c0.1-0.1,0.1-0.1,0.2-0.2l10.6,10.5C126.2,95.4,126.1,95.5,126.1,95.5"/>
							<path fill="#B63527" d="M126.3,95.4l-10.6-10.5c0.1,0,0.1-0.1,0.2-0.1l10.6,10.5C126.4,95.3,126.3,95.3,126.3,95.4"/>
							<path fill="#B43327" d="M126.4,95.2l-10.6-10.5c0,0,0.1-0.1,0.1-0.1l10.6,10.5C126.5,95.1,126.5,95.2,126.4,95.2"/>
							<path fill="#B13126" d="M126.6,95.1l-10.6-10.5c0,0,0.1-0.1,0.1-0.1l10.6,10.5C126.6,95,126.6,95,126.6,95.1"/>
							<path fill="#AE3125" d="M126.7,94.9L116,84.4c0,0,0.1-0.1,0.1-0.1l10.6,10.5C126.7,94.8,126.7,94.9,126.7,94.9"/>
							<path fill="#AA3025" d="M126.8,94.8l-10.6-10.5c0,0,0.1-0.1,0.1-0.1l10.6,10.5C126.8,94.7,126.8,94.7,126.8,94.8"/>
							<path fill="#A72D24" d="M126.9,94.7l-10.6-10.5c0,0,0.1-0.1,0.1-0.1l10.6,10.5C126.9,94.6,126.9,94.6,126.9,94.7"/>
							<path fill="#A22C23" d="M126.9,94.5L116.3,84c0,0,0.1-0.1,0.1-0.1L127,94.4C127,94.4,127,94.5,126.9,94.5"/>
							<path fill="#9D2C22" d="M127,94.4l-10.6-10.5c0,0,0-0.1,0.1-0.1l10.6,10.5C127.1,94.3,127,94.3,127,94.4"/>
							<path fill="#9A2C21" d="M127.1,94.3l-10.6-10.5c0,0,0-0.1,0.1-0.1l10.6,10.5C127.1,94.2,127.1,94.2,127.1,94.3"/>
							<path fill="#972920" d="M127.1,94.1l-10.6-10.5c0-0.1,0-0.1,0.1-0.1L127.2,94C127.2,94,127.1,94.1,127.1,94.1"/>
							<path fill="#942820" d="M127.2,94l-10.6-10.5c0,0,0-0.1,0-0.2l10.6,10.5C127.2,93.9,127.2,93.9,127.2,94"/>
							<path fill="#90261E" d="M127.2,93.8l-10.6-10.5c0-0.1,0-0.1,0-0.2l10.6,10.5C127.2,93.7,127.2,93.7,127.2,93.8"/>
							<path fill="#8D241D" d="M127.3,93.6l-10.6-10.5c0-0.1,0-0.1,0-0.2l10.6,10.5C127.3,93.5,127.3,93.6,127.3,93.6"/>
							<path fill="#8A241C" d="M127.3,93.4l-10.6-10.5c0-0.1,0-0.1,0-0.2l10.6,10.5C127.3,93.3,127.3,93.4,127.3,93.4"/>
							<path fill="#87241B" d="M127.3,93.2l-10.6-10.5c0,0,0,0,0-0.1L127.3,93.2C127.3,93.2,127.3,93.2,127.3,93.2"/>
						</g>
					</g>
					<g>
						<g>
							<polygon fill="#8A241C" points="127.3,89.5 116.7,79 132.8,77.5 143.4,88.1 							"/>
						</g>
						<g>
							<polygon fill="#8A241C" points="127.3,89.5 116.7,79 132.8,77.5 143.4,88.1 							"/>
						</g>
					</g>
					<g>
						<polygon fill="#8A241C" points="127.3,93.2 116.7,82.7 116.7,79 127.3,89.5 						"/>
					</g>
					<g>
						<polygon fill="#C33A28" points="85,99.5 74.4,89 114,85.6 124.6,96.1 						"/>
					</g>
					<g enable-background="new    ">
						<defs>
							<path id="SVGID_3_" enable-background="new    " d="M83,98.9c-0.2-0.2-0.4-0.4-0.5-0.5c-3.4-3.3-6.7-6.7-10.1-10
								c0.5,0.5,1.2,0.7,2,0.7L85,99.5C84.2,99.6,83.5,99.3,83,98.9z"/>
						</defs>
						<clipPath id="SVGID_4_">
							<use xlink:href="#SVGID_3_"  overflow="visible"/>
						</clipPath>
						<g clip-path="url(#SVGID_4_)" enable-background="new    ">
							<path fill="#942820" d="M83,98.9L72.4,88.3c0,0,0.1,0.1,0.1,0.1L83.2,99C83.1,98.9,83.1,98.9,83,98.9"/>
							<path fill="#972920" d="M83.2,99L72.5,88.4c0.1,0.1,0.1,0.1,0.2,0.1l10.6,10.5C83.3,99.1,83.2,99,83.2,99"/>
							<path fill="#9A2C21" d="M83.3,99.1L72.7,88.6c0.1,0,0.1,0.1,0.2,0.1l10.6,10.5C83.4,99.2,83.4,99.1,83.3,99.1"/>
							<path fill="#9D2C22" d="M83.5,99.2L72.8,88.7c0.1,0,0.1,0.1,0.2,0.1l10.6,10.5C83.6,99.3,83.5,99.2,83.5,99.2"/>
							<path fill="#A22C23" d="M83.6,99.3L73,88.8c0.1,0,0.1,0.1,0.2,0.1l10.6,10.5C83.7,99.3,83.7,99.3,83.6,99.3"/>
							<path fill="#A72D24" d="M83.8,99.4L73.2,88.9c0.1,0,0.1,0,0.2,0.1L84,99.4C83.9,99.4,83.9,99.4,83.8,99.4"/>
							<path fill="#AA3025" d="M84,99.4L73.3,88.9c0.1,0,0.1,0,0.2,0.1l10.6,10.5C84.1,99.5,84,99.4,84,99.4"/>
							<path fill="#AE3125" d="M84.1,99.5L73.5,89c0.1,0,0.1,0,0.2,0l10.6,10.5C84.2,99.5,84.2,99.5,84.1,99.5"/>
							<path fill="#B13126" d="M84.3,99.5L73.7,89c0.1,0,0.1,0,0.2,0l10.6,10.5C84.4,99.5,84.3,99.5,84.3,99.5"/>
							<path fill="#B43327" d="M84.5,99.5L73.8,89c0.1,0,0.1,0,0.2,0l10.6,10.5C84.6,99.6,84.5,99.5,84.5,99.5"/>
							<path fill="#B63527" d="M84.7,99.6L74,89c0.1,0,0.1,0,0.2,0l10.6,10.5C84.8,99.6,84.7,99.6,84.7,99.6"/>
							<path fill="#BB3727" d="M84.9,99.6L74.2,89c0,0,0.1,0,0.1,0L85,99.5C85,99.6,84.9,99.6,84.9,99.6"/>
						</g>
					</g>
					<g enable-background="new    ">
						<defs>
							<path id="SVGID_5_" enable-background="new    " d="M67.6,115.5L56.9,105c-0.8-0.8-1.4-2-1.4-3.3l10.6,10.5
								C66.2,113.5,66.7,114.6,67.6,115.5z"/>
						</defs>
						<clipPath id="SVGID_6_">
							<use xlink:href="#SVGID_5_"  overflow="visible"/>
						</clipPath>
						<g clip-path="url(#SVGID_6_)" enable-background="new    ">
							<path fill="#82211A" d="M67.6,115.5L56.9,105c-0.8-0.7-1.3-1.8-1.3-2.9l10.6,10.5C66.3,113.7,66.8,114.7,67.6,115.5"/>
							<path fill="#87241B" d="M66.2,112.5L55.6,102c0-0.1,0-0.3,0-0.4l10.6,10.5C66.2,112.3,66.2,112.4,66.2,112.5"/>
						</g>
					</g>
					<g>
						<path fill="#D73D27" d="M143.4,88.1l0,17.3c0,2.8-2.3,5.3-5.1,5.5l-66.9,5.9c-2.8,0.2-5.1-1.8-5.1-4.7l0-17.3l16.1-1.4l0,3.7
							c0,1.5,1.2,2.6,2.7,2.4l39.6-3.5c1.5-0.1,2.7-1.4,2.7-2.9l0-3.7L143.4,88.1z"/>
					</g>
					<g>
						<g>
							<polygon fill="#8A241C" points="66.2,94.8 55.6,84.3 71.7,82.9 82.3,93.4 							"/>
						</g>
						<g>
							<polygon fill="#8A241C" points="66.2,94.8 55.6,84.3 71.7,82.9 82.3,93.4 							"/>
						</g>
					</g>
					<g>
						<polygon fill="#8A241C" points="66.2,112.1 55.6,101.6 55.6,84.3 66.2,94.8 						"/>
					</g>
				</g>
				<g enable-background="new    ">
					<g>
						<g>
							<polygon fill="#E5574F" points="143.3,58.8 143.4,84.3 127.3,85.7 127.2,60.2 							"/>
						</g>
						<g>
							<polygon fill="#E1493B" points="143.3,58.8 143.4,84.3 127.3,85.7 127.2,60.2 							"/>
						</g>
					</g>
					<g>
						<polygon fill="#8A241C" points="127.3,85.7 116.7,75.2 116.6,49.7 127.2,60.2 						"/>
					</g>
					<g>
						<g>
							<polygon fill="#8A241C" points="127.2,60.2 116.6,49.7 132.7,48.3 143.3,58.8 							"/>
						</g>
						<g>
							<polygon fill="#8A241C" points="127.2,60.2 116.6,49.7 132.7,48.3 143.3,58.8 							"/>
						</g>
					</g>
				</g>
				<g enable-background="new    ">
					<g>
						<g>
							<polygon fill="#E5574F" points="82.2,64.2 82.3,89.7 66.3,91.1 66.2,65.6 							"/>
						</g>
						<g>
							<polygon fill="#E1493B" points="82.2,64.2 82.3,89.7 66.3,91.1 66.2,65.6 							"/>
						</g>
					</g>
					<g>
						<polygon fill="#8A241C" points="66.3,91.1 55.6,80.6 55.5,55.1 66.2,65.6 						"/>
					</g>
					<g>
						<polygon fill="#8A241C" points="66.2,65.6 55.5,55.1 71.6,53.7 82.2,64.2 						"/>
					</g>
				</g>
			</g>
			<g>
				<g enable-background="new    ">
					<g>
						<polygon fill="#8A241C" points="127.3,56.4 116.7,45.9 116.7,42.7 127.3,53.2 						"/>
					</g>
					<g enable-background="new    ">
						<defs>
							<path id="SVGID_7_" enable-background="new    " d="M116,41c3.5,3.5,7.1,7,10.6,10.5c0.4,0.4,0.7,1.1,0.7,1.8l-10.6-10.5
								C116.7,42,116.4,41.4,116,41z"/>
						</defs>
						<clipPath id="SVGID_8_">
							<use xlink:href="#SVGID_7_"  overflow="visible"/>
						</clipPath>
						<g clip-path="url(#SVGID_8_)" enable-background="new    ">
							<path fill="#87241B" d="M127.3,53.2l-10.6-10.5c0-0.1,0-0.1,0-0.2L127.3,53C127.3,53.1,127.3,53.2,127.3,53.2"/>
							<path fill="#82211A" d="M127.3,53l-10.6-10.5c0-0.6-0.3-1.2-0.7-1.5l10.6,10.5C127,51.9,127.2,52.4,127.3,53"/>
						</g>
					</g>
					<g enable-background="new    ">
						<defs>
							<path id="SVGID_9_" enable-background="new    " d="M131.4,24.4c0.7,0.7,1.4,1.4,2.1,2.1c2.8,2.8,5.7,5.6,8.5,8.4
								c-0.9-0.9-2.3-1.4-3.7-1.3l-10.6-10.5C129.2,22.9,130.5,23.4,131.4,24.4z"/>
						</defs>
						<clipPath id="SVGID_10_">
							<use xlink:href="#SVGID_9_"  overflow="visible"/>
						</clipPath>
						<g clip-path="url(#SVGID_10_)" enable-background="new    ">
							<path fill="#BB3727" d="M138.3,33.6l-10.6-10.5c0.1,0,0.1,0,0.2,0l10.6,10.5C138.5,33.6,138.4,33.6,138.3,33.6"/>
							<path fill="#B63527" d="M138.5,33.6l-10.6-10.5c0.1,0,0.3,0,0.4,0L139,33.6C138.8,33.6,138.7,33.6,138.5,33.6"/>
							<path fill="#B43327" d="M139,33.6l-10.6-10.5c0.1,0,0.2,0,0.4,0l10.6,10.5C139.2,33.6,139.1,33.6,139,33.6"/>
							<path fill="#B13126" d="M139.3,33.6l-10.6-10.5c0.1,0,0.2,0,0.3,0l10.6,10.5C139.6,33.6,139.4,33.6,139.3,33.6"/>
							<path fill="#AE3125" d="M139.7,33.7L129,23.1c0.1,0,0.2,0,0.3,0.1L140,33.7C139.9,33.7,139.8,33.7,139.7,33.7"/>
							<path fill="#AA3025" d="M140,33.7l-10.6-10.5c0.1,0,0.2,0.1,0.3,0.1l10.6,10.5C140.2,33.8,140.1,33.7,140,33.7"/>
							<path fill="#A72D24" d="M140.3,33.8l-10.6-10.5c0.1,0,0.2,0.1,0.3,0.1l10.6,10.5C140.5,33.9,140.4,33.8,140.3,33.8"/>
							<path fill="#A22C23" d="M140.6,33.9L130,23.4c0.1,0,0.2,0.1,0.3,0.1l10.6,10.5C140.8,34,140.7,34,140.6,33.9"/>
							<path fill="#9D2C22" d="M140.9,34.1l-10.6-10.5c0.1,0.1,0.2,0.1,0.3,0.2l10.6,10.5C141.1,34.2,141,34.1,140.9,34.1"/>
							<path fill="#9A2C21" d="M141.2,34.2l-10.6-10.5c0.1,0.1,0.2,0.1,0.3,0.2l10.6,10.5C141.4,34.4,141.3,34.3,141.2,34.2"/>
							<path fill="#972920" d="M141.5,34.4l-10.6-10.5c0.1,0.1,0.2,0.2,0.3,0.3l10.6,10.5C141.8,34.6,141.6,34.5,141.5,34.4"/>
							<path fill="#942820" d="M141.9,34.7l-10.6-10.5c0.1,0.1,0.1,0.1,0.2,0.2l10.6,10.5C142,34.8,141.9,34.8,141.9,34.7"/>
						</g>
					</g>
					<g>
						<polygon fill="#8A241C" points="66.2,61.8 55.6,51.2 55.7,34.4 66.3,44.9 						"/>
					</g>
					<g>
						<polygon fill="#C33A28" points="71.4,39.4 60.8,28.9 127.7,23.1 138.3,33.6 						"/>
					</g>
					<g>
						<g>
							<path fill="#E5574F" d="M71.4,39.4l66.9-5.8c2.8-0.2,5.1,1.8,5.1,4.7L143.4,55l-16.1,1.4l0-3.2c0-1.5-1.2-2.6-2.7-2.4
								L85,54.3c-1.5,0.1-2.7,1.4-2.7,2.9l0,3.2l-16.1,1.4l0-16.8C66.3,42.1,68.6,39.7,71.4,39.4z"/>
						</g>
						<g>
							<path fill="#E5574F" d="M71.4,39.4l66.9-5.8c2.8-0.2,5.1,1.8,5.1,4.7L143.4,55l-16.1,1.4l0-3.2c0-1.5-1.2-2.6-2.7-2.4
								L85,54.3c-1.5,0.1-2.7,1.4-2.7,2.9l0,3.2l-16.1,1.4l0-16.8C66.3,42.1,68.6,39.7,71.4,39.4z"/>
						</g>
					</g>
					<g enable-background="new    ">
						<defs>
							<path id="SVGID_11_" enable-background="new    " d="M66.3,44.9L55.7,34.4c0-2.8,2.3-5.3,5.1-5.5l10.6,10.5
								C68.6,39.7,66.3,42.1,66.3,44.9z"/>
						</defs>
						<clipPath id="SVGID_12_">
							<use xlink:href="#SVGID_11_"  overflow="visible"/>
						</clipPath>
						<g clip-path="url(#SVGID_12_)" enable-background="new    ">
							<path fill="#87241B" d="M66.3,44.9L55.7,34.4c0,0,0-0.1,0-0.1l10.6,10.5C66.3,44.9,66.3,44.9,66.3,44.9"/>
							<path fill="#8A241C" d="M66.3,44.8L55.7,34.3c0-0.1,0-0.3,0-0.4l10.6,10.5C66.3,44.6,66.3,44.7,66.3,44.8"/>
							<path fill="#8D241D" d="M66.3,44.4L55.7,33.9c0-0.1,0-0.2,0-0.4l10.6,10.5C66.3,44.2,66.3,44.3,66.3,44.4"/>
							<path fill="#90261E" d="M66.4,44.1L55.7,33.5c0-0.1,0-0.2,0.1-0.3l10.6,10.5C66.4,43.8,66.4,44,66.4,44.1"/>
							<path fill="#942820" d="M66.4,43.7L55.8,33.2c0-0.1,0-0.2,0.1-0.3l10.6,10.5C66.5,43.5,66.5,43.6,66.4,43.7"/>
							<path fill="#972920" d="M66.5,43.4L55.9,32.9c0-0.1,0.1-0.2,0.1-0.3l10.6,10.5C66.6,43.3,66.5,43.3,66.5,43.4"/>
							<path fill="#9A2C21" d="M66.6,43.2L56,32.6c0-0.1,0.1-0.2,0.1-0.3l10.6,10.5C66.7,43,66.6,43.1,66.6,43.2"/>
							<path fill="#9D2C22" d="M66.7,42.9L56.1,32.4c0-0.1,0.1-0.2,0.1-0.3l10.6,10.5C66.8,42.7,66.7,42.8,66.7,42.9"/>
							<path fill="#A22C23" d="M66.8,42.6L56.2,32.1c0-0.1,0.1-0.2,0.1-0.3L67,42.4C66.9,42.4,66.9,42.5,66.8,42.6"/>
							<path fill="#A72D24" d="M67,42.4L56.3,31.8c0-0.1,0.1-0.2,0.1-0.3l10.6,10.5C67.1,42.2,67,42.3,67,42.4"/>
							<path fill="#AA3025" d="M67.1,42.1L56.5,31.6c0.1-0.1,0.1-0.2,0.2-0.3l10.6,10.5C67.2,41.9,67.2,42,67.1,42.1"/>
							<path fill="#AE3125" d="M67.3,41.9L56.6,31.3c0.1-0.1,0.1-0.2,0.2-0.3l10.6,10.5C67.4,41.7,67.3,41.8,67.3,41.9"/>
							<path fill="#B13126" d="M67.5,41.6L56.8,31.1c0.1-0.1,0.1-0.2,0.2-0.3l10.6,10.5C67.6,41.4,67.5,41.5,67.5,41.6"/>
							<path fill="#B43327" d="M67.7,41.3L57,30.8c0.1-0.1,0.2-0.2,0.2-0.3l10.6,10.5C67.8,41.2,67.8,41.2,67.7,41.3"/>
							<path fill="#B63527" d="M67.9,41.1L57.3,30.6c0.1-0.1,0.2-0.2,0.3-0.3l10.6,10.5C68.1,40.9,68,41,67.9,41.1"/>
							<path fill="#BB3727" d="M68.2,40.8L57.6,30.3c0.1-0.1,0.3-0.2,0.4-0.3l10.6,10.5C68.5,40.6,68.4,40.7,68.2,40.8"/>
							<path fill="#BD3827" d="M68.6,40.5L58,30c0.2-0.2,0.4-0.3,0.7-0.4l10.6,10.5C69.1,40.2,68.8,40.3,68.6,40.5"/>
							<path fill="#C23A28" d="M69.3,40.1L58.6,29.5c0.3-0.2,0.7-0.3,1.1-0.5l10.6,10.5C70,39.7,69.6,39.9,69.3,40.1"/>
							<path fill="#BD3827" d="M70.4,39.6L59.7,29.1c0.2-0.1,0.5-0.1,0.8-0.2l10.6,10.5C70.9,39.5,70.6,39.5,70.4,39.6"/>
							<path fill="#BB3727" d="M71.1,39.4L60.5,28.9c0.1,0,0.2,0,0.3,0l10.6,10.5C71.3,39.4,71.2,39.4,71.1,39.4"/>
						</g>
					</g>
				</g>
			</g>
		</g>
	</g>
	<g>
		<path fill="#6E6D6E" d="M44.4,150.6c0,9.3-4.3,12.4-8,12.4c-4.3,0-7.8-3.9-7.8-12.3c0-8.7,3.9-12.4,8-12.4
			C40.9,138.3,44.4,142.3,44.4,150.6z M32.4,150.6c0,4,0.7,9.4,4.2,9.4c3.3,0,4-5.6,4-9.4c0-3.7-0.7-9.3-4.1-9.3
			C33.1,141.3,32.4,146.9,32.4,150.6z"/>
		<path fill="#6E6D6E" d="M48.6,146.1c0-3.7-0.1-5.8-0.2-7.5h3.4l0.2,3.1H52c1.3-2.5,3.2-3.4,5.1-3.4c4.2,0,6.9,4.4,6.9,12.3
			c0,8.9-3.7,12.4-7.4,12.4c-2.3,0-3.6-1.4-4.2-2.8h-0.1v11.9h-3.8V146.1z M52.3,153.8c0,0.7,0,1.4,0.2,2c0.7,3.4,2.5,4,3.5,4
			c3.2,0,4.2-4.4,4.2-9.2c0-4.9-1.2-9.1-4.3-9.1c-1.7,0-3.3,2.1-3.5,4.3c-0.1,0.5-0.1,1.2-0.1,1.8V153.8z"/>
		<path fill="#6E6D6E" d="M71,150.9c0,7.4,2.9,8.9,5.6,8.9c1.7,0,3-0.4,4-0.9l0.6,2.8c-1.3,0.7-3.4,1.1-5.3,1.1
			c-5.7,0-8.7-4.7-8.7-12c0-7.7,3.3-12.6,8.1-12.6c4.9,0,6.8,5.1,6.8,10.5c0,0.9,0,1.6-0.1,2.2H71z M78.6,148.1
			c0.1-4.8-1.7-6.9-3.6-6.9c-2.5,0-3.8,3.6-3.9,6.9H78.6z"/>
		<path fill="#6E6D6E" d="M86.3,144.8c0-2.8-0.1-4.3-0.2-6.2h3.3l0.2,2.9h0.1c1-1.9,3-3.3,5.5-3.3c3.3,0,5.8,2.4,5.8,8.2v16.1h-3.8
			v-15.4c0-2.9-0.5-5.7-3.3-5.7c-1.6,0-3.1,1.3-3.6,3.9c-0.1,0.6-0.2,1.3-0.2,2.2v15h-3.8V144.8z"/>
		<path fill="#CE3428" d="M105.7,158.6c0.8,0.5,2.3,1.2,3.9,1.2c2.1,0,3.5-1.3,3.5-3.5c0-1.8-0.6-3.1-3.1-4.7
			c-3.1-2-4.8-4.1-4.8-6.8c0-3.9,2.9-6.6,6.6-6.6c1.9,0,3.3,0.6,4.3,1.2l-1,2.9c-0.9-0.6-1.9-1.1-3.2-1.1c-2,0-3.1,1.5-3.1,3.1
			c0,1.6,0.6,2.5,3,4.1c2.8,1.8,5,4,5,7.3c0,4.8-3.3,7.1-7.2,7.1c-1.7,0-3.7-0.5-4.7-1.4L105.7,158.6z"/>
		<path fill="#CE3428" d="M125.3,133v5.6h4.6v2.9h-4.6v14.3c0,3.1,1.1,4,2.5,4c0.6,0,1.1,0,1.5-0.1l0.2,2.9
			c-0.7,0.2-1.6,0.4-2.8,0.4c-1.5,0-2.9-0.4-3.8-1.4c-1-1.1-1.4-2.7-1.4-6v-13.9h-2.9v-2.9h2.9v-4.1L125.3,133z"/>
		<path fill="#CE3428" d="M145.9,157.1c0,1.8,0,3.9,0.2,5.4h-3.4l-0.2-2.5h-0.2c-1,1.8-2.7,2.9-4.8,2.9c-3.2,0-5.6-2.7-5.6-6.8
			c0-6,4.8-8.7,10.2-8.7v-0.7c0-3.2-0.8-5.4-3.8-5.4c-1.5,0-2.8,0.4-4,1.2l-0.8-2.7c1-0.7,3.2-1.6,5.6-1.6c4.8,0,6.8,3.1,6.8,8.5
			V157.1z M142.2,150.1c-2,0-6.6,0.4-6.6,5.6c0,3.2,1.6,4.3,2.9,4.3c1.7,0,3.1-1.2,3.5-3.6c0.1-0.4,0.2-0.9,0.2-1.4V150.1z"/>
		<path fill="#CE3428" d="M163,162c-0.8,0.5-2.3,0.9-4,0.9c-5.2,0-8.8-4.2-8.8-12.1c0-6.9,3.5-12.5,9.5-12.5c1.3,0,2.7,0.3,3.4,0.7
			l-0.7,3.1c-0.5-0.2-1.5-0.6-2.7-0.6c-3.9,0-5.5,4.6-5.5,9.3c0,5.6,2.1,9,5.6,9c1,0,1.9-0.2,2.7-0.6L163,162z"/>
		<path fill="#CE3428" d="M170,149.7L170,149.7c0.5-0.9,0.9-1.9,1.4-2.7l4.8-8.5h4.1l-6.3,10.1l6.9,13.9h-4.3l-5.2-11.3l-1.4,2.2
			v9.1h-3.8v-34.2h3.8V149.7z"/>
	</g>
	<path fill="#F1F5F6" stroke="#FFFFFF" stroke-width="1.634" stroke-miterlimit="10" d="M182.3,188c0,1.3-1.1,2.4-2.4,2.4h-149
		c-1.3,0-2.4-1.1-2.4-2.4v-17.3c0-1.3,1.1-2.4,2.4-2.4h149c1.3,0,2.4,1.1,2.4,2.4V188z"/>
	<g>
		<path fill="#6B919F" d="M46.8,183.8c-0.3,0.2-0.9,0.3-1.6,0.3c-2.1,0-3.6-1.5-3.6-4.7c0-3.8,2.1-5,3.9-5c0.6,0,1.1,0.1,1.3,0.2
			l-0.3,0.9c-0.3-0.1-0.5-0.2-1.1-0.2c-1.2,0-2.5,1-2.5,3.9c0,2.9,1.2,3.9,2.6,3.9c0.5,0,0.9-0.1,1.1-0.2L46.8,183.8z"/>
		<path fill="#6B919F" d="M50.5,174.5h1.2v8.6h3v0.9h-4.3V174.5z"/>
		<path fill="#6B919F" d="M63.5,179.2c0,3.6-1.4,4.9-3.1,4.9c-1.8,0-3-1.7-3-4.9c0-3.1,1.3-4.9,3.2-4.9
			C62.4,174.4,63.5,176.1,63.5,179.2z M58.6,179.2c0,2,0.4,3.9,1.8,3.9s1.8-2.1,1.8-3.9c0-1.8-0.4-3.9-1.8-3.9
			C59.1,175.3,58.6,177.3,58.6,179.2z"/>
		<path fill="#6B919F" d="M68.6,174.5v6.4c0,1.7,0.7,2.3,1.5,2.3c0.9,0,1.5-0.6,1.5-2.3v-6.4h1.2v6.2c0,2.5-1.2,3.4-2.8,3.4
			c-1.6,0-2.7-0.9-2.7-3.3v-6.3H68.6z"/>
		<path fill="#6B919F" d="M77.2,174.6c0.5-0.1,1-0.2,1.7-0.2c1.1,0,2,0.3,2.5,0.7c0.8,0.6,1.5,1.9,1.5,3.9c0,2.2-0.6,3.4-1.3,4
			c-0.7,0.7-1.7,1-3,1c-0.5,0-1,0-1.4-0.1V174.6z M78.4,183.1c0.2,0,0.4,0,0.5,0c1.4,0,2.7-0.9,2.7-4.1c0-2.4-0.8-3.7-2.6-3.7
			c-0.2,0-0.4,0-0.6,0.1V183.1z"/>
		<path fill="#6B919F" d="M91.5,182.7c0.4,0.2,1,0.4,1.5,0.4c1.1,0,1.8-0.6,1.8-1.6c0-0.9-0.6-1.4-1.4-2c-0.9-0.5-2-1.4-2-2.6
			c0-1.4,1.1-2.5,2.9-2.5c0.7,0,1.3,0.2,1.5,0.4l-0.3,0.9c-0.3-0.2-0.7-0.3-1.3-0.3c-1.1,0-1.6,0.7-1.6,1.4c0,0.9,0.6,1.3,1.6,2
			c1.3,0.8,1.9,1.7,1.9,2.7c0,1.6-1.3,2.7-3,2.7c-0.7,0-1.5-0.2-1.8-0.4L91.5,182.7z"/>
		<path fill="#6B919F" d="M105.7,179.2c0,3.6-1.4,4.9-3.1,4.9c-1.8,0-3-1.7-3-4.9c0-3.1,1.3-4.9,3.2-4.9
			C104.6,174.4,105.7,176.1,105.7,179.2z M100.8,179.2c0,2,0.4,3.9,1.8,3.9c1.4,0,1.8-2.1,1.8-3.9c0-1.8-0.4-3.9-1.8-3.9
			C101.3,175.3,100.8,177.3,100.8,179.2z"/>
		<path fill="#6B919F" d="M109.6,174.5h4.1v0.9h-2.9v3.3h2.7v0.9h-2.7v4.3h-1.2V174.5z"/>
		<path fill="#6B919F" d="M118.9,175.5h-2v-1h5.2v1h-2v8.5h-1.2V175.5z"/>
		<path fill="#6B919F" d="M127.4,184l-2.1-9.5h1.3l0.9,4.6c0.2,1.2,0.4,2.3,0.5,3.4h0c0.1-1.2,0.4-2.2,0.7-3.4l1-4.6h1l1,4.5
			c0.2,1.1,0.5,2.2,0.6,3.5h0c0.2-1.4,0.4-2.4,0.6-3.5l0.9-4.5h1.2l-2.1,9.5h-1.2l-1-4.6c-0.2-1-0.4-2.1-0.6-3.1h0
			c-0.1,1.1-0.3,2.1-0.6,3.2l-1.1,4.6H127.4z"/>
		<path fill="#6B919F" d="M139.5,181.1l-0.7,2.9h-1.2l2.5-9.5h1.4l2.4,9.5h-1.2l-0.7-2.9H139.5z M141.8,180.3l-0.6-2.4
			c-0.2-0.7-0.3-1.5-0.4-2.2h0c-0.1,0.7-0.3,1.5-0.5,2.2l-0.6,2.4H141.8z"/>
		<path fill="#6B919F" d="M147.7,174.6c0.5-0.1,1.2-0.2,1.8-0.2c1.1,0,1.9,0.2,2.5,0.7c0.5,0.5,0.8,1.1,0.8,1.9c0,1.2-0.6,2-1.7,2.5
			v0c0.8,0.2,1.2,0.9,1.5,2.1c0.3,1.3,0.5,2.1,0.6,2.4h-1.3c-0.2-0.3-0.4-1.2-0.6-2.3c-0.2-1.3-0.7-1.8-1.8-1.8h-0.5v4.1h-1.2V174.6
			z M148.9,179h0.5c1.2,0,2-0.8,2-1.9c0-1.1-0.5-1.8-1.8-1.8c-0.3,0-0.5,0-0.7,0.1V179z"/>
		<path fill="#6B919F" d="M160.7,179.5h-2.7v3.6h3.1v0.9h-4.3v-9.5h4.1v0.9h-2.9v3.1h2.7V179.5z"/>
	</g>
</g>
<g>
	<g>
		<path fill="#CECCCB" d="M186.8,160.8c0,1.1-0.9,2-2,2c-1.1,0-2-0.9-2-2s0.9-2,2-2C185.9,158.9,186.8,159.7,186.8,160.8z
			 M183.3,160.8c0,0.9,0.7,1.6,1.5,1.6c0.9,0,1.5-0.7,1.5-1.6c0-0.9-0.6-1.6-1.5-1.6C183.9,159.3,183.3,160,183.3,160.8z
			 M184.5,161.9H184v-2c0.2,0,0.4-0.1,0.8-0.1c0.4,0,0.5,0.1,0.7,0.2c0.1,0.1,0.2,0.2,0.2,0.4c0,0.2-0.2,0.4-0.4,0.5v0
			c0.2,0.1,0.3,0.2,0.3,0.5c0.1,0.3,0.1,0.4,0.1,0.5h-0.5c-0.1-0.1-0.1-0.2-0.2-0.5c0-0.2-0.2-0.3-0.4-0.3h-0.2V161.9z M184.5,160.8
			h0.2c0.3,0,0.5-0.1,0.5-0.3c0-0.2-0.1-0.3-0.4-0.3c-0.1,0-0.2,0-0.3,0V160.8z"/>
	</g>
</g>
</svg>
