<?xml version="1.0" encoding="utf-8"?>
<!-- Generator: Adobe Illustrator 19.1.0, SVG Export Plug-In . SVG Version: 6.00 Build 0)  -->
<svg version="1.1" id="Layer_1" xmlns="http://www.w3.org/2000/svg" xmlns:xlink="http://www.w3.org/1999/xlink" x="0px" y="0px"
	 width="169px" height="166px" viewBox="0 0 169 166" style="enable-background:new 0 0 169 166;" xml:space="preserve">
<style type="text/css">
	.st0{fill:#FFFFFF;}
</style>
<g>
	<g>
		<g>
			<path class="st0" d="M84.5,40.7c7.2,0,14.3,1.8,20.5,5.3c2.5,1.4,5.5,0.5,6.9-2c1.4-2.4,0.5-5.5-2-6.9
				c-7.8-4.3-16.6-6.6-25.4-6.6c-28.9,0-52.4,23.5-52.4,52.4c0,8.9,2.3,17.7,6.6,25.4c0.9,1.7,2.7,2.6,4.4,2.6
				c0.8,0,1.7-0.2,2.5-0.6c2.4-1.4,3.3-4.5,2-6.9c-3.5-6.3-5.3-13.4-5.3-20.5C42.2,59.7,61.2,40.7,84.5,40.7z"/>
		</g>
		<g>
			<path class="st0" d="M124.9,58c-2.5,1.2-3.6,4.2-2.4,6.8c2.8,5.8,4.2,12,4.2,18.3c0,23.3-19,42.3-42.3,42.3
				c-6.3,0-12.5-1.4-18.3-4.2c-2.5-1.2-5.5-0.2-6.8,2.4c-1.2,2.5-0.2,5.6,2.4,6.8c7.2,3.5,14.8,5.2,22.7,5.2
				c28.9,0,52.4-23.5,52.4-52.4c0-7.9-1.8-15.5-5.2-22.7C130.5,57.8,127.4,56.7,124.9,58z"/>
		</g>
		<g>
			<g>
				<path class="st0" d="M84.5,2.7C40.2,2.7,4.2,38.7,4.2,83c0,44.3,36,80.3,80.3,80.3c44.3,0,80.3-36,80.3-80.3
					C164.8,38.7,128.8,2.7,84.5,2.7z M84.5,153.2c-38.7,0-70.2-31.5-70.2-70.2c0-38.7,31.5-70.2,70.2-70.2
					c38.7,0,70.2,31.5,70.2,70.2C154.7,121.7,123.2,153.2,84.5,153.2z"/>
			</g>
		</g>
	</g>
</g>
</svg>
