<?xml version="1.0" encoding="utf-8"?>
<!-- Generator: Adobe Illustrator 19.1.0, SVG Export Plug-In . SVG Version: 6.00 Build 0)  -->
<svg version="1.1" id="Layer_1" xmlns="http://www.w3.org/2000/svg" xmlns:xlink="http://www.w3.org/1999/xlink" x="0px" y="0px"
	 width="425.7px" height="166px" viewBox="0 0 425.7 166" style="enable-background:new 0 0 425.7 166;" xml:space="preserve">
<style type="text/css">
	.st0{fill:#FFFFFF;}
</style>
<g>
	<g>
		<g>
			<path class="st0" d="M48.5,40.5c-1.3-0.7-2.9-1.1-4.7-1.1c-1.8,0-3.4,0.4-4.7,1.1c-1.3,0.7-2,1.8-2,3.2v83.4c0,1.3,0.7,2.4,2,3.2
				c1.3,0.8,2.9,1.2,4.7,1.2c1.8,0,3.4-0.4,4.7-1.2c1.3-0.8,2-1.9,2-3.2V43.7C50.5,42.3,49.8,41.3,48.5,40.5z"/>
		</g>
		<g>
			<path class="st0" d="M139.9,39.5H87.6c-1.4,0-2.5,0.6-3.3,1.9c-0.8,1.2-1.1,2.7-1.1,4.3c0,1.7,0.4,3.2,1.2,4.4
				c0.8,1.2,1.9,1.8,3.2,1.8h19.5v75.3c0,1.3,0.6,2.4,2,3.2c1.3,0.8,2.9,1.2,4.7,1.2c1.8,0,3.3-0.4,4.7-1.2c1.3-0.8,2-1.9,2-3.2
				V51.8h19.4c1.3,0,2.4-0.6,3.2-1.8c0.8-1.2,1.2-2.7,1.2-4.5c0-1.6-0.4-3-1.1-4.2C142.4,40.1,141.3,39.5,139.9,39.5z"/>
		</g>
		<g>
			<path class="st0" d="M227.8,51.3c1.3,0,2.4-0.6,3.2-1.8c0.8-1.2,1.2-2.6,1.2-4.3c0-1.5-0.4-2.9-1.1-4c-0.8-1.2-1.8-1.8-3.3-1.8
				H183c-1.6,0-3,0.4-4.2,1.2c-1.2,0.8-1.8,1.9-1.8,3.2v83.3c0,1.3,0.6,2.4,1.8,3.2c1.2,0.8,2.6,1.2,4.2,1.2h44.8
				c1.4,0,2.5-0.6,3.3-1.8c0.8-1.2,1.1-2.5,1.1-4c0-1.7-0.4-3.1-1.2-4.3c-0.8-1.2-1.9-1.8-3.2-1.8h-37.4v-29h19.4
				c1.4,0,2.5-0.5,3.3-1.6c0.8-1,1.1-2.2,1.1-3.6c0-1.5-0.4-2.8-1.2-3.8c-0.8-1-1.9-1.6-3.2-1.6h-19.4V51.3H227.8z"/>
		</g>
		<g>
			<g>
				<path class="st0" d="M305.2,90c5.5-1.3,9.8-4,13-8.1c3.2-4.1,4.8-9.6,4.8-16.7c0-17.1-9.7-25.7-29-25.7H270
					c-1.3,0-2.3,0.4-3.2,1.3c-0.8,0.8-1.3,1.8-1.3,3v83.4c0,1.3,0.6,2.4,2,3.2c1.3,0.8,2.8,1.2,4.6,1.2c1.8,0,3.4-0.4,4.7-1.2
					c1.3-0.8,2-1.9,2-3.2V91.9h12.7L310,128c1.3,2.6,3.1,3.9,5.3,3.9c1.9,0,3.8-0.7,5.5-2.2c1.7-1.4,2.6-3,2.6-4.7
					c0-0.7-0.2-1.3-0.5-1.9L305.2,90z M278.9,81.3v-30H294c10.4,0,15.6,5,15.6,15c0,10-5.2,15-15.6,15H278.9z"/>
			</g>
		</g>
		<g>
			<g>
				<path class="st0" d="M420.3,124.6l-24.9-81.6c-1.1-2.8-4.1-4.2-9.1-4.2c-4.9,0-7.9,1.5-9,4.5l-25,81.6c-0.1,0.2-0.1,0.6-0.1,1.1
					c0,1.5,0.9,2.8,2.6,3.9c1.8,1.1,3.6,1.6,5.7,1.6c2.5,0,4.1-0.9,4.7-2.8l5.2-18h31l5.2,18c0.6,1.8,2.3,2.7,4.9,2.7
					c2.2,0,4.3-0.6,6.2-1.7c2-1.1,2.9-2.5,2.9-4.1C420.6,125.5,420.5,125.1,420.3,124.6z M373.3,100.2L385.7,57l12.6,43.2H373.3z"/>
			</g>
		</g>
	</g>
</g>
</svg>
