<?xml version="1.0" encoding="UTF-8" standalone="no"?>
<svg xmlns:rdf="http://www.w3.org/1999/02/22-rdf-syntax-ns#" xmlns="http://www.w3.org/2000/svg" version="1.1" xmlns:cc="http://creativecommons.org/ns#" xmlns:dc="http://purl.org/dc/elements/1.1/" viewBox="0 0 586.65576 283.09213">
 <defs>
  <clipPath id="b" clipPathUnits="userSpaceOnUse">
   <path d="m0 612h792v-612h-792v612z"/>
  </clipPath>
  <clipPath id="a" clipPathUnits="userSpaceOnUse">
   <path d="m331.02 424.87h116.24v-113.76h-116.24v113.76z"/>
  </clipPath>
 </defs>
 <g transform="translate(-.95784 -2.2447)">
  <g transform="matrix(1.25 0 0 -1.25 -201.86 533.34)">
   <g clip-path="url(#b)">
    <g transform="translate(624.62 215.96)">
     <path d="m0 0c-2.896 0-5.252 2.356-5.252 5.252 0 2.897 2.356 5.252 5.252 5.252s5.252-2.355 5.252-5.252c0-2.896-2.356-5.252-5.252-5.252m6.963 5.252c0 3.84-3.123 6.964-6.963 6.964s-6.963-3.124-6.963-6.964 3.123-6.963 6.963-6.963 6.963 3.123 6.963 6.963" fill="#4e4640"/>
    </g>
    <g transform="translate(625.8 222.43)">
     <path d="m0 0c0-0.614-0.39-1.024-1.112-1.024h-1.042v2.058h1.013c0.722 0 1.141-0.342 1.141-1.024v-0.01zm1.424 0.039v0.039c0 0.673-0.205 1.209-0.576 1.58-0.429 0.428-1.062 0.652-1.852 0.652h-2.563v-6.823h1.413v2.242h0.886l1.258-2.242h1.619l-1.453 2.535c0.751 0.331 1.268 0.984 1.268 2.017" fill="#4e4640"/>
    </g>
    <g transform="translate(174.11 241.74)">
     <path d="m0 0v0.629c0 10.39 5.352 18.048 13.641 18.048 8.079 0 13.851-7.765 13.851-18.152v-0.63c0-10.387-5.352-18.152-13.641-18.152-8.08 0-13.851 7.869-13.851 18.257m39.348-0.209v0.945c0 16.474-10.807 28.435-25.497 28.435-14.796 0-25.708-12.172-25.708-28.542v-0.943c0-16.474 10.808-28.331 25.498-28.331 14.795 0 25.707 12.066 25.707 28.436" fill="#4e4640"/>
    </g>
    <g transform="translate(231.81 241.53)">
     <path d="m0 0v1.049c0 10.913 6.086 17.837 13.221 17.837s12.906-6.82 12.906-17.941v-0.945c0-11.123-5.666-17.839-12.906-17.839-7.135 0-13.221 6.927-13.221 17.839m38.09-0.211v1.469c0 18.784-10.494 28.122-21.616 28.122-7.975 0-12.802-4.617-16.264-9.969v8.92h-11.857v-71.458h11.857v24.239c3.358-4.931 8.185-9.443 16.264-9.443 11.227 0 21.616 9.443 21.616 28.12" fill="#4e4640"/>
    </g>
    <g transform="translate(300.09 260.94)">
     <path d="m0 0c6.925 0 10.912-6.4 11.542-15.214h-23.504c0.84 9.443 5.457 15.214 11.962 15.214m21.196-39.244-6.191 7.347c-3.673-3.568-7.555-5.877-12.801-5.877-7.24 0-13.012 5.037-14.061 14.375h34.836c0.105 1.679 0.105 3.359 0.105 4.093 0 16.683-7.974 29.276-23.084 29.276-13.641 0-23.714-11.962-23.714-28.647v-0.838c0-17.419 11.122-28.331 25.393-28.331 8.29 0 14.48 3.252 19.517 8.602" fill="#4e4640"/>
    </g>
    <g transform="translate(357.99 270.91)">
     <path d="m0 0c-7.555 0-12.067-4.303-15.215-9.234v8.185h-11.857v-55.613h11.857v33.682c0 7.66 4.303 12.277 10.493 12.277 6.296 0 9.968-4.302 9.968-12.066v-33.893h11.857v37.249c0 11.857-6.401 19.413-17.103 19.413" fill="#4e4640"/>
    </g>
    <g transform="translate(422.89 230.09)">
     <path d="m0 0v0.105c0 8.709-6.506 12.695-15.11 16.578-6.506 2.939-10.913 4.826-10.913 8.499v0.211c0 3.043 2.623 5.455 7.03 5.455s9.024-2.099 13.221-4.931l5.037 8.709c-5.246 3.777-11.857 5.98-18.048 5.98-10.387 0-18.362-6.295-18.362-16.263v-0.211c0-9.127 6.925-12.906 15.215-16.472 6.61-2.834 10.912-4.617 10.912-8.605v-0.104c0-3.463-2.833-6.087-7.765-6.087-4.931 0-10.283 2.414-15.319 6.505l-5.562-8.498c6.401-5.351 14.061-7.765 20.671-7.765 10.704 0 18.993 5.982 18.993 16.894" fill="#4e4640"/>
    </g>
    <g transform="translate(459.6 215.82)">
     <path d="m0 0v9.759c-1.994-1.05-4.092-1.574-6.401-1.574-3.778 0-5.981 1.783-5.981 6.086v29.589h12.487v10.179h-12.487v15.005h-11.857v-15.005h-6.086l1.948-10.179h4.138v-32.003c0-10.808 6.191-14.271 14.376-14.271 3.987 0 7.134 0.945 9.863 2.414" fill="#4e4640"/>
    </g>
    <g transform="translate(499.16 232.92)">
     <path d="m0 0c0-6.295-5.246-10.912-12.067-10.808-5.141 0.105-9.023 3.254-9.023 8.814v0.211c0 5.875 3.987 9.339 10.807 9.339 3.988 0 7.555-0.841 10.283-1.994v-5.562zm5.876 31.899c-3.567 3.672-9.128 5.666-16.368 5.666-7.45 0-13.012-1.785-18.364-4.408l3.358-9.443c3.673 1.679 8.08 3.359 13.431 3.359 7.556 0 11.962-3.884 11.962-11.333v-2.309c-3.777 1.26-7.554 2.203-12.801 2.203-11.752 0-19.727-5.875-19.727-17.837v-0.525c0-10.807 7.765-16.998 16.999-16.998 7.24 0 12.172 3.147 15.424 7.869v-6.82h11.647v34.522c0 6.924-1.888 12.382-5.561 16.054" fill="#4e4640"/>
    </g>
    <g transform="translate(561 221.48)">
     <path d="m0 0-6.4 7.869c-3.253-3.252-6.506-5.666-11.332-5.666-8.081 0-13.746 7.24-13.746 18.048v0.525c0 10.494 5.665 17.943 13.431 17.943 5.036 0 8.289-2.519 11.227-5.562l6.611 8.71c-4.617 4.617-9.864 7.555-17.838 7.555-14.586 0-25.393-11.961-25.393-28.542v-1.049c0-16.579 10.493-28.225 24.973-28.225 8.499 0 14.06 3.461 18.467 8.394" fill="#4e4640"/>
    </g>
    <g transform="translate(597.29 243.11)">
     <path d="m0 0-8.323-8.946 11.164-19.918h13.745l-16.586 28.864z" fill="#4e4640"/>
    </g>
    <g transform="translate(599.29 269.86)">
     <path d="m0 0-18.992-24.45v44.596h-11.857v-75.759h11.857v16.054l33.053 39.559h-14.061z" fill="#4e4640"/>
    </g>
    <g opacity="0.98" clip-path="url(#a)">
     <g transform="translate(436.46 424.87)">
      <path d="m0 0h-94.638c-5.94 0-10.8-4.86-10.8-10.8v-25.45h26.25v4.159c0 3.226 2.616 5.841 5.842 5.841h52.055c3.226 0 5.841-2.615 5.841-5.841v-4.159h26.25v25.45c0.002 5.94-4.858 10.8-10.798 10.8" fill="#ed1844"/>
     </g>
     <g transform="translate(421.01 343.2)">
      <path d="m0 0c0-3.226-2.615-5.842-5.841-5.842h-52.055c-3.226 0-5.842 2.616-5.842 5.842v4.158h-26.25v-25.449c0-5.941 4.86-10.8 10.8-10.8h94.638c5.94 0 10.8 4.859 10.8 10.8v25.449h-26.25v-4.158z" fill="#ed1844"/>
     </g>
     <path d="m357.28 381.12h-26.25v-26.25h26.25v26.25z" fill="#ed1844"/>
     <path d="m447.26 381.12h-26.25v-26.25h26.25v26.25z" fill="#ed1844"/>
    </g>
   </g>
  </g>
 </g>
</svg>
