<?xml version="1.0" encoding="UTF-8" standalone="no"?>
<svg xmlns:rdf="http://www.w3.org/1999/02/22-rdf-syntax-ns#" xmlns="http://www.w3.org/2000/svg" version="1.1" xmlns:cc="http://creativecommons.org/ns#" xmlns:dc="http://purl.org/dc/elements/1.1/" viewBox="0 0 600.77589 106.73737">
 <defs>
  <clipPath id="a" clipPathUnits="userSpaceOnUse">
   <path d="m0 612h792v-612h-792v612z"/>
  </clipPath>
 </defs>
 <g transform="translate(-33.898 -53.279)">
  <g transform="matrix(1.25 0 0 -1.25 -160.14 490.69)">
   <g clip-path="url(#a)">
    <g transform="translate(234.37 349.93)">
     <path d="m0 0h-71.036c-4.458 0-8.106-3.648-8.106-8.107v-19.102h19.703v3.121c0 2.422 1.963 4.385 4.385 4.385h39.073c2.421 0 4.384-1.963 4.384-4.385v-3.121h19.704v19.102c0 4.459-3.648 8.107-8.107 8.107" fill="#da1a31"/>
    </g>
    <g transform="translate(222.77 288.63)">
     <path d="m0 0c0-2.422-1.963-4.385-4.385-4.385h-39.072c-2.422 0-4.385 1.963-4.385 4.385v3.121h-19.703v-19.103c0-4.458 3.648-8.106 8.106-8.106h71.036c4.459 0 8.106 3.648 8.106 8.106v19.103h-19.703v-3.121z" fill="#da1a31"/>
    </g>
    <path d="m174.93 317.09h-19.703v-19.703h19.703v19.703z" fill="#da1a31"/>
    <path d="m242.48 317.09h-19.703v-19.703h19.703v19.703z" fill="#da1a31"/>
    <g transform="translate(630.31 286.5)">
     <path d="m0 0c-2.305 0-4.181 1.875-4.181 4.181 0 2.305 1.876 4.18 4.181 4.18s4.181-1.875 4.181-4.18c0-2.306-1.876-4.181-4.181-4.181m5.543 4.181c0 3.056-2.487 5.542-5.543 5.542s-5.543-2.486-5.543-5.542c0-3.057 2.487-5.543 5.543-5.543s5.543 2.486 5.543 5.543" fill="#4e4640"/>
    </g>
    <g transform="translate(631.25 291.66)">
     <path d="m0 0c0-0.489-0.31-0.815-0.885-0.815h-0.83v1.638h0.807c0.575 0 0.908-0.272 0.908-0.815v-0.008zm1.133 0.031v0.031c0 0.536-0.163 0.962-0.458 1.257-0.342 0.342-0.845 0.52-1.474 0.52h-2.04v-5.431h1.124v1.784h0.706l1.001-1.784h1.288l-1.156 2.017c0.598 0.264 1.009 0.784 1.009 1.606" fill="#4e4640"/>
    </g>
    <g transform="translate(271.62 307.02)">
     <path d="m0 0v0.501c0 8.27 4.26 14.366 10.858 14.366 6.431 0 11.025-6.181 11.025-14.449v-0.501c0-8.269-4.26-14.449-10.858-14.449-6.432 0-11.025 6.264-11.025 14.532m31.32-0.166v0.752c0 13.113-8.602 22.634-20.295 22.634-11.777 0-20.463-9.689-20.463-22.719v-0.751c0-13.113 8.603-22.551 20.296-22.551 11.776 0 20.462 9.605 20.462 22.635" fill="#4e4640"/>
    </g>
    <g transform="translate(317.55 306.86)">
     <path d="m0 0v0.835c0 8.686 4.845 14.198 10.523 14.198 5.68 0 10.274-5.429 10.274-14.281v-0.752c0-8.854-4.511-14.199-10.274-14.199-5.678 0-10.523 5.513-10.523 14.199m30.319-0.168v1.17c0 14.951-8.353 22.384-17.206 22.384-6.348 0-10.19-3.675-12.946-7.935v7.1h-9.438v-56.879h9.438v19.294c2.673-3.925 6.515-7.517 12.946-7.517 8.936 0 17.206 7.517 17.206 22.383" fill="#4e4640"/>
    </g>
    <g transform="translate(371.89 322.31)">
     <path d="m0 0c5.513 0 8.686-5.094 9.188-12.11h-18.709c0.668 7.517 4.343 12.11 9.521 12.11m16.871-31.237-4.928 5.848c-2.923-2.84-6.013-4.678-10.189-4.678-5.763 0-10.357 4.009-11.192 11.442h27.729c0.083 1.336 0.083 2.674 0.083 3.258 0 13.279-6.347 23.303-18.374 23.303-10.858 0-18.876-9.522-18.876-22.803v-0.667c0-13.865 8.853-22.551 20.213-22.551 6.598 0 11.526 2.589 15.534 6.848" fill="#4e4640"/>
    </g>
    <g transform="translate(417.98 330.24)">
     <path d="m0 0c-6.013 0-9.605-3.425-12.111-7.35v6.515h-9.438v-44.267h9.438v26.81c0 6.097 3.425 9.772 8.353 9.772 5.011 0 7.934-3.423 7.934-9.604v-26.978h9.438v29.65c0 9.438-5.095 15.452-13.614 15.452" fill="#4e4640"/>
    </g>
    <g transform="translate(469.64 297.75)">
     <path d="m0 0v0.083c0 6.933-5.179 10.105-12.027 13.196-5.179 2.339-8.686 3.842-8.686 6.765v0.168c0 2.422 2.087 4.342 5.595 4.342s7.183-1.67 10.524-3.925l4.009 6.933c-4.176 3.006-9.438 4.76-14.366 4.76-8.268 0-14.616-5.011-14.616-12.945v-0.168c0-7.266 5.513-10.273 12.111-13.112 5.261-2.256 8.686-3.675 8.686-6.849v-0.083c0-2.757-2.255-4.845-6.181-4.845-3.925 0-8.185 1.922-12.193 5.178l-4.427-6.765c5.095-4.259 11.192-6.18 16.453-6.18 8.52 0 15.118 4.761 15.118 13.447" fill="#4e4640"/>
    </g>
    <g transform="translate(498.86 286.4)">
     <path d="m0 0v7.768c-1.587-0.836-3.258-1.253-5.095-1.253-3.007 0-4.761 1.419-4.761 4.844v23.553h9.939v8.102h-9.939v11.943h-9.438v-11.943h-4.844l1.55-8.102h3.294v-25.474c0-8.603 4.928-11.359 11.443-11.359 3.174 0 5.679 0.751 7.851 1.921" fill="#4e4640"/>
    </g>
    <g transform="translate(530.35 300.01)">
     <path d="m0 0c0-5.011-4.176-8.686-9.605-8.603-4.092 0.083-7.182 2.59-7.182 7.016v0.168c0 4.676 3.173 7.433 8.602 7.433 3.174 0 6.014-0.669 8.185-1.587v-4.427zm4.677 25.391c-2.839 2.923-7.266 4.51-13.029 4.51-5.93 0-10.357-1.421-14.617-3.509l2.673-7.516c2.924 1.336 6.432 2.673 10.691 2.673 6.014 0 9.522-3.091 9.522-9.02v-1.838c-3.007 1.003-6.014 1.753-10.19 1.753-9.354 0-15.702-4.676-15.702-14.198v-0.417c0-8.603 6.181-13.531 13.531-13.531 5.763 0 9.688 2.506 12.277 6.264v-5.429h9.271v27.479c0 5.512-1.504 9.856-4.427 12.779" fill="#4e4640"/>
    </g>
    <g transform="translate(579.57 290.91)">
     <path d="m0 0-5.094 6.264c-2.59-2.589-5.179-4.51-9.021-4.51-6.431 0-10.941 5.763-10.941 14.365v0.418c0 8.353 4.51 14.282 10.691 14.282 4.009 0 6.598-2.004 8.936-4.427l5.263 6.933c-3.675 3.675-7.852 6.014-14.199 6.014-11.61 0-20.213-9.521-20.213-22.719v-0.835c0-13.196 8.353-22.466 19.879-22.466 6.765 0 11.191 2.755 14.699 6.681" fill="#4e4640"/>
    </g>
    <g transform="translate(608.46 308.12)">
     <path d="m0 0-6.625-7.121 8.886-15.854h10.941l-13.202 22.975z" fill="#4e4640"/>
    </g>
    <g transform="translate(610.05 329.41)">
     <path d="m0 0-15.117-19.461v35.497h-9.438v-60.303h9.438v12.779l26.309 31.488h-11.192z" fill="#4e4640"/>
    </g>
   </g>
  </g>
 </g>
</svg>
