<?xml version="1.0" standalone="no"?>
<!DOCTYPE svg PUBLIC "-//W3C//DTD SVG 20010904//EN"
 "http://www.w3.org/TR/2001/REC-SVG-20010904/DTD/svg10.dtd">
<svg version="1.0" xmlns="http://www.w3.org/2000/svg"
 width="300.000000pt" height="300.000000pt" viewBox="0 0 300.000000 300.000000"
 preserveAspectRatio="xMidYMid meet" style="background-color: #FFFFFF;">
<g transform="translate(0.000000,300.000000) scale(0.100000,-0.100000)"
fill="#196836" stroke="none">
<path d="M1375 2904 c-102 -11 -229 -37 -320 -65 -98 -30 -259 -108 -319 -155
-17 -13 -68 -49 -113 -81 -89 -63 -209 -194 -295 -321 -112 -167 -190 -371
-217 -566 -14 -99 -14 -322 0 -423 18 -132 74 -335 98 -353 4 -3 20 -36 35
-74 16 -37 48 -93 71 -125 23 -31 46 -64 51 -74 14 -25 118 -142 184 -206 65
-63 248 -185 352 -234 203 -97 363 -131 608 -130 289 0 476 54 750 216 85 51
129 86 237 193 73 73 133 138 133 145 0 8 18 34 40 59 24 28 65 101 109 195
55 120 75 178 101 290 53 234 52 382 -6 638 -33 148 -156 422 -201 450 -7 4
-13 13 -13 18 0 18 -91 131 -162 201 -137 135 -328 259 -492 319 -165 61 -467
101 -631 83z m445 -119 c117 -29 268 -93 368 -157 37 -24 79 -49 94 -57 15 -8
79 -65 142 -127 107 -106 176 -196 227 -296 12 -24 25 -45 30 -48 23 -15 111
-289 129 -400 14 -91 12 -331 -4 -420 -21 -116 -101 -354 -125 -369 -5 -4 -25
-38 -44 -77 -20 -39 -62 -105 -95 -145 -56 -72 -238 -248 -279 -272 -170 -99
-312 -161 -453 -199 -119 -31 -133 -33 -305 -32 -196 0 -257 10 -439 73 -120
42 -295 135 -361 192 -11 10 -47 40 -80 67 -33 27 -80 75 -105 107 -25 31 -63
79 -86 106 -63 75 -169 296 -196 409 -13 52 -26 97 -29 100 -10 8 -29 177 -29
260 0 92 17 245 30 268 5 9 19 55 31 102 39 153 89 254 221 440 18 25 70 84
117 131 74 73 115 105 256 197 48 31 230 113 296 133 127 38 221 49 409 44
146 -3 192 -8 280 -30z"/>
<path d="M1389 2290 c-256 -32 -505 -226 -609 -476 -217 -521 166 -1094 731
-1094 401 0 739 304 780 701 25 243 -48 463 -210 632 -97 102 -211 172 -351
215 -76 23 -244 34 -341 22z m339 -110 c116 -39 185 -83 277 -175 89 -89 135
-159 171 -265 116 -332 -37 -707 -351 -860 -120 -59 -190 -75 -325 -73 -170 1
-278 38 -418 142 -122 90 -217 231 -258 382 -25 90 -24 272 1 359 82 286 314
486 610 524 74 10 212 -6 293 -34z"/>
<path d="M1413 2047 l-93 -112 32 -7 c18 -3 36 -4 41 -1 4 2 14 -1 22 -7 12
-10 15 -42 15 -155 0 -121 2 -144 16 -149 28 -11 130 -6 142 6 8 8 12 57 12
155 l0 143 44 0 c25 0 47 4 50 9 5 7 -16 39 -67 101 -7 9 -32 41 -56 73 -24
31 -48 57 -55 57 -6 0 -53 -51 -103 -113z"/>
<path d="M1158 1663 l-3 -48 -150 -5 -150 -5 0 -80 0 -80 153 -3 152 -3 0 -49
c0 -31 4 -50 12 -50 11 0 132 96 195 155 19 17 30 35 25 41 -9 15 -214 174
-224 174 -4 0 -8 -21 -10 -47z"/>
<path d="M1750 1634 c-52 -41 -101 -78 -107 -81 -31 -13 -8 -46 90 -127 56
-47 107 -86 114 -86 7 0 13 19 15 48 l3 47 150 5 150 5 0 80 0 80 -150 5
c-166 6 -151 -1 -154 73 -1 15 -4 27 -9 27 -4 0 -50 -34 -102 -76z"/>
<path d="M1443 1413 c-10 -3 -13 -43 -13 -148 0 -113 -3 -145 -15 -155 -8 -6
-18 -9 -22 -7 -5 3 -23 2 -41 -1 l-32 -7 66 -80 c105 -126 123 -145 138 -139
7 3 28 25 45 49 18 24 37 50 44 57 35 38 86 112 81 119 -3 5 -25 9 -50 9 l-44
0 0 143 c0 98 -4 147 -12 155 -12 12 -120 16 -145 5z"/>
</g>
</svg>
