<?xml version="1.0" encoding="utf-8"?>
<!-- Generator: Adobe Illustrator 15.0.0, SVG Export Plug-In  -->
<!DOCTYPE svg PUBLIC "-//W3C//DTD SVG 1.1//EN" "http://www.w3.org/Graphics/SVG/1.1/DTD/svg11.dtd" [
	<!ENTITY ns_flows "http://ns.adobe.com/Flows/1.0/">
]>
<svg version="1.1"
	 xmlns="http://www.w3.org/2000/svg" xmlns:xlink="http://www.w3.org/1999/xlink" xmlns:a="http://ns.adobe.com/AdobeSVGViewerExtensions/3.0/"
	 x="0px" y="0px" width="92px" height="92px" viewBox="-3.1 -2.7 92 92" enable-background="new -3.1 -2.7 92 92"
	 xml:space="preserve">
<defs>
</defs>
<g id="XMLID_8_">
	<g>
		<path fill="#FFFFFF" d="M43.3,1.5c23.1,0,41.8,18.7,41.8,41.8c0,23.1-18.7,41.8-41.8,41.8c-23.1,0-41.8-18.7-41.8-41.8
			C1.5,20.2,20.2,1.5,43.3,1.5z"/>
	</g>
	<g>
		<path fill="none" stroke="#156734" stroke-width="3" stroke-miterlimit="10" d="M85.2,43.3c0,23.1-18.7,41.8-41.8,41.8
			c-23.1,0-41.8-18.7-41.8-41.8c0-23.1,18.7-41.8,41.8-41.8C66.4,1.5,85.2,20.2,85.2,43.3z"/>
	</g>
</g>
<g id="XMLID_7_">
	<g>
		<polygon fill="#0F8140" points="68.5,51.9 18.5,51.9 25.5,42.5 61.6,42.5 		"/>
		<path fill="#156734" d="M68.6,64.5h-50V52c0,0,0,0,0-0.1h50c0,0,0,0,0,0V64.5z"/>
	</g>
	<g>
		<polyline fill="none" stroke="#FFFFFF" stroke-linecap="round" stroke-linejoin="round" stroke-miterlimit="10" points="
			68.5,51.9 61.6,42.5 25.5,42.5 18.5,51.9 		"/>
		<path fill="none" stroke="#FFFFFF" stroke-linecap="round" stroke-linejoin="round" stroke-miterlimit="10" d="M18.5,51.9
			C18.5,52,18.5,52,18.5,51.9l0,12.6h50V51.9c0,0,0,0,0,0H18.5z"/>
		<line fill="none" stroke="#FFFFFF" stroke-miterlimit="10" x1="27" y1="55.5" x2="60" y2="55.5"/>
		<line fill="none" stroke="#FFFFFF" stroke-miterlimit="10" x1="27" y1="58.5" x2="60" y2="58.5"/>
		<line fill="none" stroke="#FFFFFF" stroke-miterlimit="10" x1="27" y1="61.5" x2="60" y2="61.5"/>
	</g>
</g>
<g id="XMLID_6_">
	<g>
		<polygon fill="#0F8140" points="61.6,30 68.5,39.4 41,39.4 18.5,39.4 25.5,30 		"/>
		<path fill="#FFFFFF" d="M61,43.6c1.1,0,2,0.9,2,2.1c0,1.1-0.9,2.1-2,2.1c-1.1,0-2-0.9-2-2.1C59,44.5,59.9,43.6,61,43.6z"/>
		<path fill="#156734" d="M63,45.7c0-1.2-0.9-2.1-2-2.1c-1.1,0-2,0.9-2,2.1c0,1.1,0.9,2.1,2,2.1C62.2,47.8,63,46.8,63,45.7z
			 M68.6,39.4V52H39v-2.8h2V42v-2.6H68.6C68.5,39.5,68.6,39.4,68.6,39.4z"/>
		<rect x="39" y="42" fill="#156734" width="2" height="7.3"/>
		<rect x="34" y="42" fill="#156734" width="2" height="7.3"/>
		<rect x="29" y="42" fill="#156734" width="2" height="7.3"/>
		<rect x="24" y="42" fill="#156734" width="2" height="7.3"/>
		<path fill="#156734" d="M24,49.2h2V42h-2V49.2z M29,49.2h2V42h-2V49.2z M18.5,39.4H41V42h-2v7.3V52H18.5L18.5,39.4
			C18.5,39.5,18.5,39.5,18.5,39.4z M34,42v7.3h2V42H34z"/>
	</g>
	<g>
		<polyline fill="none" stroke="#FFFFFF" stroke-linecap="round" stroke-linejoin="round" stroke-miterlimit="10" points="
			68.5,39.4 61.6,30 25.5,30 18.5,39.4 		"/>
		<path fill="none" stroke="#FFFFFF" stroke-linecap="round" stroke-linejoin="round" stroke-miterlimit="10" d="M39,52h29.5V39.4
			c0,0,0,0,0,0H41H18.5c0,0,0,0.1,0,0.1V52H39z"/>
		
			<rect x="24" y="42" fill="none" stroke="#FFFFFF" stroke-linecap="round" stroke-linejoin="round" stroke-miterlimit="10" width="2" height="7.3"/>
		
			<rect x="29" y="42" fill="none" stroke="#FFFFFF" stroke-linecap="round" stroke-linejoin="round" stroke-miterlimit="10" width="2" height="7.3"/>
		
			<rect x="34" y="42" fill="none" stroke="#FFFFFF" stroke-linecap="round" stroke-linejoin="round" stroke-miterlimit="10" width="2" height="7.3"/>
		
			<rect x="39" y="42" fill="none" stroke="#FFFFFF" stroke-linecap="round" stroke-linejoin="round" stroke-miterlimit="10" width="2" height="7.3"/>
	</g>
</g>
<g id="XMLID_5_">
	<g>
		<path fill="#156734" d="M68.5,27v12.5h-50V27.1c0,0,0,0,0-0.1H68.5C68.5,27,68.5,27,68.5,27z M55,33.5c0-1.1-0.9-2-2-2
			c-1.1,0-2,0.9-2,2c0,1.1,0.9,2,2,2C54.1,35.5,55,34.6,55,33.5z M46,33.5c0-1.1-0.9-2-2-2c-1.1,0-2,0.9-2,2c0,1.1,0.9,2,2,2
			C45.1,35.5,46,34.6,46,33.5z M37,33.5c0-1.1-0.9-2-2-2c-1.1,0-2,0.9-2,2c0,1.1,0.9,2,2,2C36.1,35.5,37,34.6,37,33.5z"/>
		<polygon fill="#1E572B" points="61.5,17.5 68.5,27 18.5,27 25.5,17.5 		"/>
		<path fill="#FFFFFF" d="M53,31.5c1.1,0,2,0.9,2,2c0,1.1-0.9,2-2,2c-1.1,0-2-0.9-2-2C51,32.4,51.9,31.5,53,31.5z"/>
		<path fill="#FFFFFF" d="M44,31.5c1.1,0,2,0.9,2,2c0,1.1-0.9,2-2,2c-1.1,0-2-0.9-2-2C42,32.4,42.9,31.5,44,31.5z"/>
		<path fill="#FFFFFF" d="M35,31.5c1.1,0,2,0.9,2,2c0,1.1-0.9,2-2,2c-1.1,0-2-0.9-2-2C33,32.4,33.9,31.5,35,31.5z"/>
	</g>
	<g>
		<polyline fill="none" stroke="#FFFFFF" stroke-linecap="round" stroke-linejoin="round" stroke-miterlimit="10" points="68.5,27 
			61.5,17.5 25.5,17.5 18.5,27 		"/>
		<path fill="none" stroke="#FFFFFF" stroke-linecap="round" stroke-linejoin="round" stroke-miterlimit="10" d="M18.5,27
			C18.5,27,18.5,27.1,18.5,27l0,12.5h50V27c0,0,0,0,0,0H18.5z"/>
	</g>
</g>
</svg>
