<?xml version="1.0" encoding="utf-8"?>
<!-- Generator: Adobe Illustrator 15.0.0, SVG Export Plug-In . SVG Version: 6.00 Build 0)  -->
<!DOCTYPE svg PUBLIC "-//W3C//DTD SVG 1.1//EN" "http://www.w3.org/Graphics/SVG/1.1/DTD/svg11.dtd">
<svg version="1.1" id="Layer_1" xmlns="http://www.w3.org/2000/svg" xmlns:xlink="http://www.w3.org/1999/xlink" x="0px" y="0px"
	 width="90.5px" height="91px" viewBox="49 -16.5 90.5 91" enable-background="new 49 -16.5 90.5 91" xml:space="preserve">
<title>Compute</title>
<g>
	<circle fill="#FFFFFF" stroke="#C90505" stroke-width="3" stroke-miterlimit="10" cx="93.934" cy="29.499" r="41.833"/>
	<g>
		<g>
			<g id="XMLID_3_">
				<g>
					<path fill="#C90505" d="M119.15,50.666h-50.04v-12.5c0-0.01,0.01-0.04,0.01-0.08h50.01c0.01,0.04,0.02-0.02,0.02,0V50.666z"/>
					<polygon fill="#008000" points="112.161,28.666 119.131,38.086 69.121,38.086 76.101,28.666 					"/>
				</g>
				<g>
					<polyline fill="none" stroke="#FFFFFF" stroke-linecap="round" stroke-linejoin="round" stroke-miterlimit="10" points="
						119.131,38.086 112.161,28.666 76.101,28.666 69.121,38.086 					"/>
					<path fill="none" stroke="#FFFFFF" stroke-linecap="round" stroke-linejoin="round" stroke-miterlimit="10" d="M69.121,38.086
						c0,0.04-0.01,0.07-0.01,0.08v12.5h50.04v-12.58c0-0.02-0.01,0.04-0.02,0H69.121z"/>
					<line fill="none" stroke="#FFFFFF" stroke-miterlimit="10" x1="77.61" y1="41.666" x2="110.641" y2="41.666"/>
					<line fill="none" stroke="#FFFFFF" stroke-miterlimit="10" x1="77.61" y1="44.666" x2="110.641" y2="44.666"/>
					<line fill="none" stroke="#FFFFFF" stroke-miterlimit="10" x1="77.61" y1="47.666" x2="110.641" y2="47.666"/>
				</g>
			</g>
		</g>
		<g>
			<title>Compute</title>
			<g>
				<g id="XMLID_2_">
					<g>
						<path fill="#C90505" d="M119.15,25.596v12.57H89.61v-2.75h2v-7.25v-2.57h27.521C119.141,25.626,119.15,25.576,119.15,25.596z
							 M113.641,31.866c0-1.16-0.89-2.101-2-2.101c-1.1,0-2,0.94-2,2.101c0,1.149,0.9,2.09,2,2.09
							C112.751,33.956,113.641,33.016,113.641,31.866z"/>
						<polygon fill="#008000" points="112.161,16.166 119.131,25.596 91.61,25.596 69.121,25.596 76.101,16.166 						"/>
						<path fill="#FFFFFF" d="M111.641,29.766c1.11,0,2,0.94,2,2.101c0,1.149-0.89,2.09-2,2.09c-1.1,0-2-0.94-2-2.09
							C109.641,30.706,110.541,29.766,111.641,29.766z"/>
						<rect x="89.61" y="28.166" fill="#C90505" width="2" height="7.25"/>
						<rect x="84.61" y="28.166" fill="#C90505" width="2" height="7.25"/>
						<rect x="79.61" y="28.166" fill="#C90505" width="2" height="7.25"/>
						<rect x="74.611" y="28.166" fill="#C90505" width="2" height="7.25"/>
						<path fill="#C90505" d="M74.611,35.416h2v-7.25h-2V35.416z M79.61,35.416h2v-7.25h-2V35.416z M84.61,35.416h2v-7.25h-2V35.416
							z M89.61,28.166v7.25v2.75h-20.5v-12.49c0-0.02,0.01-0.05,0.01-0.08h22.49v2.57H89.61z"/>
					</g>
					<g>
						<polyline fill="none" stroke="#FFFFFF" stroke-linecap="round" stroke-linejoin="round" stroke-miterlimit="10" points="
							119.131,25.596 112.161,16.166 76.101,16.166 69.121,25.596 						"/>
						<path fill="none" stroke="#FFFFFF" stroke-linecap="round" stroke-linejoin="round" stroke-miterlimit="10" d="M89.61,38.166
							h29.54v-12.57c0-0.02-0.01,0.03-0.02,0H91.61h-22.49c0,0.03-0.01,0.061-0.01,0.08v12.49H89.61z"/>
						
							<rect x="74.611" y="28.166" fill="none" stroke="#FFFFFF" stroke-linecap="round" stroke-linejoin="round" stroke-miterlimit="10" width="2" height="7.25"/>
						
							<rect x="79.61" y="28.166" fill="none" stroke="#FFFFFF" stroke-linecap="round" stroke-linejoin="round" stroke-miterlimit="10" width="2" height="7.25"/>
						
							<rect x="84.61" y="28.166" fill="none" stroke="#FFFFFF" stroke-linecap="round" stroke-linejoin="round" stroke-miterlimit="10" width="2" height="7.25"/>
						
							<rect x="89.61" y="28.166" fill="none" stroke="#FFFFFF" stroke-linecap="round" stroke-linejoin="round" stroke-miterlimit="10" width="2" height="7.25"/>
					</g>
				</g>
			</g>
		</g>
		<g>
			<title>Load Balancer</title>
			<g>
				<g id="XMLID_1_">
					<g>
						<path fill="#C90505" d="M119.081,13.186v12.52h-49.97v-12.45c0-0.02,0.01-0.04,0.02-0.07h49.939
							C119.07,13.216,119.081,13.166,119.081,13.186z M105.591,19.696c0-1.11-0.9-2-2-2c-1.11,0-2,0.89-2,2c0,1.11,0.89,2,2,2
							C104.69,21.696,105.591,20.806,105.591,19.696z M96.591,19.696c0-1.11-0.891-2-1.99-2c-1.11,0-2,0.89-2,2c0,1.11,0.89,2,2,2
							C95.7,21.696,96.591,20.806,96.591,19.696z M87.601,19.696c0-1.11-0.89-2-2-2c-1.1,0-2,0.89-2,2c0,1.11,0.9,2,2,2
							C86.711,21.696,87.601,20.806,87.601,19.696z"/>
						<polygon fill="#A00202" points="112.101,3.666 119.07,13.186 69.131,13.186 76.091,3.666 						"/>
						<path fill="#FFFFFF" d="M103.591,17.696c1.1,0,2,0.89,2,2c0,1.11-0.9,2-2,2c-1.11,0-2-0.89-2-2
							C101.591,18.586,102.48,17.696,103.591,17.696z"/>
						<path fill="#FFFFFF" d="M94.601,17.696c1.1,0,1.99,0.89,1.99,2c0,1.11-0.891,2-1.99,2c-1.11,0-2-0.89-2-2
							C92.601,18.586,93.49,17.696,94.601,17.696z"/>
						<path fill="#FFFFFF" d="M85.601,17.696c1.11,0,2,0.89,2,2c0,1.11-0.89,2-2,2c-1.1,0-2-0.89-2-2
							C83.601,18.586,84.501,17.696,85.601,17.696z"/>
					</g>
					<g>
						<polyline fill="none" stroke="#FFFFFF" stroke-linecap="round" stroke-linejoin="round" stroke-miterlimit="10" points="
							119.07,13.186 112.101,3.666 76.091,3.666 69.131,13.186 						"/>
						<path fill="none" stroke="#FFFFFF" stroke-linecap="round" stroke-linejoin="round" stroke-miterlimit="10" d="M69.131,13.186
							c-0.01,0.03-0.02,0.05-0.02,0.07v12.45h49.97v-12.52c0-0.02-0.011,0.03-0.011,0H69.131z"/>
					</g>
				</g>
			</g>
		</g>
	</g>
</g>
<line fill="none" x1="41" y1="42.25" x2="90.969" y2="42.25"/>
</svg>
