<?xml version="1.0" standalone="no"?>
<!DOCTYPE svg PUBLIC "-//W3C//DTD SVG 20010904//EN"
 "http://www.w3.org/TR/2001/REC-SVG-20010904/DTD/svg10.dtd">
<svg version="1.0" xmlns="http://www.w3.org/2000/svg"
 width="300.000000pt" height="300.000000pt" viewBox="0 0 300.000000 300.000000"
 preserveAspectRatio="xMidYMid meet" style="background-color: #FFFFFF;">
<g transform="translate(0.000000,300.000000) scale(0.100000,-0.100000)"
fill="#C82128" stroke="none">
<path d="M1375 2904 c-102 -11 -229 -37 -320 -65 -98 -30 -259 -108 -319 -155
-17 -13 -68 -49 -113 -81 -89 -63 -209 -194 -295 -321 -112 -167 -190 -371
-217 -566 -14 -99 -14 -322 0 -423 18 -132 74 -335 98 -353 4 -3 20 -36 35
-74 16 -37 48 -93 71 -125 23 -31 46 -64 51 -74 14 -25 118 -142 184 -206 65
-63 248 -185 352 -234 203 -97 363 -131 608 -130 289 0 476 54 750 216 85 51
129 86 237 193 73 73 133 138 133 145 0 8 18 34 40 59 24 28 65 101 109 195
55 120 75 178 101 290 53 234 52 382 -6 638 -33 148 -156 422 -201 450 -7 4
-13 13 -13 18 0 18 -91 131 -162 201 -137 135 -328 259 -492 319 -165 61 -467
101 -631 83z m445 -119 c117 -29 268 -93 368 -157 37 -24 79 -49 94 -57 15 -8
79 -65 142 -127 107 -106 176 -196 227 -296 12 -24 25 -45 30 -48 23 -15 111
-289 129 -400 14 -91 12 -331 -4 -420 -21 -116 -101 -354 -125 -369 -5 -4 -25
-38 -44 -77 -20 -39 -62 -105 -95 -145 -56 -72 -238 -248 -279 -272 -170 -99
-312 -161 -453 -199 -119 -31 -133 -33 -305 -32 -196 0 -257 10 -439 73 -120
42 -295 135 -361 192 -11 10 -47 40 -80 67 -33 27 -80 75 -105 107 -25 31 -63
79 -86 106 -63 75 -169 296 -196 409 -13 52 -26 97 -29 100 -10 8 -29 177 -29
260 0 92 17 245 30 268 5 9 19 55 31 102 39 153 89 254 221 440 18 25 70 84
117 131 74 73 115 105 256 197 48 31 230 113 296 133 127 38 221 49 409 44
146 -3 192 -8 280 -30z"/>
<path d="M925 2258 c-3 -7 -4 -341 -3 -743 l3 -730 565 0 565 0 0 740 0 740
-563 3 c-445 2 -564 0 -567 -10z m671 -141 c26 -6 137 -58 144 -67 3 -3 17
-15 32 -26 32 -25 86 -95 110 -144 18 -37 50 -159 43 -169 -2 -4 -5 -31 -6
-61 -5 -94 -50 -191 -123 -265 l-40 -40 -100 103 c-109 110 -122 116 -191 88
-32 -14 -65 -59 -65 -89 0 -11 51 -126 80 -179 8 -14 5 -16 -23 -12 -120 14
-231 69 -290 142 -10 12 -24 28 -31 35 -14 14 -65 119 -73 151 -3 11 -6 57 -8
100 -7 189 108 352 297 421 50 18 79 22 143 20 44 -2 90 -5 101 -8z m104 -819
c98 -100 176 -187 174 -193 -3 -5 -36 -30 -74 -55 -38 -25 -70 -48 -70 -52 0
-5 -10 -8 -22 -8 -18 1 -29 14 -53 67 -16 37 -42 92 -56 122 -127 273 -125
267 -109 286 7 8 17 15 23 15 6 0 90 -82 187 -182z m-565 -270 c32 -14 43 -51
32 -107 -7 -35 -52 -56 -101 -47 -26 5 -38 15 -50 41 -39 82 34 152 119 113z"/>
<path d="M1454 1783 c-32 -6 -52 -33 -60 -79 -5 -36 -3 -45 22 -73 31 -35 67
-42 117 -22 56 22 66 110 17 154 -29 26 -48 30 -96 20z"/>
</g>
</svg>
